<?xml version="1.0" encoding="UTF-8"?>
<svg width="28px" height="28px" viewBox="0 0 28 28" version="1.1" xmlns="http://www.w3.org/2000/svg" xmlns:xlink="http://www.w3.org/1999/xlink">
    <!-- Generator: sketchtool 40.1 (33804) - http://www.bohemiancoding.com/sketch -->
    <title>add-trp-sm</title>
    <desc>Created with sketchtool.</desc>
    <defs></defs>
    <g id="14pt-icons" stroke="none" stroke-width="1" fill="none" fill-rule="evenodd">
        <g id="add-trp-sm" fill="#636464">
            <path d="M25.5854545,4.525 L2.41454545,4.525 C1.08363636,4.525 0,5.589 0,6.891 L0,22.109 C0,23.409 1.08051948,24.475 2.41454545,24.475 L25.5854545,24.475 C26.9163636,24.475 28,23.411 28,22.109 L28,6.891 C28,5.591 26.9194805,4.525 25.5854545,4.525 L25.5854545,4.525 Z M26,6.92363636 L26,9.5 L1.99901032,9.5 L2,6.92363636 C2,6.69090909 2.21317696,6.5 2.46050362,6.5 L25.5394964,6.5 C25.7878579,6.5 26,6.69090909 26,6.92363636 L26,6.92363636 Z M2,11.5 L26,11.5 L26,21.9924752 C26,22.2712871 25.7868322,22.5 25.5395162,22.5 L2.46048377,22.5 C2.21213297,22.5 2,22.2712871 2,21.9924752 L2,11.5 Z" id="Shape"></path>
            <path d="M19.34,17.997 L19.34,20.015 C19.34,20.557 19.774,21 20.314,21 C20.855,21 21.288,20.557 21.288,20.015 L21.288,17.997 L23.339,17.997 C23.88,17.997 24.313,17.554 24.313,17.012 C24.313,16.47 23.879,16.027 23.339,16.027 L21.283,16.027 L21.283,13.985 C21.283,13.443 20.849,13 20.309,13 C19.768,13 19.335,13.443 19.335,13.985 L19.335,16.027 L17.474,16.027 C16.933,16.027 16.5,16.47 16.5,17.012 C16.5,17.554 16.934,17.997 17.474,17.997 L19.34,17.997 Z" id="Shape"></path>
        </g>
    </g>
</svg>