<?xml version="1.0" encoding="UTF-8"?>
<svg width="28px" height="28px" viewBox="0 0 28 28" version="1.1" xmlns="http://www.w3.org/2000/svg" xmlns:xlink="http://www.w3.org/1999/xlink">
    <!-- Generator: sketchtool 40.1 (33804) - http://www.bohemiancoding.com/sketch -->
    <title>add-trp-sm</title>
    <desc>Created with sketchtool.</desc>
    <defs></defs>
    <g id="14pt-icons" stroke="none" stroke-width="1" fill="none" fill-rule="evenodd">
        <g id="add-trp-sm" fill="#636464">
            <path d="M25.151,4.525 L2.849,4.525 C1.568,4.525 0.525,5.589 0.525,6.891 L0.525,22.109 C0.525,23.409 1.565,24.475 2.849,24.475 L25.151,24.475 C26.432,24.475 27.475,23.411 27.475,22.109 L27.475,6.891 C27.475,5.591 26.435,4.525 25.151,4.525 L25.151,4.525 Z M2.404,7.525 L25.597,7.525 L25.597,9.525 L2.404,9.525 L2.404,7.525 L2.404,7.525 Z M25.596,6.891 L25.596,7.525 L2.404,7.525 L2.404,6.891 C2.404,6.635 2.61,6.425 2.849,6.425 L25.151,6.425 C25.391,6.425 25.596,6.635 25.596,6.891 L25.596,6.891 Z M2.404,11.525 L25.597,11.525 L25.597,22.0651683 C25.597,22.3452475 25.391,22.575 25.152,22.575 L2.849,22.575 C2.609,22.575 2.404,22.3452475 2.404,22.0651683 L2.404,11.525 Z" id="Shape"></path>
            <path d="M19.34,17.997 L19.34,20.015 C19.34,20.557 19.774,21 20.314,21 C20.855,21 21.288,20.557 21.288,20.015 L21.288,17.997 L23.339,17.997 C23.88,17.997 24.313,17.554 24.313,17.012 C24.313,16.47 23.879,16.027 23.339,16.027 L21.283,16.027 L21.283,13.985 C21.283,13.443 20.849,13 20.309,13 C19.768,13 19.335,13.443 19.335,13.985 L19.335,16.027 L17.474,16.027 C16.933,16.027 16.5,16.47 16.5,17.012 C16.5,17.554 16.934,17.997 17.474,17.997 L19.34,17.997 Z" id="Shape"></path>
        </g>
    </g>
</svg>