<?xml version="1.0" encoding="UTF-8"?>
<svg width="44px" height="44px" viewBox="0 0 44 44" version="1.1" xmlns="http://www.w3.org/2000/svg" xmlns:xlink="http://www.w3.org/1999/xlink">
    <!-- Generator: sketchtool 40.1 (33804) - http://www.bohemiancoding.com/sketch -->
    <title>admin</title>
    <desc>Created with sketchtool.</desc>
    <defs></defs>
    <g id="22pt-icons" stroke="none" stroke-width="1" fill="none" fill-rule="evenodd">
        <g id="admin" fill="#636464">
            <path d="M30.7,19.75 L29.4,19.15 C28.5,18.75 28.1,17.75 28.5,16.95 L28.8,16.15 C28.4,15.85 28.1,15.45 27.7,15.05 L27.1,15.25 C26.2,15.65 25.2,15.15 24.9,14.35 L24.4,13.05 C24,12.15 24.5,11.15 25.3,10.85 L25.9,10.65 L25.9,9.15 L25.1,8.85 C24.7,8.65 24.3,8.35 24.2,7.95 C24,7.55 24,7.05 24.2,6.65 L24.8,5.35 C25,4.95 25.3,4.55 25.7,4.45 C26.1,4.25 26.6,4.25 27,4.45 L27.8,4.75 C28,4.15 28.4,3.85 28.8,3.55 L28.6,2.95 C28.2,2.05 28.7,1.05 29.5,0.75 L30.8,0.25 C31.7,-0.15 32.7,0.35 33,1.15 L33.2,1.75 L34.7,1.75 L35,1.05 C35.2,0.65 35.5,0.25 35.9,0.15 C36.3,-0.05 36.8,-0.05 37.2,0.15 L38.5,0.75 C39.4,1.15 39.8,2.15 39.4,3.05 L39.1,3.75 C39.7,3.85 40,4.25 40.3,4.65 L40.9,4.45 C41.8,4.05 42.8,4.55 43.1,5.35 L43.6,6.65 C43.8,7.05 43.8,7.55 43.6,7.95 C43.4,8.35 43.1,8.75 42.7,8.85 L42.1,9.05 L42.1,10.55 L42.9,10.85 C43.3,11.05 43.7,11.35 43.8,11.75 C44,12.15 44,12.65 43.8,13.05 L43.2,14.35 C43,14.75 42.7,15.15 42.3,15.25 C41.9,15.45 41.4,15.45 41,15.25 L40.2,14.95 C39.9,15.35 39.5,15.75 39.1,16.05 L39.3,16.65 C39.5,17.05 39.5,17.55 39.3,17.95 C39.1,18.35 38.8,18.65 38.4,18.85 L37.1,19.35 C36.7,19.55 36.2,19.55 35.8,19.35 C35.4,19.15 35.1,18.85 34.9,18.45 L34.7,17.85 L33.2,17.85 L32.9,18.65 C32.7,19.05 32.3305203,19.9750592 31.4,19.85 C31.2,19.85 31,19.85 30.7,19.75 Z M30.4,17.45 L31.2,17.75 L31.7,16.55 C31.9,16.15 32.3,15.85 32.8,15.95 C33.6,16.15 34.4,16.15 35.2,15.95 C35.7,15.85 36.1,16.15 36.3,16.55 L36.7,17.55 L37.5,17.25 L37.1,16.25 C36.9,15.85 37.1,15.35 37.5,15.05 C38.2,14.65 38.7,14.05 39.2,13.35 C39.5,12.95 40,12.85 40.4,12.95 L41.6,13.45 L41.9,12.65 L40.7,12.15 C40.3,11.95 40,11.55 40.1,11.05 C40.3,10.25 40.2,9.45 40.1,8.65 C40,8.15 40.3,7.75 40.7,7.55 L41.7,7.15 L41.4,6.35 L40.4,6.75 C40,6.95 39.5,6.75 39.2,6.35 C38.7,5.65 38.2,5.15 37.5,4.65 C37.1,4.35 37,3.85 37.1,3.45 L37.6,2.25 L36.8,1.95 L36.3,3.15 C36.1,3.55 35.7,3.85 35.2,3.75 C34.4,3.55 33.6,3.55 32.8,3.75 C32.3,3.85 31.9,3.55 31.7,3.15 L31.3,2.15 L30.5,2.45 L30.9,3.45 C31.1,3.85 30.9,4.35 30.5,4.65 C29.8,5.05 29.3,5.65 28.8,6.35 C28.5,6.75 28,6.85 27.6,6.75 L26.4,6.25 L26.1,7.05 L27.3,7.55 C27.7,7.75 28,8.15 27.9,8.65 C27.7,9.45 27.7,10.25 27.9,11.05 C28,11.55 27.7,11.95 27.3,12.15 L26.3,12.55 L26.6,13.35 L27.6,12.95 C28,12.75 28.6,12.95 28.8,13.35 C29.2,14.05 29.8,14.55 30.5,15.05 C30.9,15.35 31,15.85 30.9,16.25 L30.4,17.45 L30.4,17.45 Z" id="Shape"></path>
            <path d="M15,36 C11.1,36 8,32.9 8,29 C8,25.1 11.1,22 15,22 C18.9,22 22,25.1 22,29 C22,32.9 18.9,36 15,36 L15,36 Z M15,24 C12.2,24 10,26.2 10,29 C10,31.8 12.2,34 15,34 C17.8,34 20,31.8 20,29 C20,26.2 17.8,24 15,24 L15,24 Z" id="Shape"></path>
            <path d="M15.9,44 L14.2,44 C13,44 12,43 12,41.9 L12,40.3 C11,40 10,39.6 9.2,39.2 L8.3,40.1 C7.5,40.9 6.2,40.9 5.4,40.1 L3.9,38.6 C3.5,38.2 3.3,37.7 3.3,37.1 C3.3,36.5 3.5,36 3.9,35.6 L4.8,34.7 C4.3,34 3.9,33 3.7,32 L2.1,32 C1,32 0,31 0,29.9 L0,28.2 C0,27 1,26 2.1,26 L3.7,26 C4,25 4.4,24 4.8,23.2 L3.9,22.3 C3.5,21.9 3.3,21.4 3.3,20.8 C3.3,20.2 3.5,19.7 3.9,19.3 L5.4,17.8 C6.2,17 7.5,17 8.3,17.8 L9.2,18.7 C10,18.2 11,17.8 12,17.6 L12,16 C12,14.9 13,13.9 14.1,13.9 L15.8,13.9 C17,13.9 17.9,14.9 17.9,16 L17.9,17.6 C18.9,17.9 19.9,18.3 20.7,18.7 L21.6,17.8 C22.4,17 23.7,17 24.5,17.8 L26,19.3 C26.4,19.7 26.6,20.2 26.6,20.8 C26.6,21.4 26.4,21.9 26,22.3 L25.1,23.2 C25.6,24 25.9,25 26.2,26 L27.8,26 C28.9,26 29.9,27 29.9,28.1 L29.9,29.8 C29.9,31 28.9,31.9 27.8,31.9 L26.2,31.9 C25.9,32.9 25.5,33.9 25.1,34.7 L26,35.6 C26.4,36 26.6,36.5 26.6,37.1 C26.6,37.7 26.4,38.2 26,38.6 L24.5,40.1 C23.7,40.9 22.4,40.9 21.6,40.1 L20.7,39.2 C20,39.7 19,40.1 18,40.3 L18,41.9 C18,43 17,44 15.9,44 L15.9,44 Z M9,37 C9.2,37 9.4,37.1 9.6,37.2 C10.6,37.8 11.9,38.4 13.2,38.6 C13.7,38.7 14,39.1 14,39.6 L14,42 L14.1,42.1 L15.8,42.1 C15.9,42.1 15.9,42 15.9,42 L15.9,39.6 C15.9,39.1 16.2,38.7 16.7,38.6 C18,38.3 19.4,37.8 20.3,37.2 C20.7,36.9 21.2,37 21.6,37.3 L23.1,38.8 L24.7,37.3 L23.2,35.7 C22.9,35.4 22.8,34.8 23.1,34.4 C23.7,33.4 24.3,32.1 24.5,30.8 C24.6,30.3 25,30 25.5,30 L27.9,30 L28,29.9 L28,28.2 C28,28.1 27.9,28.1 27.9,28.1 L25.5,28.1 C25,28.1 24.6,27.8 24.5,27.3 C24.2,26 23.7,24.6 23.1,23.7 C22.8,23.3 22.9,22.8 23.2,22.4 L24.7,20.9 L23.2,19.3 L21.6,20.8 C21.3,21.1 20.7,21.2 20.3,20.9 C19.3,20.3 18,19.7 16.7,19.5 C16.2,19.4 15.9,19 15.9,18.5 L15.9,16.1 L15.8,16 L14.1,16 C14,16 14,16.1 14,16.1 L14,18.5 C14,19 13.7,19.4 13.2,19.5 C11.9,19.8 10.5,20.3 9.6,20.9 C9.2,21.2 8.7,21.1 8.3,20.8 L6.8,19.3 L5.2,20.8 L6.7,22.4 C7,22.7 7.1,23.3 6.8,23.7 C6.2,24.7 5.6,26 5.4,27.3 C5.3,27.8 4.9,28.1 4.4,28.1 L2.1,28.1 L2,28.2 L2,29.9 C2,29.9 2.1,30 2.1,30 L4.5,30 C5,30 5.4,30.3 5.5,30.8 C5.8,32.1 6.3,33.5 6.9,34.4 C7.2,34.8 7.1,35.3 6.8,35.7 L5.3,37.2 L6.8,38.8 L8.4,37.3 C8.5,37.1 8.8,37 9,37 L9,37 Z" id="Shape"></path>
            <path d="M34,14 C31.8,14 30,12.2 30,10 C30,7.8 31.8,6 34,6 C36.2,6 38,7.8 38,10 C38,12.2 36.2,14 34,14 L34,14 Z M34,8 C32.9,8 32,8.9 32,10 C32,11.1 32.9,12 34,12 C35.1,12 36,11.1 36,10 C36,8.9 35.1,8 34,8 L34,8 Z" id="Shape"></path>
        </g>
    </g>
</svg>