<?xml version="1.0" encoding="UTF-8"?>
<svg width="44px" height="44px" viewBox="0 0 44 44" version="1.1" xmlns="http://www.w3.org/2000/svg" xmlns:xlink="http://www.w3.org/1999/xlink">
    <!-- Generator: sketchtool 40.1 (33804) - http://www.bohemiancoding.com/sketch -->
    <title>analyze</title>
    <desc>Created with sketchtool.</desc>
    <defs></defs>
    <g id="22pt-icons" stroke="none" stroke-width="1" fill="none" fill-rule="evenodd">
        <g id="analyze" fill="#636464">
            <path d="M40,2 L4,2 C1.794,2 0,3.8538 0,6.13333333 L0,28.8666667 C0,31.1462 1.794,33 4,33 L40,33 C42.206,33 44,31.1462 44,28.8666667 L44,6.13333333 C44,3.8538 42.206,2 40,2 L40,2 L40,2 Z M4,4.06666667 L40,4.06666667 C41.103,4.06666667 42,4.99356667 42,6.13333333 L42,22.6666667 L2,22.6666667 L2,6.13333333 C2,4.99356667 2.897,4.06666667 4,4.06666667 L4,4.06666667 L4,4.06666667 Z M40,30.9333333 L4,30.9333333 C2.897,30.9333333 2,30.0064333 2,28.8666667 L2,24.7333333 L42,24.7333333 L42,28.8666667 C42,30.0064333 41.103,30.9333333 40,30.9333333 L40,30.9333333 L40,30.9333333 Z" id="Shape"></path>
            <path d="M16.242,34.0320174 C15.704,33.8940523 15.163,34.2239688 15.03,34.7598331 L14.03,38.7588206 C14.01,38.8378006 14,38.9187801 14,39.0007594 C14,40.6543407 15.346,42 17,42 L27,42 C28.654,42 30,40.6543407 30,39.0007594 C30,38.9187801 29.99,38.8378006 29.97,38.7578209 L28.97,34.7588333 C28.836,34.2239688 28.291,33.8940523 27.758,34.0310176 C27.222,34.1649837 26.896,34.7078462 27.03,35.2437106 L27.995,39.1027335 C27.943,39.606606 27.517,40.0005062 27,40.0005062 L17,40.0005062 C16.483,40.0005062 16.057,39.606606 16.005,39.1037333 L16.97,35.2447103 C17.104,34.708846 16.778,34.1659834 16.242,34.0320174 L16.242,34.0320174 L16.242,34.0320174 Z" id="Shape"></path>
            <path d="M23,26 L21,26 C20.447,26 20,26.448 20,27 C20,27.552 20.447,28 21,28 L23,28 C23.553,28 24,27.552 24,27 C24,26.448 23.553,26 23,26 L23,26 L23,26 Z" id="Shape"></path>
            <path d="M26.041,17.935 C26.045,17.939 26.046,17.945 26.051,17.95 C26.056,17.955 26.061,17.955 26.065,17.96 C27.332,19.219 29.076,20 31,20 C34.859,20 38,16.86 38,13 C38,9.14 34.859,6 31,6 C29.076,6 27.332,6.781 26.065,8.041 C26.061,8.045 26.055,8.046 26.051,8.051 C26.047,8.056 26.046,8.061 26.041,8.066 C24.781,9.332 24,11.076 24,13 C24,14.924 24.781,16.668 26.041,17.935 L26.041,17.935 L26.041,17.935 Z M26.833,10.247 L29.586,13 L26.833,15.753 C26.309,14.962 26,14.017 26,13 C26,11.983 26.309,11.038 26.833,10.247 L26.833,10.247 L26.833,10.247 Z M30,10.586 L28.247,8.833 C28.771,8.485 29.363,8.231 30,8.101 L30,10.586 L30,10.586 L30,10.586 Z M31,18 C29.983,18 29.038,17.691 28.247,17.167 L31.414,14 L35.899,14 C35.434,16.279 33.414,18 31,18 L31,18 L31,18 Z M35.899,12 L32,12 L32,8.101 C33.956,8.5 35.5,10.044 35.899,12 L35.899,12 L35.899,12 Z" id="Shape"></path>
            <path d="M21,20 C21.553,20 22,19.552 22,19 C22,18.448 21.553,18 21,18 L20,18 L20,15 C20,14.448 19.553,14 19,14 C18.447,14 18,14.448 18,15 L18,18 L16,18 L16,11 C16,10.448 15.553,10 15,10 C14.447,10 14,10.448 14,11 L14,18 L12,18 L12,13 C12,12.448 11.553,12 11,12 C10.447,12 10,12.448 10,13 L10,18 L8,18 L8,7 C8,6.448 7.553,6 7,6 C6.447,6 6,6.448 6,7 L6,19 C6,19.552 6.447,20 7,20 L21,20 Z" id="Shape"></path>
        </g>
    </g>
</svg>