<?xml version="1.0" encoding="UTF-8"?>
<svg width="44px" height="44px" viewBox="0 0 44 44" version="1.1" xmlns="http://www.w3.org/2000/svg" xmlns:xlink="http://www.w3.org/1999/xlink">
    <!-- Generator: sketchtool 40.1 (33804) - http://www.bohemiancoding.com/sketch -->
    <title>api-proxy</title>
    <desc>Created with sketchtool.</desc>
    <defs></defs>
    <g id="22pt-icons" stroke="none" stroke-width="1" fill="none" fill-rule="evenodd">
        <g id="api-proxy" fill="#636464">
            <path d="M21.1477505,42.4930614 C20.8661649,42.9783234 20.2438479,43.1453056 19.7501316,42.86164 L19.7501316,42.86164 C19.2598335,42.5799383 19.0920012,41.9561761 19.3747578,41.4693059 L25.5334211,30.8648865 C24.1016671,31.4831352 22.5460587,31.7658555 20.9868421,31.6911935 L3.0208151,31.6911935 C2.45703449,31.6911935 2,31.2383928 2,30.6710614 L2,30.6710614 C2,30.107658 2.45926546,29.6509293 3.02477871,29.6509293 L15.3421053,29.6509293 C14.0964253,28.7192698 13.0789253,27.5195765 12.3657895,26.1416749 L3.38277597,10.6971091 C3.10088566,10.2124529 3.26641526,9.59316101 3.76013158,9.30949533 L3.76013158,9.30949533 C4.25042963,9.02779363 4.87717419,9.19412476 5.1594958,9.68013021 L11.3086842,20.265714 C11.4931367,18.7268745 12.0303394,17.2506157 12.8789474,15.9505553 L21.8619609,0.50598946 C22.1438512,0.0213332404 22.7664153,-0.145157878 23.2601316,0.138507794 L23.2601316,0.138507794 C23.7504296,0.420209493 23.9179087,1.04291816 23.6347171,1.52849123 L17.4665789,12.1046573 C18.901645,11.498122 20.4553033,11.2192421 22.0131579,11.2885516 L39.9791849,11.2885516 C40.5429655,11.2885516 41,11.7413523 41,12.3086837 L41,12.3086837 C41,12.8720871 40.5407345,13.3288158 39.9752213,13.3288158 L27.6578947,13.3288158 C28.9033296,14.2607328 29.9207778,15.4603652 30.6342105,16.8380702 L39.617224,32.282636 C39.8991143,32.7672922 39.7335847,33.3865841 39.2398684,33.6702498 L39.2398684,33.6702498 C38.7495704,33.9519515 38.1228258,33.7856203 37.8405042,33.2996149 L31.6913158,22.7140311 C31.5043787,24.2522839 30.9673734,25.7280005 30.1210526,27.0291898 L21.1477505,42.4930614 Z M13.2894737,21.4898726 C13.2894737,25.9970997 16.9654515,29.6509293 21.5,29.6509293 C26.0345485,29.6509293 29.7105263,25.9970997 29.7105263,21.4898726 C29.7105263,19.3254257 28.8454912,17.249629 27.3057188,15.719134 C25.7659465,14.1886389 23.677567,13.3288158 21.5,13.3288158 C16.9654515,13.3288158 13.2894737,16.9826454 13.2894737,21.4898726 Z M18.6554235,22.6610355 C18.178861,21.5174438 18.4422827,20.2011128 19.3228554,19.3258456 C20.2034282,18.4505784 21.5277384,18.1887439 22.6782621,18.6624351 C23.8287859,19.1361263 24.5789474,20.2520578 24.5789474,21.4898726 C24.5789474,23.1800828 23.2004557,24.5502688 21.5,24.5502688 C20.254682,24.5502688 19.1319861,23.8046272 18.6554235,22.6610355 Z M20.4736842,21.4898726 C20.4736842,22.053276 20.9331814,22.5100047 21.5,22.5100047 C22.0668186,22.5100047 22.5263158,22.053276 22.5263158,21.4898726 C22.5263158,20.9264692 22.0668186,20.4697405 21.5,20.4697405 C20.9331814,20.4697405 20.4736842,20.9264692 20.4736842,21.4898726 Z" id="Shape"></path>
        </g>
    </g>
</svg>