<?xml version="1.0" encoding="UTF-8"?>
<svg width="44px" height="44px" viewBox="0 0 44 44" version="1.1" xmlns="http://www.w3.org/2000/svg" xmlns:xlink="http://www.w3.org/1999/xlink">
    <!-- Generator: sketchtool 40.1 (33804) - http://www.bohemiancoding.com/sketch -->
    <title>api-doc</title>
    <desc>Created with sketchtool.</desc>
    <defs></defs>
    <g id="22pt-icons" stroke="none" stroke-width="1" fill="none" fill-rule="evenodd">
        <g id="doc-api" fill="#636464">
            <path d="M28.1758285,24.8085875 C28.7248943,24.8184208 29.1700001,24.383027 29.1700001,23.8300684 L29.1700001,23.7321028 C29.1700001,23.1818483 28.7318657,22.735779 28.1664913,22.735779 L22.1659557,22.735779 L21.9743557,22.735779 L21.8466224,22.735779 L23.1196043,20.5424988 C23.3983094,20.0623047 23.2449992,19.4513478 22.7615399,19.1687483 L22.6986826,19.132006 C22.222224,18.8534987 21.6089204,19.0200555 21.331276,19.4997963 L18.2062224,24.8995637 L18.2062224,24.9518291 L16.9408631,22.7884913 C16.6638269,22.3148528 16.047095,22.1628803 15.5764608,22.4412975 L15.5350507,22.4657949 C15.0585483,22.7476836 14.9005372,23.3670535 15.1766654,23.8398516 L17.9933335,28.6626677 C18.0840842,28.8656642 18.1908538,29.0613842 18.3126668,29.2480394 L15.7971936,29.2480394 C15.2464589,29.2480394 14.8000002,29.6914047 14.8000002,30.2443632 L14.8000002,30.3423288 C14.8000002,30.8925833 15.2561127,31.3386527 15.7985559,31.3386527 L22.0914446,31.3386527 L20.8506813,33.4635202 C20.5718186,33.9410861 20.7250011,34.5499124 21.2084604,34.8325119 L21.2713176,34.8692542 C21.7477763,35.1477615 22.3624115,34.9812047 22.6416844,34.5014639 L25.7850668,29.1016965 L27.0333957,31.2414231 C27.3139588,31.7223287 27.9206455,31.890497 28.4041048,31.6078975 L28.466962,31.5711551 C28.9434207,31.2926478 29.1012861,30.674564 28.8309625,30.210206 L25.8489334,25.0877189 C25.7957112,24.9831883 25.7318445,24.8682045 25.6679779,24.7636739 L28.1758285,24.8085875 Z M19.994489,28.0772959 L19.9306224,27.9727653 C19.8004657,27.6901225 19.7315925,27.3839854 19.7283779,27.0738016 C19.737458,26.1358794 20.3468519,25.3051548 21.249907,24.9996559 C22.1529621,24.694157 23.1540636,24.9800593 23.7494482,25.7134941 C24.3448328,26.446929 24.4055315,27.4690238 23.9010001,28.2654511 L23.9010001,28.3490757 C23.457004,29.0012274 22.6923642,29.3711322 21.8952615,29.3193787 C21.0981588,29.2676252 20.3897666,28.8020809 20.0370668,28.0982021 L19.994489,28.0772959 Z" id="Shape"></path>
            <path d="M29.707,0.293 C29.52,0.105 29.266,0 29,0 L8,0 C6.346,0 5,1.346 5,3 L5,41 C5,42.654 6.346,44 8,44 L36,44 C37.654,44 39,42.654 39,41 L39,10 C39,9.734 38.895,9.48 38.707,9.293 L29.707,0.293 L29.707,0.293 L29.707,0.293 L29.707,0.293 Z M36.586,10 L30,10 C29.448,10 29,9.552 29,9 L29,2.414 L36.586,10 L36.586,10 L36.586,10 L36.586,10 Z M36,42 L8,42 C7.448,42 7,41.552 7,41 L7,3 C7,2.448 7.448,2 8,2 L27,2 L27,9 C27,10.654 28.346,12 30,12 L37,12 L37,41 C37,41.552 36.552,42 36,42 L36,42 L36,42 L36,42 Z" id="Shape"></path>
        </g>
    </g>
</svg>