<?xml version="1.0" encoding="UTF-8"?>
<svg width="44px" height="44px" viewBox="0 0 44 44" version="1.1" xmlns="http://www.w3.org/2000/svg" xmlns:xlink="http://www.w3.org/1999/xlink">
    <!-- Generator: sketchtool 40.1 (33804) - http://www.bohemiancoding.com/sketch -->
    <title>api-doc</title>
    <desc>Created with sketchtool.</desc>
    <defs></defs>
    <g id="22pt-icons" stroke="none" stroke-width="1" fill="none" fill-rule="evenodd">
        <g id="api-doc" fill="#636464">
            <path d="M24.5366635,0 L10.0060909,0 C8.93661744,0.0122557805 7.92019161,0.478697299 7.1998428,1.28779745 C6.41967135,2.10730035 5.98872995,3.20989404 6.00144506,4.35398186 L6.00144506,39.6866469 C5.97160141,40.8339382 6.40510916,41.9430981 7.1998428,42.7528313 C7.93899691,43.5598833 8.97525912,44.0122814 10.0560241,43.9997463 L32.8555411,43.9997463 C35.1502385,43.9662792 36.9947819,42.055778 37,39.7070881 L37,13.1334899 L24.5366635,0 Z M24.5366635,3.06618441 L33.9740457,13.0619456 L26.6138862,13.0619456 C26.0635051,13.0687672 25.5365322,12.8344425 25.1658223,12.4180469 C24.7647415,12.0268102 24.5404823,11.4826419 24.5466501,10.9156165 L24.5466501,3.2705967 L24.5466501,3.2705967 L24.5366635,3.06618441 Z M34.8528707,39.6866469 C34.8590385,40.2536723 34.6347793,40.7978406 34.2336985,41.1890772 C33.8629887,41.6054729 33.3360158,41.8397976 32.7856346,41.8329759 L10.0460374,41.8329759 C9.50738899,41.8386956 8.99312704,41.6035357 8.6379201,41.1890772 C8.26106609,40.7845541 8.05326153,40.2455381 8.05869452,39.6866469 L8.05869452,4.3846437 C8.05326153,3.8257525 8.26106609,3.28673648 8.6379201,2.88221334 C8.99312704,2.46775482 9.50738899,2.232595 10.0460374,2.23831462 L22.5493206,2.23831462 L22.5493206,10.9156165 C22.5430983,12.0373448 22.9744555,13.1152505 23.7477183,13.9102566 C24.4798129,14.7324133 25.5170199,15.20007 26.6038996,15.1980541 L34.8528707,15.1980541 L34.8528707,39.6866469 Z" id="Shape"></path>
            <path d="M27.8747749,25.80813 C28.4237974,25.8179625 28.8688682,25.382603 28.8688682,24.829688 L28.8688682,24.7317301 C28.8688682,24.181519 28.4307683,23.7354848 27.8654384,23.7354848 L21.8653754,23.7354848 L21.6737905,23.7354848 L21.5460672,23.7354848 L22.8189489,21.5423774 C23.0976321,21.0622211 22.9443339,20.4513123 22.4609127,20.168735 L22.3980604,20.1319956 C21.9216392,19.8535102 21.308384,20.0200539 21.0307614,20.4997569 L17.9059539,25.8990991 L17.9059539,25.9513603 L16.6406943,23.788193 C16.3636799,23.3145917 15.7469966,23.1626312 15.2763995,23.4410265 L15.2349926,23.4655219 C14.7585278,23.7473884 14.6005291,24.3667096 14.8766355,24.8394705 L17.6930818,29.6619067 C17.7838254,29.8648872 17.8905866,30.0605918 18.01239,30.2472323 L15.4971148,30.2472323 C14.9464235,30.2472323 14.5,30.6905627 14.5,31.2434777 L14.5,31.3414356 C14.5,31.8916467 14.9560766,32.3376809 15.4984771,32.3376809 L21.7908701,32.3376809 L20.5502045,34.4623811 C20.2713638,34.9399094 20.4245342,35.5486877 20.9079555,35.831265 L20.9708078,35.8680044 C21.4472289,36.1464898 22.0618158,35.9799461 22.3410667,35.5002431 L25.4842014,30.1009009 L26.7324321,32.2404591 C27.0129731,32.7213267 27.6196119,32.8894818 28.1030332,32.6069045 L28.1658855,32.5701651 C28.6423066,32.2916797 28.8001596,31.6736445 28.5298573,31.2093231 L25.5480631,26.0872395 C25.494845,25.9827171 25.4309834,25.8677424 25.3671218,25.7632199 L27.8747749,25.80813 Z M19.6940798,29.0765811 L19.6302181,28.9720586 C19.5000717,28.6894381 19.4312039,28.3833252 19.4279896,28.0731657 C19.437069,27.1353174 20.0464148,26.3046582 20.9493989,25.9991834 C21.8523829,25.6937085 22.8534055,25.9795883 23.4487432,26.7129654 C24.0440809,27.4463425 24.1047748,28.4683568 23.6002832,29.2647214 L23.6002832,29.3483394 C23.156322,30.0004397 22.3917424,30.3703154 21.5947025,30.318566 C20.7976626,30.2668166 20.0893262,29.8013089 19.7366542,29.0974855 L19.6940798,29.0765811 Z" id="Shape"></path>
        </g>
    </g>
</svg>