<?xml version="1.0" encoding="UTF-8"?>
<svg width="29px" height="29px" viewBox="0 0 29 29" version="1.1" xmlns="http://www.w3.org/2000/svg" xmlns:xlink="http://www.w3.org/1999/xlink">
    <!-- Generator: sketchtool 40.1 (33804) - http://www.bohemiancoding.com/sketch -->
    <title>close-x-sm</title>
    <desc>Created with sketchtool.</desc>
    <defs></defs>
    <g id="14pt-icons" stroke="none" stroke-width="1" fill="none" fill-rule="evenodd">
        <g id="close-x-sm" fill="#636464">
            <path d="M15.4142136,14 L21.7071068,20.2928932 C22.0976311,20.6834175 22.0976311,21.3165825 21.7071068,21.7071068 C21.3165825,22.0976311 20.6834175,22.0976311 20.2928932,21.7071068 L14,15.4142136 L7.70710678,21.7071068 C7.31658249,22.0976311 6.68341751,22.0976311 6.29289322,21.7071068 C5.90236893,21.3165825 5.90236893,20.6834175 6.29289322,20.2928932 L12.5857864,14 L6.29289322,7.70710678 C5.90236893,7.31658249 5.90236893,6.68341751 6.29289322,6.29289322 C6.68341751,5.90236893 7.31658249,5.90236893 7.70710678,6.29289322 L14,12.5857864 L20.2928932,6.29289322 C20.6834175,5.90236893 21.3165825,5.90236893 21.7071068,6.29289322 C22.0976311,6.68341751 22.0976311,7.31658249 21.7071068,7.70710678 L15.4142136,14 L15.4142136,14 Z" id="Combined-Shape"></path>
        </g>
    </g>
</svg>