<?xml version="1.0" encoding="UTF-8"?>
<svg width="44px" height="44px" viewBox="0 0 44 44" version="1.1" xmlns="http://www.w3.org/2000/svg" xmlns:xlink="http://www.w3.org/1999/xlink">
    <!-- Generator: sketchtool 40.1 (33804) - http://www.bohemiancoding.com/sketch -->
    <title>cloud-upload</title>
    <desc>Created with sketchtool.</desc>
    <defs></defs>
    <g id="22pt-icons" stroke="none" stroke-width="1" fill="none" fill-rule="evenodd">
        <g id="cloud-upload" fill="#636464">
            <path d="M23,43 C23.553,43 24,42.552 24,42 L24,24.414 L28.293,28.707 C28.488,28.902 28.744,29 29,29 C29.256,29 29.512,28.902 29.707,28.707 C30.098,28.316 30.098,27.684 29.707,27.293 L23.708,21.294 C23.616,21.201 23.505,21.128 23.382,21.077 C23.138,20.976 22.862,20.976 22.618,21.077 C22.495,21.128 22.385,21.201 22.292,21.294 L16.293,27.293 C15.902,27.684 15.902,28.316 16.293,28.707 C16.684,29.098 17.316,29.098 17.707,28.707 L22,24.414 L22,42 C22,42.552 22.447,43 23,43 L23,43 L23,43 Z" id="Shape"></path>
            <path d="M37.742,16.812 C37.765,16.505 37.777,16.197 37.777,15.889 C37.777,9.333 32.444,4 25.888,4 C21.141,4 16.833,6.888 14.973,11.171 C13.928,10.553 12.734,10.222 11.499,10.222 C7.731,10.222 4.666,13.287 4.666,17.055 C4.666,17.19 4.67,17.325 4.678,17.459 C1.813,18.97 -0.001,21.94 -0.001,25.221 C-0.001,30.061 3.937,33.999 8.776,33.999 L18.998,33.999 C19.551,33.999 19.998,33.551 19.998,32.999 C19.998,32.447 19.551,31.999 18.998,31.999 L8.776,31.999 C5.04,32 2,28.959 2,25.222 C2,22.492 3.626,20.041 6.143,18.977 C6.572,18.796 6.819,18.343 6.739,17.885 C6.692,17.614 6.668,17.335 6.668,17.055 C6.668,14.39 8.836,12.222 11.501,12.222 C12.717,12.222 13.88,12.677 14.776,13.503 C15.029,13.737 15.386,13.823 15.718,13.732 C16.051,13.641 16.313,13.384 16.411,13.054 C17.651,8.9 21.549,5.999 25.889,5.999 C31.341,5.999 35.778,10.435 35.778,15.888 C35.778,16.404 35.738,16.919 35.66,17.42 C35.577,17.955 35.934,18.459 36.467,18.558 C39.674,19.151 42.001,21.954 42.001,25.222 C42.001,28.959 38.961,32 35.224,32 L27,32 C26.447,32 26,32.448 26,33 C26,33.552 26.447,34 27,34 L35.223,34 C40.063,34 44,30.062 44,25.222 C44,21.307 41.419,17.907 37.742,16.812 L37.742,16.812 L37.742,16.812 Z" id="Shape"></path>
        </g>
    </g>
</svg>