<?xml version="1.0" encoding="UTF-8"?>
<svg width="28px" height="28px" viewBox="0 0 28 28" version="1.1" xmlns="http://www.w3.org/2000/svg" xmlns:xlink="http://www.w3.org/1999/xlink">
    <!-- Generator: sketchtool 40.1 (33804) - http://www.bohemiancoding.com/sketch -->
    <title>cog-sm</title>
    <desc>Created with sketchtool.</desc>
    <defs></defs>
    <g id="14pt-icons" stroke="none" stroke-width="1" fill="none" fill-rule="evenodd">
        <g id="cog-sm" fill="#636464">
            <path d="M14,18.3333333 C11.6069559,18.3333333 9.66666667,16.3933459 9.66666667,14.0004406 C9.66666667,11.6062135 11.6065152,9.66666667 14,9.66666667 C16.3940369,9.66666667 18.3333333,11.6058847 18.3333333,14.0004406 C18.3333333,16.3936747 16.3935962,18.3333333 14,18.3333333 Z M14,7.5 C10.4100924,7.5 7.5,10.4093687 7.5,14.000459 C7.5,17.5901723 10.4105515,20.5 14,20.5 C17.5900749,20.5 20.5,17.5904636 20.5,14.000459 C20.5,10.4090773 17.590534,7.5 14,7.5 Z" id="Path"></path>
            <path d="M6.35530033,23.0059862 C6.36320393,22.9980825 4.99565135,21.6180095 4.99565135,21.6180095 C5.00155911,21.6239005 6.38548569,20.2532278 6.38548569,20.2532278 C6.7225648,19.9159235 6.77457936,19.3875381 6.50974199,18.9909808 C5.90986945,18.0927548 5.43293202,16.879971 5.1844484,15.6578914 C5.08970853,15.1919466 4.67997895,14.8571429 4.2045,14.8571429 L2.00007143,14.8571429 C2.02565472,14.8571429 2,13.1958571 2,13.1958571 C2,13.1703878 4.2045,13.1428571 4.2045,13.1428571 C4.68029616,13.1428571 5.09020682,12.8076168 5.18461625,12.3412813 C5.43275839,11.1155828 5.90653454,9.91092021 6.50963117,9.00825652 C6.77465906,8.61158535 6.72258316,8.08294102 6.38524964,7.7456075 L4.99517821,6.35553608 C5.00198895,6.36230978 6.38200849,4.99377618 6.38200849,4.99377618 C6.37449457,5.00127445 7.74584364,6.38455712 7.74584364,6.38455712 C8.08320097,6.72168925 8.61168973,6.77366075 9.00825652,6.5087026 C9.91323506,5.90405935 11.1185013,5.42817933 12.3424993,5.17879745 C12.8082595,5.08390174 13.1428571,4.67425774 13.1428571,4.19892857 L13.1428571,2.00007143 C13.1428571,2.02565894 14.8041429,2 14.8041429,2 C14.8296122,2 14.8571429,4.19892857 14.8571429,4.19892857 C14.8571429,4.67431061 15.1918132,5.08398483 15.6576387,5.17882554 C16.8780725,5.42730236 18.084623,5.90413468 18.9940197,6.50960143 C19.3906127,6.7736489 19.9184182,6.72122396 20.2553211,6.38432107 L21.6453925,4.99424964 C21.6383857,5.00127445 23.0052772,6.38199047 23.0052772,6.38199047 C22.9992264,6.37597557 21.6149865,7.74537145 21.6149865,7.74537145 C21.2776667,8.08246603 21.2253119,8.61084678 21.4899196,9.00758362 C22.0899236,9.90719327 22.5683825,11.12281 22.8165084,12.3422471 C22.9113035,12.8081265 23.3210027,13.1428571 23.7964286,13.1428571 L26.0008571,13.1428571 C25.9748003,13.1428571 26,14.8041429 26,14.8041429 C26,14.8300657 23.7964286,14.8571429 23.7964286,14.8571429 C23.3206324,14.8571429 22.9107217,15.1923832 22.8163123,15.6587187 C22.5677863,16.8863136 22.0946,18.0898187 21.4918605,18.9899731 C21.2262889,19.3865878 21.2780416,19.9156011 21.6154429,20.2532278 L23.0055143,21.6442278 C22.9993695,21.6380995 21.6189201,23.0062238 21.6189201,23.0062238 C21.6270941,22.9980825 20.2536997,21.613129 20.2536997,21.613129 C19.9161729,21.2753771 19.3869499,21.2233733 18.9901358,21.4889658 C18.0957889,22.0875631 16.8848465,22.5635533 15.6566694,22.8148723 C15.1913021,22.9100993 14.8571429,23.319561 14.8571429,23.7945714 L14.8571429,25.9999286 C14.8571429,25.974805 13.1967857,26 13.1967857,26 C13.1699327,26 13.1428571,23.7945714 13.1428571,23.7945714 C13.1428571,23.3189825 12.8079021,22.9091901 12.3418218,22.8145648 C11.1153296,22.5655577 9.91242124,22.0919 9.01045104,21.4887372 C8.61365637,21.2233938 8.08464642,21.2754864 7.74722891,21.613129 L6.35530033,23.0059862 Z M7.89869182,23.1512628 C9.02915332,23.9072217 10.474052,24.4761656 11.9438925,24.7745781 L11.1428571,23.7945714 L11.1428571,25.9999286 C11.1428571,27.1127387 12.096179,28 13.1967857,28 L14.8041429,28 C15.9040868,28 16.8571429,27.1124559 16.8571429,25.9999286 L16.8571429,23.7945714 L16.0576164,24.7742706 C17.5275404,24.4734835 18.9793867,23.9028001 20.1025785,23.1510342 L18.8390146,23.026871 L20.2309432,24.4197281 C21.0039896,25.1927746 22.2570487,25.1927746 23.0318926,24.421674 L24.4204371,23.0312762 C25.195202,22.2583852 25.195202,21.0036148 24.4191084,20.2293959 L23.0301286,18.8394865 L23.153711,20.1027412 C23.9100563,18.973186 24.4786491,17.5270232 24.7765448,16.055567 L23.7964286,16.8571429 L26.0008571,16.8571429 C27.1127598,16.8571429 28,15.9038012 28,14.8041429 L28,13.1958571 C28,12.0961988 27.1127598,11.1428571 26.0008571,11.1428571 L23.7964286,11.1428571 L24.7763488,11.9434671 C24.4789057,10.4816563 23.9055938,9.02504709 23.1537947,7.89784495 L23.0287278,9.16005712 L24.4197278,7.76998569 C25.1953451,6.99624242 25.1953451,5.73988158 24.4182497,4.96654032 L23.0340799,3.58050953 C22.2577089,2.80601127 21.0033286,2.80601127 20.2303224,3.58089369 L18.8411075,4.9701075 L20.1024089,4.84482715 C18.9669627,4.088859 17.5197441,3.51691394 16.0566471,3.2190316 L16.8571429,4.19892857 L16.8571429,2.00007143 C16.8571429,0.888312102 15.903874,0 14.8041429,0 L13.1967857,0 C12.0963921,0 11.1428571,0.888029275 11.1428571,2.00007143 L11.1428571,4.19892857 L11.943215,3.21905969 C10.4762176,3.51795118 9.02957088,4.08913641 7.89717205,4.84572597 L9.15958493,4.96987145 L7.76858493,3.57980002 C6.99667145,2.80601127 5.74321972,2.80601127 4.96817733,3.57918157 L3.58049151,4.96872382 C2.80529676,5.73828815 2.80529676,6.99783307 3.58267884,7.77145968 L4.97103608,9.15982107 L4.84665454,7.89717205 C4.09083009,9.02842572 3.5218234,10.4752293 3.22438375,11.944433 L4.2045,11.1428571 L2.00007143,11.1428571 C0.888312102,11.1428571 0,12.096126 0,13.1958571 L0,14.8041429 C0,15.903874 0.888312102,16.8571429 2.00007143,16.8571429 L4.2045,16.8571429 L3.2245516,16.0563943 C3.52236379,17.5210791 4.09422491,18.9752403 4.84654372,20.1017335 L4.97080002,18.8394865 L3.58072859,20.2304865 C2.8057266,21.0036148 2.8057266,22.2583852 3.58182019,23.0326041 L4.96684865,24.4194905 C5.74387986,25.1927746 6.99693893,25.1927746 7.76974964,24.4199639 L9.16191395,23.026871 L7.89869182,23.1512628 Z" id="Path"></path>
        </g>
    </g>
</svg>