<?xml version="1.0" encoding="UTF-8"?>
<svg width="28px" height="28px" viewBox="0 0 28 28" version="1.1" xmlns="http://www.w3.org/2000/svg" xmlns:xlink="http://www.w3.org/1999/xlink">
    <!-- Generator: sketchtool 40.1 (33804) - http://www.bohemiancoding.com/sketch -->
    <title>delete-sm</title>
    <desc>Created with sketchtool.</desc>
    <defs></defs>
    <g id="14pt-icons" stroke="none" stroke-width="1" fill="none" fill-rule="evenodd">
        <g id="delete-sm" fill="#636464">
            <path d="M4.5,24.5294118 C4.5,26.4422758 6.03123225,28 7.92857143,28 L20.0714286,28 C21.9687678,28 23.5,26.4422758 23.5,24.5294118 L23.5,6 C23.5,5.44771525 23.0522847,5 22.5,5 C21.9477153,5 21.5,5.44771525 21.5,6 L21.5,24.5294118 C21.5,25.3453124 20.8564465,26 20.0714286,26 L7.92857143,26 C7.14355347,26 6.5,25.3453124 6.5,24.5294118 L6.5,6 C6.5,5.44771525 6.05228475,5 5.5,5 C4.94771525,5 4.5,5.44771525 4.5,6 L4.5,24.5294118 Z" id="Stroke-252"></path>
            <path d="M25,7 C25.5522847,7 26,6.55228475 26,6 C26,5.44771525 25.5522847,5 25,5 L3,5 C2.44771525,5 2,5.44771525 2,6 C2,6.55228475 2.44771525,7 3,7 L25,7 Z" id="Stroke-253"></path>
            <path d="M13,23 C13,23.5522847 13.4477153,24 14,24 C14.5522847,24 15,23.5522847 15,23 L15,10 C15,9.44771525 14.5522847,9 14,9 C13.4477153,9 13,9.44771525 13,10 L13,23 Z" id="Stroke-254"></path>
            <path d="M8.69999981,23 C8.69999981,23.5522847 9.14771506,24 9.69999981,24 C10.2522846,24 10.6999998,23.5522847 10.6999998,23 L10.6999998,10 C10.6999998,9.44771525 10.2522846,9 9.69999981,9 C9.14771506,9 8.69999981,9.44771525 8.69999981,10 L8.69999981,23 Z" id="Stroke-255"></path>
            <path d="M17.3000011,23 C17.3000011,23.5522847 17.7477164,24 18.3000011,24 C18.8522859,24 19.3000011,23.5522847 19.3000011,23 L19.3000011,10 C19.3000011,9.44771525 18.8522859,9 18.3000011,9 C17.7477164,9 17.3000011,9.44771525 17.3000011,10 L17.3000011,23 Z" id="Stroke-256"></path>
            <path d="M10,3.5 C10,2.67165975 10.6716597,2 11.5,2 L16.5,2 C17.3283403,2 18,2.67165975 18,3.5 L18,6 C18,6.55228475 18.4477153,7 19,7 C19.5522847,7 20,6.55228475 20,6 L20,3.5 C20,1.56709025 18.4329097,0 16.5,0 L11.5,0 C9.56709025,0 8,1.56709025 8,3.5 L8,6 C8,6.55228475 8.44771525,7 9,7 C9.55228475,7 10,6.55228475 10,6 L10,3.5 Z" id="Stroke-257"></path>
        </g>
    </g>
</svg>