<?xml version="1.0" encoding="UTF-8"?>
<svg width="28px" height="28px" viewBox="0 0 28 28" version="1.1" xmlns="http://www.w3.org/2000/svg" xmlns:xlink="http://www.w3.org/1999/xlink">
    <!-- Generator: sketchtool 40.1 (33804) - http://www.bohemiancoding.com/sketch -->
    <title>deployment-sm</title>
    <desc>Created with sketchtool.</desc>
    <defs></defs>
    <g id="14pt-icons" stroke="none" stroke-width="1" fill="none" fill-rule="evenodd">
        <g id="deployment-sm" fill="#636464">
            <path d="M14.5,19 C13.6716597,19 13,18.3283403 13,17.5 C13,16.6716597 13.6716597,16 14.5,16 C15.3283403,16 16,16.6716597 16,17.5 C16,18.3283403 15.3283403,19 14.5,19 Z M14.5,14 C12.5670903,14 11,15.5670903 11,17.5 C11,19.4329097 12.5670903,21 14.5,21 C16.4329097,21 18,19.4329097 18,17.5 C18,15.5670903 16.4329097,14 14.5,14 Z" id="Stroke-335"></path>
            <path d="M9.64815355,22.721702 C9.77808812,22.5917674 9.98636302,22.5917674 10.1156259,22.7205921 L9.27753746,21.8825018 C9.40747392,22.0133147 9.40747392,22.2223798 9.27642188,22.3529861 L10.1194027,21.5092205 C10.4312376,21.1970942 10.4793199,20.7082171 10.2342686,20.3413196 C9.87237913,19.7994888 9.61306211,19.1777057 9.4784575,18.5232488 C9.38998208,18.0930752 9.01130715,17.7843575 8.57212926,17.7843575 L7.23979079,17.7843575 C7.4162266,17.7843575 7.5602682,17.9285286 7.5602682,18.1048349 L7.5602682,16.8944046 C7.5602682,17.0712341 7.41570375,17.2156685 7.23979079,17.2156685 L8.57212926,17.2156685 C9.01205773,17.2156685 9.39116202,16.9059187 9.47885792,16.4748196 C9.61229775,15.8188505 9.8688884,15.2039758 10.2338331,14.6585714 C10.4794492,14.2915016 10.4314011,13.8020172 10.1190972,13.4897133 L9.27753746,12.6481535 C9.40747203,12.7780881 9.40747203,12.986363 9.27864735,13.1156259 L10.1167377,12.2775375 C9.98629826,12.407103 9.77815791,12.407103 9.64926533,12.2786474 L10.4897133,13.1190972 C10.8021572,13.4315411 11.2919144,13.4794753 11.6590088,13.2335402 C12.2057214,12.8672697 12.8212995,12.6095427 13.4733337,12.4774269 C13.9047632,12.3900102 14.214882,12.0107529 14.214882,11.5705562 L14.214882,10.2397908 C14.214882,10.4162266 14.0707109,10.5602682 13.8944046,10.5602682 L15.1048349,10.5602682 C14.9285286,10.5602682 14.7843575,10.4162266 14.7843575,10.2397908 L14.7843575,11.5705562 C14.7843575,12.0107529 15.0944763,12.3900102 15.5259058,12.4774269 C16.1761374,12.6091775 16.7915298,12.8670658 17.341322,13.2342702 C17.7083545,13.47941 18.1974314,13.431192 18.5095262,13.1190972 L19.3510859,12.2775375 C19.2213354,12.407288 19.0131275,12.407288 18.8847235,12.2797516 L19.721702,13.1167377 C19.5921365,12.9862983 19.5921365,12.7781579 19.7205921,12.6492653 L18.8801423,13.4897133 C18.5683969,13.8014587 18.5198957,14.289855 18.7642401,14.656824 C19.1278691,15.202941 19.38741,15.8244463 19.5205643,16.4757156 C19.6086174,16.9063913 19.9875253,17.2156685 20.4271102,17.2156685 L21.7594487,17.2156685 C21.5840576,17.2156685 21.4397578,17.0717573 21.4397578,16.8944046 L21.4397578,18.1048349 C21.4397578,17.9280059 21.5835353,17.7843575 21.7594487,17.7843575 L20.4271102,17.7843575 C19.9869136,17.7843575 19.6076562,18.0944763 19.5202396,18.5259058 C19.3877638,19.1797165 19.1308548,19.7953542 18.7660481,20.3408846 C18.5207705,20.7076718 18.5686046,21.1966182 18.8803176,21.5089144 L19.7210908,22.3512607 C19.5915815,22.2221964 19.5915815,22.0122765 19.7205921,21.8828271 L18.8821954,22.7220085 C19.0131275,22.5919515 19.2213354,22.5919515 19.3510859,22.721702 L18.5087397,21.8793558 C18.1965037,21.5671198 17.7071518,21.5190165 17.3400941,21.7644778 C16.7986912,22.1265284 16.1780928,22.3853232 15.5243103,22.5189913 C15.0936347,22.6070444 14.7843575,22.9859523 14.7843575,23.4255372 L14.7843575,24.7594487 C14.7843575,24.5835353 14.9280059,24.4397578 15.1048349,24.4397578 L13.8944046,24.4397578 C14.0712336,24.4397578 14.214882,24.5835353 14.214882,24.7594487 L14.214882,23.4255372 C14.214882,22.9853406 13.9047632,22.6060832 13.4733337,22.5186666 C12.8199522,22.3862778 12.2050514,22.1295356 11.6591413,21.7644751 C11.2920839,21.5190167 10.8027344,21.5671211 10.4904998,21.8793558 L9.64815355,22.721702 Z M11.2555947,22.3673684 L10.7582277,23.1111291 C11.4794194,23.5934039 12.291119,23.9323163 13.1518683,24.1067221 L13.32955,23.2298053 L12.4348132,23.2298053 L12.4348132,24.5196579 C12.4348132,25.3374943 13.0967241,26 13.9143947,26 L15.0848447,26 C15.9025153,26 16.5644263,25.3374943 16.5644263,24.5196579 L16.5644263,23.2298053 L15.6696895,23.2298053 L15.8489139,24.1064081 C16.7081402,23.9307364 17.5243903,23.5903531 18.2410157,23.1111265 L17.7436447,22.3673684 L17.1109702,23.0000429 L17.9254939,23.8145666 C18.4981483,24.387221 19.4265423,24.387221 20.0009367,23.8167076 L20.8148629,23.0020281 C21.3875787,22.4273652 21.3875787,21.4973157 20.8134879,20.9251776 L20.002155,20.1123223 L19.3688895,20.7444053 L20.1126502,21.2417723 C20.5947447,20.5208501 20.9337769,19.7084186 21.1082432,18.8473712 L20.2313263,18.6696895 L20.2313263,19.5644263 L21.5196579,19.5644263 C22.3374943,19.5644263 23,18.9025153 23,18.0848447 L23,16.9143947 C23,16.0965086 22.3372804,15.4355737 21.5196579,15.4355737 L20.2313263,15.4355737 L20.2313263,16.3303105 L21.1079292,16.1510861 C20.9328115,15.29457 20.5920754,14.4786317 20.1128774,13.7589474 L19.3681289,14.2548342 L20.0008034,14.8875087 L20.8145666,14.0737455 C21.3870421,13.4993247 21.3870421,12.5725171 20.8167076,11.9983027 L20.003085,11.1846729 C19.4265423,10.6120185 18.4981483,10.6120185 17.9254939,11.1846729 L17.1117308,11.998436 L17.7444053,12.6311105 L18.2413494,11.8870671 C17.5174028,11.4035456 16.7056993,11.0633905 15.8473712,10.8894752 L15.6696895,11.7663921 L16.5644263,11.7663921 L16.5644263,10.4795816 C16.5644263,9.66153046 15.902301,9 15.0848447,9 L13.9143947,9 C13.0969385,9 12.4348132,9.66153046 12.4348132,10.4795816 L12.4348132,11.7663921 L13.32955,11.7663921 L13.1518683,10.8894752 C12.2915911,11.0637854 11.4788456,11.4040614 10.7568347,11.8877731 L11.2548342,12.6311105 L11.8875087,11.998436 L11.0737455,11.1846729 C10.4993247,10.6121974 9.57251706,10.6121974 8.99830274,11.1825319 L8.18467288,11.9961545 C7.61184054,12.5709334 7.61184054,13.5009132 8.18467288,14.0737455 L8.99843604,14.8875087 L9.63111053,14.2548342 L8.88748985,13.7572578 C8.40519421,14.4780415 8.06658568,15.2894578 7.89113357,16.1519525 L8.76791316,16.3303105 L8.76791316,15.4355737 L7.47958158,15.4355737 C6.66174537,15.4355737 6,16.096724 6,16.9143947 L6,18.0848447 C6,18.902301 6.66153046,19.5644263 7.47958158,19.5644263 L8.76791316,19.5644263 L8.76791316,18.6696895 L7.89152077,18.8499404 C8.06812089,19.7085824 8.40860184,20.524978 8.8870687,21.2413517 L9.63111053,20.7444053 L8.9981406,20.1120263 L8.18437744,20.92655 C7.61183872,21.4971384 7.61183872,22.4263613 8.18253187,23.0009367 L8.99615446,23.8145666 C9.57093338,24.3873989 10.5009132,24.3873989 11.0737455,23.8145666 L11.8882692,23.0000429 L11.2555947,22.3673684 Z" id="Stroke-336"></path>
            <path d="M28,13.519 C28,10.7036996 25.9863782,8.30777537 23.2491629,7.80122017 L23.0671905,8.78452381 L24.0551854,8.93901029 C24.1170051,8.5436517 24.1482857,8.14411276 24.1482857,7.74080952 C24.1482857,3.46557239 20.6827133,0 16.4074762,0 C12.9619962,0 9.96005217,2.27078559 8.98946649,5.52344186 L9.94771429,5.80938095 L10.625965,5.07455039 C9.78069305,4.29436193 8.6734456,3.85233333 7.5,3.85233333 C4.95314382,3.85233333 2.88909524,5.91638192 2.88909524,8.4632381 C2.88909524,8.72884077 2.91199015,8.99232962 2.95685572,9.25271014 L3.94233333,9.08290476 L3.55303777,8.16179187 C1.41780244,9.06421941 0,11.161148 0,13.519 C0,16.157385 1.5347507,18.2413207 3.17784119,18.7502448 C3.70539941,18.9136484 4.26553471,18.6184429 4.4289384,18.0908846 C4.59234209,17.5633264 4.29713651,17.0031911 3.76957828,16.8397874 C3.518616,16.7620554 3.09077426,16.4364169 2.74703854,15.9696811 C2.27606864,15.3301824 2,14.5098713 2,13.519 C2,11.9720961 2.93021797,10.5963045 4.3316289,10.0040177 C4.75971174,9.82309439 5.00672719,9.37109543 4.92781095,8.91309939 C4.90212153,8.76400897 4.88909524,8.61409437 4.88909524,8.4632381 C4.88909524,7.02095142 6.05771332,5.85233333 7.5,5.85233333 C8.1655037,5.85233333 8.78995359,6.10162243 9.26946356,6.54421151 C9.81307607,7.04596743 10.6944302,6.80421203 10.9059621,6.09532005 C11.6253488,3.68448945 13.8522182,2 16.4074762,2 C19.5781438,2 22.1482857,4.57014189 22.1482857,7.74080952 C22.1482857,8.04026603 22.1250919,8.33651433 22.0791956,8.63003733 C21.9955525,9.1649639 22.3528315,9.6693028 22.8852181,9.76782745 C24.6784455,10.0996861 26,11.6721485 26,13.519 C26,15.5531483 25.645707,16.6768644 24.85995,17.4053466 C24.454944,17.7808311 24.4310122,18.4135437 24.8064967,18.8185496 C25.1819812,19.2235556 25.8146938,19.2474874 26.2196997,18.8720029 C27.4814713,17.7022035 28,16.0575786 28,13.519 Z" id="Stroke-337"></path>
        </g>
    </g>
</svg>