<?xml version="1.0" encoding="UTF-8"?>
<svg width="44px" height="44px" viewBox="0 0 44 44" version="1.1" xmlns="http://www.w3.org/2000/svg" xmlns:xlink="http://www.w3.org/1999/xlink">
    <!-- Generator: sketchtool 40.1 (33804) - http://www.bohemiancoding.com/sketch -->
    <title>deployment</title>
    <desc>Created with sketchtool.</desc>
    <defs></defs>
    <g id="22pt-icons" stroke="none" stroke-width="1" fill="none" fill-rule="evenodd">
        <g id="deployment" fill="#636464">
            <path d="M23,34 C21.3432847,34 20,32.6567153 20,31 C20,29.3432847 21.3432847,28 23,28 C24.6567153,28 26,29.3432847 26,31 C26,32.6567153 24.6567153,34 23,34 Z M23,26 C20.2387153,26 18,28.2387153 18,31 C18,33.7612847 20.2387153,36 23,36 C25.7612847,36 28,33.7612847 28,31 C28,28.2387153 25.7612847,26 23,26 Z" id="Stroke-335"></path>
            <path d="M16.9562932,37.7642932 C17.0526176,37.6679688 17.2058568,37.6679688 17.3013052,37.7630937 L16.2355068,36.6972932 C16.3318332,36.7942668 16.3318332,36.9485101 16.2343011,37.0457104 L17.305837,35.9731764 C17.6428468,35.6358517 17.6948108,35.1075069 17.4299762,34.7109893 C16.9571771,34.0031016 16.6186201,33.1913191 16.4428974,32.3369431 C16.3472792,31.872041 15.9380333,31.5384 15.4634,31.5384 L13.7694,31.5384 C13.8962315,31.5384 14.0004,31.6426621 14.0004,31.7694 L14.0004,30.2304 C14.0004,30.357732 13.8956378,30.4624 13.7694,30.4624 L15.4634,30.4624 C15.9388445,30.4624 16.3485544,30.1276437 16.4433301,29.6617413 C16.6175698,28.8052069 16.9527357,28.0020403 17.4295055,27.2895148 C17.6949506,26.892811 17.6430234,26.3638099 17.3055068,26.0262932 L16.2355068,24.9562932 C16.3318312,25.0526176 16.3318312,25.2058568 16.2367063,25.3013052 L17.3025068,24.2355068 C17.2059368,24.3314323 17.052543,24.3314323 16.9574948,24.2367063 L18.0262932,25.3055068 C18.3639612,25.6431748 18.8932572,25.6949788 19.2899876,25.4291889 C20.0041726,24.9507201 20.8082975,24.6140534 21.6599855,24.4414836 C22.1262448,24.3470096 22.4614,23.9371343 22.4614,23.4614 L22.4614,21.7694 C22.4614,21.8962315 22.3571379,22.0004 22.2304,22.0004 L23.7694,22.0004 C23.6426621,22.0004 23.5384,21.8962315 23.5384,21.7694 L23.5384,23.4614 C23.5384,23.9371343 23.8735552,24.3470096 24.3398145,24.4414836 C25.1891903,24.6135849 25.992994,24.9504295 26.7109919,25.4299779 C27.1076554,25.6949081 27.6362161,25.6427974 27.9735068,25.3055068 L29.0435068,24.2355068 C28.9473813,24.3316323 28.7940645,24.3316323 28.6996942,24.2378997 L29.7642932,25.3025068 C29.6683677,25.2059368 29.6683677,25.052543 29.7630937,24.9574948 L28.6942932,26.0262932 C28.3573802,26.3632063 28.3049634,26.8910315 28.569034,27.2876264 C29.0439511,28.0008815 29.3827966,28.8122923 29.5566674,29.6627097 C29.6518291,30.1281544 30.0613268,30.4624 30.5364,30.4624 L32.2304,30.4624 C32.1047549,30.4624 32.0004,30.3583261 32.0004,30.2304 L32.0004,31.7694 C32.0004,31.6420685 32.1041617,31.5384 32.2304,31.5384 L30.5364,31.5384 C30.0606657,31.5384 29.6507904,31.8735552 29.5563164,32.3398145 C29.3833078,33.1936678 29.0477257,33.9978318 28.571138,34.7105191 C28.3060588,35.1069175 28.3577546,35.6353373 28.6946327,35.9728456 L29.7636327,37.0438456 C29.6677679,36.9483118 29.6677679,36.7931448 29.7630937,36.6974948 L28.6969621,37.7646245 C28.7940645,37.6681677 28.9473813,37.6681677 29.0435068,37.7642932 L27.9725068,36.6932932 C27.6350636,36.35585 27.1062055,36.3038632 26.7095148,36.5691409 C26.0021056,37.0422045 25.1917307,37.3801377 24.3380903,37.5546674 C23.8726456,37.6498291 23.5384,38.0593268 23.5384,38.5344 L23.5384,40.2304 C23.5384,40.1041617 23.6420685,40.0004 23.7694,40.0004 L22.2304,40.0004 C22.3577315,40.0004 22.4614,40.1041617 22.4614,40.2304 L22.4614,38.5344 C22.4614,38.0586657 22.1262448,37.6487904 21.6599855,37.5543164 C20.8066664,37.3814161 20.0034413,37.0460421 19.2902809,36.569138 C18.8935903,36.3038635 18.364735,36.3558514 18.0272932,36.6932932 L16.9562932,37.7642932 Z M18.7344,37.4004 L18.1785191,38.231662 C19.1077352,38.8530466 20.1536115,39.2897358 21.2628145,39.5144836 L20.4614,38.5344 L20.4614,40.2304 C20.4614,41.2083293 21.2527597,42.0004 22.2304,42.0004 L23.7694,42.0004 C24.7470403,42.0004 25.5384,41.2083293 25.5384,40.2304 L25.5384,38.5344 L24.7387097,39.5141326 C25.8460985,39.2877232 26.8980529,38.8490493 27.8212852,38.2316591 L27.2654,37.4004 L26.5582932,38.1075068 L27.6292932,39.1785068 C28.3134187,39.8626323 29.4227355,39.8626323 30.1091058,39.1808997 L31.1788379,38.1101755 C31.8630321,37.4236552 31.8630321,36.3124882 31.1773011,35.6290896 L30.1101673,34.5599544 L29.4024,35.2664 L30.233662,35.8222809 C30.8548032,34.8934288 31.291654,33.8465921 31.5164836,32.7369855 L30.5364,33.5384 L32.2304,33.5384 C33.2083293,33.5384 34.0004,32.7470403 34.0004,31.7694 L34.0004,30.2304 C34.0004,29.2525475 33.2081189,28.4624 32.2304,28.4624 L30.5364,28.4624 L31.5161326,29.2620903 C31.2904461,28.1582373 30.8512718,27.1065759 30.233766,26.1791736 L29.4014,26.7334 L30.1085068,27.4405068 L31.1785068,26.3705068 C31.8624323,25.684257 31.8624323,24.5768632 31.1808997,23.8906942 L30.1115068,22.8212932 C29.4227355,22.1371677 28.3134187,22.1371677 27.6292932,22.8212932 L26.5592932,23.8912932 L27.2664,24.5984 L27.8218081,23.7668221 C26.8888712,23.1437166 25.8429434,22.7054067 24.7369855,22.4813164 L25.5384,23.4614 L25.5384,21.7694 C25.5384,20.7912594 24.7468294,20.0004 23.7694,20.0004 L22.2304,20.0004 C21.2529706,20.0004 20.4614,20.7912594 20.4614,21.7694 L20.4614,23.4614 L21.2628145,22.4813164 C20.1543141,22.7059219 19.1071012,23.1443634 18.1768124,23.7676111 L18.7334,24.5984 L19.4405068,23.8912932 L18.3705068,22.8212932 C17.684257,22.1373677 16.5768632,22.1373677 15.8906942,22.8189003 L14.8212932,23.8882932 C14.1369688,24.5749432 14.1369688,25.6861824 14.8212932,26.3705068 L15.8912932,27.4405068 L16.5984,26.7334 L15.7672945,26.1772852 C15.1458956,27.1059568 14.7095904,28.1514859 14.4834699,29.2630587 L15.4634,28.4624 L13.7694,28.4624 C12.7914709,28.4624 12.0004,29.2527595 12.0004,30.2304 L12.0004,31.7694 C12.0004,32.7468294 12.7912594,33.5384 13.7694,33.5384 L15.4634,33.5384 L14.4839026,32.7398569 C14.7115305,33.8465995 15.150373,34.8988437 15.7668238,35.8218107 L16.5984,35.2664 L15.890963,34.5596236 L14.820963,35.6306236 C14.1369668,36.3122899 14.1369668,37.4225332 14.8189003,38.1091058 L15.8882932,39.1785068 C16.5749432,39.8628312 17.6861824,39.8628312 18.3705068,39.1785068 L19.4415068,38.1075068 L18.7344,37.4004 Z" id="Stroke-336"></path>
            <path d="M44,23.2227 C44,18.9728913 40.9601701,15.3559251 36.8289724,14.5913964 L36.647,15.5747 L37.6349949,15.7291865 C37.729958,15.1218643 37.778,14.508237 37.778,13.8887 C37.778,7.32241525 32.4552847,1.9997 25.889,1.9997 C20.5971391,1.9997 15.9863294,5.4874933 14.4957522,10.4827609 L16.1322507,10.0338694 C14.8793536,8.87744174 13.2392762,8.2227 11.5,8.2227 C7.72571525,8.2227 4.667,11.2814153 4.667,15.0557 C4.667,15.4494439 4.70094759,15.8401338 4.76752238,16.2265054 L5.753,16.0567 L5.36370444,15.1355871 C2.14027026,16.4979268 -2.27373675e-13,19.6633846 -2.27373675e-13,23.2227 C-2.27373675e-13,28.0698338 3.93056427,31.9997 8.778,31.9997 L9.001,31.9997 C9.55328475,31.9997 10.001,31.5519847 10.001,30.9997 C10.001,30.4474153 9.55328475,29.9997 9.001,29.9997 L8.778,29.9997 C5.03505426,29.9997 2,26.9651848 2,23.2227 C2,20.4743327 3.65268579,18.0300119 6.14229556,16.9778129 C6.57037841,16.7968896 6.81739386,16.3448907 6.73847762,15.8868946 C6.69107896,15.6118132 6.667,15.3346975 6.667,15.0557 C6.667,12.3859847 8.83028475,10.2227 11.5,10.2227 C12.7313342,10.2227 13.8886141,10.6847022 14.7757493,11.5035306 C15.3193618,12.0052865 16.2007159,11.7635311 16.4122478,11.0546391 C17.651626,6.90119716 21.4873611,3.9997 25.889,3.9997 C31.3507153,3.9997 35.778,8.42698475 35.778,13.8887 C35.778,14.4043903 35.7380448,14.914727 35.6590051,15.4202135 C35.575362,15.9551401 35.932641,16.459479 36.4650276,16.5580036 C39.6522374,17.1478358 42,19.9413402 42,23.2227 C42,26.3877387 39.8126482,29.1111961 36.7732869,29.8219717 C36.2355117,29.9477342 35.9015093,30.4856378 36.0272717,31.0234131 C36.1530342,31.5611883 36.6909378,31.8951907 37.2287131,31.7694283 C41.167884,30.848226 44,27.3219769 44,23.2227 Z" id="Stroke-337"></path>
        </g>
    </g>
</svg>