<?xml version="1.0" encoding="UTF-8"?>
<svg width="44px" height="44px" viewBox="0 0 44 44" version="1.1" xmlns="http://www.w3.org/2000/svg" xmlns:xlink="http://www.w3.org/1999/xlink">
    <!-- Generator: sketchtool 40.1 (33804) - http://www.bohemiancoding.com/sketch -->
    <title>design</title>
    <desc>Created with sketchtool.</desc>
    <defs></defs>
    <g id="22pt-icons" stroke="none" stroke-width="1" fill="none" fill-rule="evenodd">
        <g id="design" fill="#636464">
            <path d="M43.6968928,3.80228253 C43.9911109,3.51044279 44.0805858,3.07009158 43.9235981,2.68655143 C43.7666105,2.30301129 43.3940739,2.05180816 42.979691,2.05007053 L34.9880144,1.97834255 C34.7259949,1.97295704 34.4735618,2.07691137 34.2913042,2.26525446 L34.2913042,2.32673558 L27.2524813,9.32533672 L17.6419779,0.246624263 C17.5604219,0.170490434 17.4669803,0.108189236 17.3653429,0.0621808945 L17.3653429,0.0621808945 C17.2407655,0.0166787575 17.1085397,-0.00420126415 16.9760048,0.000699771757 L0.97216007,0.000699771757 C0.576970265,0.0209528846 0.228769711,0.26699215 0.0776633701,0.632753077 C-0.0734429708,0.998514003 -0.000439043227,1.41860279 0.265204061,1.71192435 L15.9514309,17.4203512 L15.9514309,18.5884925 L8.30810938,26.2428923 L8.30810938,26.2428923 L8.30810938,26.2428923 L8.30810938,26.2428923 C8.2310394,26.3275536 8.16870154,26.4245342 8.12368608,26.5298042 L8.12368608,26.5810385 C8.0796539,26.6920999 8.05538155,26.810007 8.0519659,26.9294315 L8.0519659,26.9294315 L8.0519659,43.0374857 C8.07588371,43.4308798 8.32328222,43.7756901 8.68826294,43.9243212 C9.05324367,44.0729522 9.47111364,43.9990592 9.76300436,43.7342717 L17.754681,35.7417258 L17.754681,35.7417258 L17.754681,35.7417258 L35.7666906,18.7319485 L35.7666906,18.7319485 C35.94179,18.5564903 36.0473533,18.3234976 36.063817,18.0761499 C36.063817,18.0761499 36.063817,18.0761499 36.063817,18.0146687 L36.063817,18.0146687 L36.063817,11.405448 L43.6968928,3.80228253 Z M35.9920969,8.5978101 L35.9920969,3.98672589 L40.6026795,4.05845387 L35.9920969,8.5978101 Z M33.942949,5.40079172 L33.942949,15.6476455 L28.6561476,10.6574277 L33.942949,5.40079172 Z M17.9595958,19.0188604 L17.9595958,3.30018669 L31.2790568,15.8423357 L33.5638567,18.0044219 L17.9595958,32.7189039 L17.9595958,19.0188604 Z M3.33892584,1.97834255 L15.9514309,1.97834255 L15.9514309,14.5922196 L3.33892584,1.97834255 Z M15.9514309,32.6164354 L10.3572572,27.0216532 L15.9514309,21.426871 L15.9514309,32.6164354 Z M9.93718192,29.4501576 L15.5313556,35.0449397 L9.93718192,40.6397219 L9.93718192,29.4501576 Z" id="Shape"></path>
        </g>
    </g>
</svg>