<?xml version="1.0" encoding="UTF-8"?>
<svg width="44px" height="44px" viewBox="0 0 44 44" version="1.1" xmlns="http://www.w3.org/2000/svg" xmlns:xlink="http://www.w3.org/1999/xlink">
    <!-- Generator: sketchtool 40.1 (33804) - http://www.bohemiancoding.com/sketch -->
    <title>develop</title>
    <desc>Created with sketchtool.</desc>
    <defs></defs>
    <g id="22pt-icons" stroke="none" stroke-width="1" fill="none" fill-rule="evenodd">
        <g id="develop" fill="#636464">
            <path d="M43,30 L42,30 L42,10 C42,7.794 40.206,6 38,6 L6,6 C3.794,6 2,7.794 2,10 L2,30 L1,30 C0.448,30 0,30.448 0,31 L0,34 C0,36.206 1.794,38 4,38 L40,38 C42.206,38 44,36.206 44,34 L44,31 C44,30.448 43.552,30 43,30 L43,30 L43,30 L43,30 Z M4,10 C4,8.897 4.897,8 6,8 L38,8 C39.103,8 40,8.897 40,10 L40,30 L4,30 L4,10 L4,10 L4,10 L4,10 Z M42,34 C42,35.103 41.103,36 40,36 L4,36 C2.897,36 2,35.103 2,34 L2,32 L42,32 L42,34 L42,34 L42,34 L42,34 Z" id="Shape"></path>
            <path d="M14.8071299,24.1918626 C14.9878349,24.3884441 15.2404238,24.5 15.5048261,24.5 C15.7692284,24.5 16.0218173,24.3884441 16.2025223,24.1918626 C16.3924589,24.0080876 16.5,23.7529607 16.5,23.4861363 C16.5,23.219312 16.3924589,22.9641851 16.2025223,22.7804101 L12.9434208,19.5292025 L12.9434208,19.4707975 L16.2025223,16.2195899 C16.3924589,16.0358149 16.5,15.780688 16.5,15.5138637 C16.5,15.2470393 16.3924589,14.9919124 16.2025223,14.8081374 C16.0218173,14.6115559 15.7692284,14.5 15.5048261,14.5 C15.2404238,14.5 14.9878349,14.6115559 14.8071299,14.8081374 L10.8025448,18.7991409 C10.6095312,18.9831862 10.5,19.2404443 10.5,19.5097342 C10.5,19.779024 10.6095312,20.0362821 10.8025448,20.2203274 L14.8071299,24.1918626 Z" id="Shape"></path>
            <path d="M27.7974777,22.7837514 C27.6075411,22.9671693 27.5,23.2218004 27.5,23.4881063 C27.5,23.7544122 27.6075411,24.0090434 27.7974777,24.1924613 C27.9781827,24.3886609 28.2307716,24.5 28.4951739,24.5 C28.7595762,24.5 29.0121651,24.3886609 29.1928701,24.1924613 L33.1974552,20.2092126 C33.3904688,20.0255248 33.5,19.7687666 33.5,19.5 C33.5,19.2312334 33.3904688,18.9744752 33.1974552,18.7907874 L29.1928701,14.8075387 C29.0121651,14.6113391 28.7595762,14.5 28.4951739,14.5 C28.2307716,14.5 27.9781827,14.6113391 27.7974777,14.8075387 C27.6075411,14.9909566 27.5,15.2455878 27.5,15.5118937 C27.5,15.7781996 27.6075411,16.0328307 27.7974777,16.2162486 L30.9992343,19.4125628 L30.9992343,19.5971524 L27.7974777,22.7837514 Z" id="Shape"></path>
            <path d="M20.1929608,26.4310326 C20.4420119,26.5324558 20.7213242,26.5216108 20.9621493,26.4011669 C21.2029744,26.2807231 21.3829458,26.0618664 21.4577664,25.7984653 L25.4423797,13.8283441 C25.5320213,13.5769517 25.5165489,13.2988777 25.3996016,13.0595232 C25.2826542,12.8201686 25.0745529,12.6406574 24.8242416,12.5632093 C24.5787023,12.4679415 24.3055975,12.4808133 24.0696547,12.5987738 C23.8337119,12.7167343 23.655934,12.9292832 23.5784556,13.1860449 L19.5558031,25.1658979 C19.4668052,25.4199077 19.4848632,25.7003295 19.6056643,25.9401911 C19.7264653,26.1800526 19.9391636,26.3578182 20.1929608,26.4310326 L20.1929608,26.4310326 Z" id="Shape"></path>
        </g>
    </g>
</svg>