<?xml version="1.0" encoding="UTF-8"?>
<svg width="44px" height="44px" viewBox="0 0 44 44" version="1.1" xmlns="http://www.w3.org/2000/svg" xmlns:xlink="http://www.w3.org/1999/xlink">
    <!-- Generator: sketchtool 40.1 (33804) - http://www.bohemiancoding.com/sketch -->
    <title>doc-json</title>
    <desc>Created with sketchtool.</desc>
    <defs></defs>
    <g id="22pt-icons" stroke="none" stroke-width="1" fill="none" fill-rule="evenodd">
        <g id="doc-json" fill="#636464">
            <path d="M17.143,21.1 C17.143,20.497 17.65,20 18.286,20 L19,20 C19.552,20 20,19.552 20,19 C20,18.448 19.552,18 19,18 L18.286,18 C16.555,18 15.143,19.383 15.143,21.1 L15.143,23.9 C15.143,24.503 14.636,25 14,25 C12.667,25 12.667,27 14,27 C14.636,27 15.143,27.497 15.143,28.1 L15.143,30.9 C15.143,32.617 16.554,34 18.286,34 L19,34 C19.552,34 20,33.552 20,33 C20,32.448 19.552,32 19,32 L18.286,32 C17.65,32 17.143,31.503 17.143,30.9 L17.143,28.1 C17.143,27.286 16.818,26.552 16.299,26 C16.818,25.448 17.143,24.714 17.143,23.9 L17.143,21.1 L17.143,21.1 Z" id="Shape"></path>
            <path d="M30,25 C29.364,25 28.857,24.503 28.857,23.9 L28.857,21.1 C28.857,19.383 27.446,18 25.714,18 L25,18 C24.448,18 24,18.448 24,19 C24,19.552 24.448,20 25,20 L25.714,20 C26.35,20 26.857,20.497 26.857,21.1 L26.857,23.9 C26.857,24.714 27.182,25.448 27.701,26 C27.182,26.552 26.857,27.286 26.857,28.1 L26.857,30.9 C26.857,31.503 26.35,32 25.714,32 L25,32 C24.448,32 24,32.448 24,33 C24,33.552 24.448,34 25,34 L25.714,34 C27.445,34 28.857,32.617 28.857,30.9 L28.857,28.1 C28.857,27.497 29.364,27 30,27 C31.333,27 31.333,25 30,25 L30,25 Z" id="Shape"></path>
            <path d="M29.707,0.293 C29.52,0.105 29.266,0 29,0 L8,0 C6.346,0 5,1.346 5,3 L5,41 C5,42.654 6.346,44 8,44 L36,44 C37.654,44 39,42.654 39,41 L39,10 C39,9.734 38.895,9.48 38.707,9.293 L29.707,0.293 L29.707,0.293 L29.707,0.293 L29.707,0.293 Z M36.586,10 L30,10 C29.448,10 29,9.552 29,9 L29,2.414 L36.586,10 L36.586,10 L36.586,10 L36.586,10 Z M36,42 L8,42 C7.448,42 7,41.552 7,41 L7,3 C7,2.448 7.448,2 8,2 L27,2 L27,9 C27,10.654 28.346,12 30,12 L37,12 L37,41 C37,41.552 36.552,42 36,42 L36,42 L36,42 L36,42 Z" id="Shape"></path>
        </g>
    </g>
</svg>