<?xml version="1.0" encoding="UTF-8"?>
<svg width="44px" height="44px" viewBox="0 0 44 44" version="1.1" xmlns="http://www.w3.org/2000/svg" xmlns:xlink="http://www.w3.org/1999/xlink">
    <!-- Generator: sketchtool 40.1 (33804) - http://www.bohemiancoding.com/sketch -->
    <title>doc-spec</title>
    <desc>Created with sketchtool.</desc>
    <defs></defs>
    <g id="22pt-icons" stroke="none" stroke-width="1" fill="none" fill-rule="evenodd">
        <g id="doc-spec" fill="#636464">
            <path d="M29.707,0.293 C29.52,0.105 29.266,0 29,0 L8,0 C6.346,0 5,1.346 5,3 L5,41 C5,42.654 6.346,44 8,44 L36,44 C37.654,44 39,42.654 39,41 L39,10 C39,9.734 38.895,9.48 38.707,9.293 L29.707,0.293 L29.707,0.293 L29.707,0.293 L29.707,0.293 Z M36.586,10 L30,10 C29.448,10 29,9.552 29,9 L29,2.414 L36.586,10 L36.586,10 L36.586,10 L36.586,10 Z M36,42 L8,42 C7.448,42 7,41.552 7,41 L7,3 C7,2.448 7.448,2 8,2 L27,2 L27,9 C27,10.654 28.346,12 30,12 L37,12 L37,41 C37,41.552 36.552,42 36,42 L36,42 L36,42 L36,42 Z" id="Shape"></path>
            <path d="M16.7067744,20.2932427 C16.315807,19.9022524 15.6838597,19.9022524 15.2928923,20.2932427 L11.2932256,24.2931427 C10.9022581,24.6841329 10.9022581,25.3161171 11.2932256,25.7071073 L15.2928923,29.7070073 C15.487876,29.9020024 15.7438547,30 15.9998333,30 C16.255812,30 16.5117907,29.9020024 16.7067744,29.7070073 C17.0977419,29.3160171 17.0977419,28.6840329 16.7067744,28.2930427 L13.4140488,25.000125 L16.7067744,21.7072073 C17.0977419,21.3162171 17.0977419,20.6842329 16.7067744,20.2932427 L16.7067744,20.2932427 L16.7067744,20.2932427 L16.7067744,20.2932427 Z" id="Shape"></path>
            <path d="M28.7071077,20.2932427 C28.3161403,19.9022524 27.684193,19.9022524 27.2932256,20.2932427 C26.9022581,20.6842329 26.9022581,21.3162171 27.2932256,21.7072073 L30.5859512,25.000125 L27.2932256,28.2930427 C26.9022581,28.6840329 26.9022581,29.3160171 27.2932256,29.7070073 C27.4882093,29.9020024 27.744188,30 28.0001667,30 C28.2561453,30 28.512124,29.9020024 28.7071077,29.7070073 L32.7067744,25.7071073 C33.0977419,25.3161171 33.0977419,24.6841329 32.7067744,24.2931427 L28.7071077,20.2932427 L28.7071077,20.2932427 L28.7071077,20.2932427 L28.7071077,20.2932427 Z" id="Shape"></path>
            <path d="M24.3167386,18.0521568 C23.7877424,17.8761714 23.2257464,18.1601479 23.0517476,18.6841044 L19.051776,30.6831092 C18.8767773,31.2070658 19.1597753,31.7740187 19.6837716,31.9480043 C19.7887708,31.9830014 19.89577,32 19.9997693,32 C20.4187663,32 20.8087635,31.735022 20.9477626,31.3160567 L24.9477341,19.3170519 C25.1237329,18.7920955 24.8407349,18.2261424 24.3167386,18.0521568 L24.3167386,18.0521568 L24.3167386,18.0521568 L24.3167386,18.0521568 Z" id="Shape"></path>
        </g>
    </g>
</svg>