<?xml version="1.0" encoding="UTF-8"?>
<svg width="28px" height="28px" viewBox="0 0 28 28" version="1.1" xmlns="http://www.w3.org/2000/svg" xmlns:xlink="http://www.w3.org/1999/xlink">
    <!-- Generator: sketchtool 40.1 (33804) - http://www.bohemiancoding.com/sketch -->
    <title>duplicate-sm</title>
    <desc>Created with sketchtool.</desc>
    <defs></defs>
    <g id="14pt-icons" stroke="none" stroke-width="1" fill="none" fill-rule="evenodd">
        <g id="duplicate-sm" fill="#636464">
            <path d="M7,13.8999996 L10.818,13.8999996 C11.37,13.8999996 11.818,13.4519996 11.818,12.8999996 C11.818,12.3479996 11.37,11.8999996 10.818,11.8999996 L7,11.8999996 C6.448,11.8999996 6,12.3479996 6,12.8999996 C6,13.4519996 6.448,13.8999996 7,13.8999996 L7,13.8999996 Z" id="Shape"></path>
            <path d="M10.818,21.5 L7,21.5 C6.448,21.5 6,21.948 6,22.5 C6,23.052 6.448,23.5 7,23.5 L10.818,23.5 C11.37,23.5 11.818,23.052 11.818,22.5 C11.818,21.948 11.37,21.5 10.818,21.5 L10.818,21.5 Z" id="Shape"></path>
            <path d="M14.636,15.1000004 L7,15.1000004 C6.448,15.1000004 6,15.5480004 6,16.1000004 C6,16.6520004 6.448,17.1000004 7,17.1000004 L14.636,17.1000004 C15.188,17.1000004 15.636,16.6520004 15.636,16.1000004 C15.636,15.5480004 15.189,15.1000004 14.636,15.1000004 L14.636,15.1000004 Z" id="Shape"></path>
            <path d="M14.636,18.2999992 L7,18.2999992 C6.448,18.2999992 6,18.7479992 6,19.2999992 C6,19.8519992 6.448,20.2999992 7,20.2999992 L14.636,20.2999992 C15.188,20.2999992 15.636,19.8519992 15.636,19.2999992 C15.636,18.7479992 15.189,18.2999992 14.636,18.2999992 L14.636,18.2999992 Z" id="Shape"></path>
            <path d="M25.526,5.383 L21.071,0.928 C20.883,0.74 20.629,0.636 20.363,0.636 L10.818,0.636 C9.563,0.636 8.545,1.653 8.545,2.909 L8.545,5 L4.455,5 C3.2,5 2.182,6.017 2.182,7.273 L2.182,25.091 C2.182,26.346 3.199,27.364 4.455,27.364 L17.182,27.364 C18.437,27.364 19.455,26.347 19.455,25.091 L19.455,10.455 C19.455,10.19 19.35,9.937 19.164,9.749 L14.707,5.292 C14.518,5.105 14.265,5 14,5 L10.545,5 L10.545,2.909 C10.545,2.758 10.667,2.636 10.818,2.636 L18.727,2.636 L18.727,5.454 C18.727,6.709 19.744,7.727 21,7.727 L23.818,7.727 L23.818,20.727 C23.818,20.878 23.696,21 23.545,21 L21,21 C20.448,21 20,21.448 20,22 C20,22.552 20.448,23 21,23 L23.545,23 C24.8,23 25.818,21.983 25.818,20.727 L25.818,6.091 C25.818,5.825 25.713,5.571 25.526,5.383 L25.526,5.383 Z M24.818,6.091 L24.818,6.091 L24.6,5.874 L20.58,1.854 L20.396,1.67 C20.738,2.01 24.818,6.091 24.818,6.091 L24.818,6.091 Z M20.727,5.455 L20.727,3.414 L23.04,5.727 L21,5.727 C20.849,5.727 20.727,5.605 20.727,5.455 L20.727,5.455 Z M14.637,10.091 C14.486,10.091 14.364,9.969 14.364,9.818 L14.364,7.778 L16.677,10.091 L14.637,10.091 L14.637,10.091 Z M14.637,11.091 C13.934,11.091 13.364,10.521 13.364,9.818 C13.364,10.521 13.934,11.091 14.637,11.091 L14.637,11.091 Z M14.637,12.091 L17.455,12.091 L17.455,25.091 C17.455,25.242 17.333,25.364 17.182,25.364 L4.455,25.364 C4.304,25.364 4.182,25.242 4.182,25.091 L4.182,7.273 C4.182,7.122 4.304,7 4.455,7 L12.364,7 L12.364,9.818 C12.364,11.073 13.381,12.091 14.637,12.091 L14.637,12.091 Z M4.455,6 C3.752,6 3.182,6.57 3.182,7.273 C3.182,6.57 3.752,6 4.455,6 L4.455,6 Z M3.182,25.091 C3.182,25.794 3.752,26.364 4.455,26.364 C3.752,26.364 3.182,25.794 3.182,25.091 L3.182,25.091 Z M17.182,26.364 C17.885,26.364 18.455,25.794 18.455,25.091 C18.455,25.794 17.885,26.364 17.182,26.364 L17.182,26.364 Z M18.455,11.591 L18.455,11.091 L18.455,11.091 L18.455,12.741 L18.455,11.591 L18.455,11.591 Z M18.455,10.455 L18.455,10.455 L18.237,10.238 L14.217,6.218 L14.073,6.074 C14.633,6.633 18.455,10.455 18.455,10.455 L18.455,10.455 Z M9.545,2.909 C9.545,2.206 10.115,1.636 10.818,1.636 C10.115,1.636 9.545,2.206 9.545,2.909 L9.545,2.909 Z M23.545,22 C24.248,22 24.818,21.43 24.818,20.727 C24.818,21.43 24.248,22 23.545,22 L23.545,22 Z M24.818,7.227 L24.818,6.727 L24.818,6.727 L24.818,18.932 L24.818,7.227 L24.818,7.227 Z" id="Shape"></path>
        </g>
    </g>
</svg>