<?xml version="1.0" encoding="UTF-8"?>
<svg width="28px" height="28px" viewBox="0 0 28 28" version="1.1" xmlns="http://www.w3.org/2000/svg" xmlns:xlink="http://www.w3.org/1999/xlink">
    <!-- Generator: sketchtool 40.1 (33804) - http://www.bohemiancoding.com/sketch -->
    <title>duplicate-sm</title>
    <desc>Created with sketchtool.</desc>
    <defs></defs>
    <g id="14pt-icons" stroke="none" stroke-width="1" fill="none" fill-rule="evenodd">
        <g id="duplicate-sm" fill="#636464">
            <path d="M19,10.2096411 C19,10.0942977 18.937013,9.93756495 18.8562802,9.85652256 L14.1620303,5.1442709 C14.0826561,5.06459228 13.9317026,5 13.8090661,5 L4.00010618,5 C2.89005841,5 2,5.89581743 2,7.00086422 L2,25.9991358 C2,27.0983727 2.89547804,28 4.00010618,28 L17.0081299,28 C18.1082094,28 19,27.1049083 19,26.0048756 L19,25.9991358 L19,10.2096411 Z M17,12 L13.9930905,12 C12.892337,12 12,11.1067833 12,9.99670806 L12,7 L4.49374104,7 C4.22563934,7 4,7.22753073 4,7.5082041 L4,25.4917959 C4,25.7733849 4.22105539,26 4.49374104,26 L9.04017453,26 L11,26 L16.5089948,26 C16.7801695,26 17,25.7837334 17,25.5007488 L17,19.5 L17,12 Z M16.2,10 L14,10 L14,7.79999995 L16.2,10 Z" id="Combined-Shape"></path>
            <path d="M21.7590332,23 L24.0081299,23 C25.1082094,23 26,22.1049083 26,20.9991358 L26,5.2096411 C26,5.09429773 25.937013,4.93756495 25.8562802,4.85652256 L21.1620303,0.1442709 C21.0826561,0.0645922819 20.9317026,0 20.8090661,0 L11.0001062,0 C9.89005841,0 9,0.895817426 9,2.00086422 L9,5 L11,5 L11,2.5082041 C11,2.22753073 11.2256393,2 11.493741,2 L19,2 L19,4.99670806 C19,6.10678332 19.892337,7 20.9930905,7 L24,7 L24,14.5 L24,20.5007488 C24,20.7837334 23.7801695,21 23.5089948,21 L21.7590332,21 L21,21 C20.4477153,21 20,21.4477153 20,22 C20,22.5522847 20.4477153,23 21,23 L21.7590332,23 Z M23.2,5 L21,5 L21,2.79999995 L23.2,5 Z" id="Combined-Shape"></path>
            <path d="M14.0660025,18 L6.93399751,18 C6.41843088,18 6,18.448 6,19 C6,19.552 6.41843088,20 6.93399751,20 L14.0660025,20 C14.5815691,20 15,19.552 15,19 C15,18.448 14.5825031,18 14.0660025,18 L14.0660025,18 Z" id="Shape"></path>
            <path d="M14.0660025,14.5 L6.93399751,14.5 C6.41843088,14.5 6,14.948 6,15.5 C6,16.052 6.41843088,16.5 6.93399751,16.5 L14.0660025,16.5 C14.5815691,16.5 15,16.052 15,15.5 C15,14.948 14.5825031,14.5 14.0660025,14.5 L14.0660025,14.5 Z" id="Shape"></path>
            <path d="M10.9687178,21.5 L7.03128223,21.5 C6.46201444,21.5 6,21.948 6,22.5 C6,23.052 6.46201444,23.5 7.03128223,23.5 L10.9687178,23.5 C11.5379856,23.5 12,23.052 12,22.5 C12,21.948 11.5379856,21.5 10.9687178,21.5 L10.9687178,21.5 Z" id="Shape"></path>
            <path d="M10.0001925,13 C10.5523709,13 11,12.5561352 11,12 L11,12 C11,11.4477153 10.5562834,11 10.0001925,11 L6.99980749,11 C6.44762906,11 6,11.4438648 6,12 L6,12 C6,12.5522847 6.44371665,13 6.99980749,13 L10.0001925,13 Z" id="Shape"></path>
        </g>
    </g>
</svg>