<?xml version="1.0" encoding="UTF-8"?>
<svg width="28px" height="28px" viewBox="0 0 28 28" version="1.1" xmlns="http://www.w3.org/2000/svg" xmlns:xlink="http://www.w3.org/1999/xlink">
    <!-- Generator: sketchtool 40.1 (33804) - http://www.bohemiancoding.com/sketch -->
    <title>edit-sm</title>
    <desc>Created with sketchtool.</desc>
    <defs></defs>
    <g id="14pt-icons" stroke="none" stroke-width="1" fill="none" fill-rule="evenodd">
        <g id="edit-sm" fill="#636464">
            <path d="M4.47633089,18.7044315 L21.092674,2.08808845 C21.8740905,1.3066719 23.1344428,1.30009757 23.9259528,2.0916076 L26.0389023,4.20455713 C26.8222624,4.98791725 26.8261331,6.25412424 26.0424215,7.03783592 L9.42607836,23.654179 L2.72595482,26.4724827 C1.70794427,26.9006931 1.22725766,26.4286497 1.65802725,25.4045551 L4.47633089,18.7044315 L4.47633089,18.7044315 Z M21.0933403,4.91584932 L22.150688,3.85850155 C22.3477796,3.66141001 22.6601139,3.65419588 22.8578467,3.85192866 L24.2785812,5.27266319 C24.4720427,5.46612462 24.4775285,5.77430172 24.2720084,5.97982189 L23.2146606,7.03716966 L21.0933403,4.91584932 L21.0933403,4.91584932 Z M7.30475802,18.7044315 L19.6791267,6.33006288 L21.800447,8.45138322 L9.42607836,20.8257519 C9.42607836,20.8257519 8.77051809,20.6152073 8.55790679,20.402596 C8.28990578,20.134595 8.78294759,19.4875563 8.58313271,19.0015978 C8.38331783,18.5156393 7.30475802,18.7044315 7.30475802,18.7044315 L7.30475802,18.7044315 Z M5.92223922,20.1503399 C5.92223922,20.1503399 6.84913157,19.7174628 7.12564527,20.1907263 C7.40215897,20.6639899 6.83961106,21.4580287 7.11024763,21.7286653 C7.33489154,21.9533092 8.00162291,22.2297236 8.00162291,22.2297236 L4.31971752,23.8322453 L5.92223922,20.1503399 L5.92223922,20.1503399 Z" id="Combined-Shape"></path>
        </g>
    </g>
</svg>