<?xml version="1.0" encoding="UTF-8"?>
<svg width="28px" height="28px" viewBox="0 0 28 28" version="1.1" xmlns="http://www.w3.org/2000/svg" xmlns:xlink="http://www.w3.org/1999/xlink">
    <!-- Generator: sketchtool 40.1 (33804) - http://www.bohemiancoding.com/sketch -->
    <title>file-edit-sm</title>
    <desc>Created with sketchtool.</desc>
    <defs></defs>
    <g id="14pt-icons" stroke="none" stroke-width="1" fill="none" fill-rule="evenodd">
        <g id="doc-edit-sm" fill="#636464">
            <path d="M22.3710559,11.5031024 L13.0789165,20.7529282 C13.0087139,20.8222308 12.9511117,20.9032339 12.9079101,20.9914372 L11.0309916,25.7710097 C10.8608852,26.1175227 10.9292878,26.5333383 11.201998,26.8051485 C11.3748045,26.977955 11.6052131,27.0688584 11.8392219,27.0688584 C11.974227,27.0688584 12.1101321,27.0382572 12.2370368,26.9752549 L17.0066638,25.0910909 C17.0948671,25.0478893 17.1758702,24.9902871 17.2451728,24.9209845 L26.5454124,15.6639584 C27.2456387,14.9619321 27.2456387,13.8197892 26.5454124,13.119563 L24.9304567,11.5045573 C24.2233254,10.7983759 23.0757823,10.7983759 22.3710559,11.5031024 Z M15.4307047,23.8616448 L13.3614353,24.6967531 L14.1355562,22.5709964 L15.4307047,23.8616448 Z M15.2434977,21.1327425 L23.5699997,12.8000002 L25.1996086,14.4167531 L16.8680586,22.7510032 L15.2434977,21.1327425 Z" id="Shape"></path>
            <path d="M12.1620303,0.1442709 C12.0826561,0.0645922819 11.9317026,0 11.8090661,0 L2.00010618,0 C0.890058413,0 0,0.895817426 0,2.00086422 L0,20.9991358 C0,22.0983727 0.895478039,23 2.00010618,23 L10,23 C10.5522847,23 11,22.5522847 11,22 C11,21.4477153 10.5522847,21 10,21 L2.49374104,21 C2.22105539,21 2,20.7733849 2,20.4917959 L2,2.5082041 C2,2.22753073 2.22563934,2 2.49374104,2 L10,2 L10,4.99670806 C10,6.10678332 10.892337,7 11.9930905,7 L15,7 L15,15 C15,15.5522847 15.4477153,16 16,16 C16.5522847,16 17,15.5522847 17,15 L17,5.2096411 C17,5.09429773 16.937013,4.93756495 16.8562802,4.85652256 L12.1620303,0.1442709 Z M14.2,5 L12,5 L12,2.79999995 L14.2,5 Z" id="Combined-Shape"></path>
        </g>
    </g>
</svg>