<?xml version="1.0" encoding="UTF-8"?>
<svg width="44px" height="44px" viewBox="0 0 44 44" version="1.1" xmlns="http://www.w3.org/2000/svg" xmlns:xlink="http://www.w3.org/1999/xlink">
    <!-- Generator: sketchtool 40.1 (33804) - http://www.bohemiancoding.com/sketch -->
    <title>indent</title>
    <desc>Created with sketchtool.</desc>
    <defs></defs>
    <g id="22pt-icons" stroke="none" stroke-width="1" fill="none" fill-rule="evenodd">
        <g id="indent" fill="#636464">
            <path d="M43,40 C43.5522847,40 44,39.5522847 44,39 C44,38.4477153 43.5522847,38 43,38 L23,38 C22.4477153,38 22,38.4477153 22,39 C22,39.5522847 22.4477153,40 23,40 L43,40 Z" id="Stroke-363"></path>
            <path d="M43,24 C43.5522847,24 44,23.5522847 44,23 C44,22.4477153 43.5522847,22 43,22 L23,22 C22.4477153,22 22,22.4477153 22,23 C22,23.5522847 22.4477153,24 23,24 L43,24 Z" id="Stroke-364"></path>
            <path d="M43,8 C43.5522847,8 44,7.55228475 44,7 C44,6.44771525 43.5522847,6 43,6 L23,6 C22.4477153,6 22,6.44771525 22,7 C22,7.55228475 22.4477153,8 23,8 L43,8 Z" id="Stroke-365"></path>
            <path d="M35,16 C35.5522847,16 36,15.5522847 36,15 C36,14.4477153 35.5522847,14 35,14 L23,14 C22.4477153,14 22,14.4477153 22,15 C22,15.5522847 22.4477153,16 23,16 L35,16 Z" id="Stroke-366"></path>
            <path d="M35,32 C35.5522847,32 36,31.5522847 36,31 C36,30.4477153 35.5522847,30 35,30 L23,30 C22.4477153,30 22,30.4477153 22,31 C22,31.5522847 22.4477153,32 23,32 L35,32 Z" id="Stroke-367"></path>
            <path d="M16,43 C16,43.5522847 16.4477153,44 17,44 C17.5522847,44 18,43.5522847 18,43 L18,3 C18,2.44771525 17.5522847,2 17,2 C16.4477153,2 16,2.44771525 16,3 L16,43 Z" id="Stroke-368"></path>
            <path d="M1,22 C0.44771525,22 0,22.4477153 0,23 C0,23.5522847 0.44771525,24 1,24 L11,24 C11.5522847,24 12,23.5522847 12,23 C12,22.4477153 11.5522847,22 11,22 L1,22 Z" id="Stroke-369"></path>
            <path d="M10.2928932,23.7071068 L10.2928932,22.2928932 L4.29289322,28.2928932 C3.90236893,28.6834175 3.90236893,29.3165825 4.29289322,29.7071068 C4.68341751,30.0976311 5.31658249,30.0976311 5.70710678,29.7071068 L11.7071068,23.7071068 C12.0976311,23.3165825 12.0976311,22.6834175 11.7071068,22.2928932 L5.70710678,16.2928932 C5.31658249,15.9023689 4.68341751,15.9023689 4.29289322,16.2928932 C3.90236893,16.6834175 3.90236893,17.3165825 4.29289322,17.7071068 L10.2928932,23.7071068 Z" id="Stroke-370"></path>
        </g>
    </g>
</svg>