<?xml version="1.0" encoding="UTF-8"?>
<svg width="28px" height="28px" viewBox="0 0 28 28" version="1.1" xmlns="http://www.w3.org/2000/svg" xmlns:xlink="http://www.w3.org/1999/xlink">
    <!-- Generator: sketchtool 40.1 (33804) - http://www.bohemiancoding.com/sketch -->
    <title>info-sm</title>
    <desc>Created with sketchtool.</desc>
    <defs></defs>
    <g id="14pt-icons" stroke="none" stroke-width="1" fill="none" fill-rule="evenodd">
        <g id="info-sm" fill="#636464">
            <path d="M14,4 C8.47734681,4 4,8.47719218 4,14 C4,19.5228078 8.47734681,24 14,24 C19.5226532,24 24,19.5228078 24,14 C24,8.47719218 19.5226532,4 14,4 Z M14,26 C7.373,26 2,20.6276 2,14 C2,7.3724 7.373,2 14,2 C20.627,2 26,7.3724 26,14 C26,20.6276 20.627,26 14,26 Z" id="Path"></path>
            <path d="M15.5,8.60740436 C15.5,9.43540436 14.828,10.1074044 14,10.1074044 C13.172,10.1074044 12.5,9.43540436 12.5,8.60740436 C12.5,7.77865436 13.172,7.10740436 14,7.10740436 C14.828,7.10740436 15.5,7.77865436 15.5,8.60740436 L15.5,8.60740436 Z" id="Path"></path>
            <path d="M13,13.1087215 C13,12.5564367 13.4477153,12.1087215 14,12.1087215 C14.5522847,12.1087215 15,12.5564367 15,13.1087215 L15,20.1087215 C15,20.6610062 14.5522847,21.1087215 14,21.1087215 C13.4477153,21.1087215 13,20.6610062 13,20.1087215 L13,13.1087215 Z" id="Line"></path>
        </g>
    </g>
</svg>