<?xml version="1.0" encoding="UTF-8"?>
<svg width="28px" height="28px" viewBox="0 0 28 28" version="1.1" xmlns="http://www.w3.org/2000/svg" xmlns:xlink="http://www.w3.org/1999/xlink">
    <!-- Generator: sketchtool 40.1 (33804) - http://www.bohemiancoding.com/sketch -->
    <title>info-sm</title>
    <desc>Created with sketchtool.</desc>
    <defs></defs>
    <g id="14pt-icons" stroke="none" stroke-width="1" fill="none" fill-rule="evenodd">
        <g id="info-sm" fill="#636464">
            <path d="M14,4 C8.47734681,4 4,8.47719218 4,14 C4,19.5228078 8.47734681,24 14,24 C19.5226532,24 24,19.5228078 24,14 C24,8.47719218 19.5226532,4 14,4 Z M14,26 C7.373,26 2,20.6276 2,14 C2,7.3724 7.373,2 14,2 C20.627,2 26,7.3724 26,14 C26,20.6276 20.627,26 14,26 Z" id="Path"></path>
            <path d="M15.5,8.60740436 C15.5,9.43540436 14.828,10.1074044 14,10.1074044 C13.172,10.1074044 12.5,9.43540436 12.5,8.60740436 C12.5,7.77865436 13.172,7.10740436 14,7.10740436 C14.828,7.10740436 15.5,7.77865436 15.5,8.60740436 L15.5,8.60740436 Z" id="Path"></path>
            <path d="M14,12.5 C14.6903559,12.5 15.25,13.0498724 15.25,13.75 L15.25,20.25 C15.25,20.9403559 14.695169,21.5 14,21.5 C13.3096441,21.5 12.75,20.9501276 12.75,20.25 L12.75,13.75 C12.75,13.0596441 13.304831,12.5 14,12.5 Z" id="Rectangle"></path>
        </g>
    </g>
</svg>