<?xml version="1.0" encoding="UTF-8"?>
<svg width="44px" height="44px" viewBox="0 0 44 44" version="1.1" xmlns="http://www.w3.org/2000/svg" xmlns:xlink="http://www.w3.org/1999/xlink">
    <!-- Generator: sketchtool 40.1 (33804) - http://www.bohemiancoding.com/sketch -->
    <title>learn</title>
    <desc>Created with sketchtool.</desc>
    <defs></defs>
    <g id="22pt-icons" stroke="none" stroke-width="1" fill="none" fill-rule="evenodd">
        <g id="learn" fill="#636464">
            <path d="M21,0 C20.448,0 20,0.447 20,1 L20,3 C20,3.553 20.448,4 21,4 C21.552,4 22,3.553 22,3 L22,1 C22,0.447 21.552,0 21,0 L21,0 L21,0 Z" id="Shape"></path>
            <path d="M3,18 C2.448,18 2,18.447 2,19 C2,19.553 2.448,20 3,20 L5,20 C5.552,20 6,19.553 6,19 C6,18.447 5.552,18 5,18 L3,18 L3,18 L3,18 Z" id="Shape"></path>
            <path d="M39,20 C39.552,20 40,19.553 40,19 C40,18.447 39.552,18 39,18 L37,18 C36.448,18 36,18.447 36,19 C36,19.553 36.448,20 37,20 L39,20 L39,20 L39,20 Z" id="Shape"></path>
            <path d="M34.435,5.564 C34.044,5.173 33.411,5.173 33.021,5.564 L31.606,6.979 C31.215,7.37 31.215,8.002 31.606,8.393 C31.801,8.588 32.057,8.686 32.313,8.686 C32.569,8.686 32.825,8.588 33.02,8.393 L34.435,6.978 C34.826,6.588 34.826,5.955 34.435,5.564 L34.435,5.564 L34.435,5.564 Z" id="Shape"></path>
            <path d="M7.565,32.435 C7.76,32.63 8.016,32.728 8.272,32.728 C8.528,32.728 8.784,32.63 8.979,32.435 L10.394,31.021 C10.785,30.63 10.785,29.998 10.394,29.607 C10.003,29.216 9.371,29.216 8.98,29.607 L7.565,31.021 C7.174,31.411 7.174,32.044 7.565,32.435 L7.565,32.435 L7.565,32.435 Z" id="Shape"></path>
            <path d="M8.979,8.394 C9.174,8.589 9.43,8.687 9.686,8.687 C9.942,8.687 10.198,8.589 10.393,8.394 C10.784,8.003 10.784,7.371 10.393,6.98 L8.978,5.565 C8.587,5.174 7.955,5.174 7.564,5.565 C7.173,5.956 7.173,6.588 7.564,6.979 L8.979,8.394 L8.979,8.394 L8.979,8.394 Z" id="Shape"></path>
            <path d="M33.021,29.606 C32.63,29.215 31.997,29.215 31.607,29.606 C31.216,29.997 31.216,30.629 31.607,31.02 L33.022,32.434 C33.217,32.629 33.473,32.727 33.729,32.727 C33.985,32.727 34.241,32.629 34.436,32.434 C34.827,32.043 34.827,31.411 34.436,31.02 L33.021,29.606 L33.021,29.606 L33.021,29.606 Z" id="Shape"></path>
            <path d="M21,6 C13.832,6 8,11.832 8,19 C8,22.011 9.209,25.243 11.292,27.707 C11.32,27.734 14.067,30.511 15.013,33.311 C15.149,34.631 15.969,35.999 17.503,35.999 L24.511,35.999 C26.082,35.999 26.892,34.626 27.004,33.299 C27.938,30.503 30.679,27.734 30.761,27.647 C32.79,25.262 34,22.028 34,19 C34,11.832 28.168,6 21,6 Z M18,22 L17,22 C16.449,22 16,21.552 16,21 C16,20.448 16.449,20 17,20 C17.551,20 18,20.448 18,21 L18,22 Z M22,34 L20,34 L20,24 L22,24 L22,34 Z M29.293,26.293 C29.164,26.423 26.108,29.504 25.063,32.807 C25.038,32.885 25.022,32.973 25.018,33.055 C25.018,33.065 24.934,34 24.513,34 L24,34 L24,24 L25,24 C26.654,24 28,22.654 28,21 C28,19.346 26.654,18 25,18 C23.346,18 22,19.346 22,21 L22,22 L20,22 L20,21 C20,19.346 18.654,18 17,18 C15.346,18 14,19.346 14,21 C14,22.654 15.346,24 17,24 L18,24 L18,34 L17.504,34 C17.114,34 16.998,33.045 16.998,33.042 C16.993,32.961 16.977,32.881 16.953,32.803 C15.891,29.502 12.837,26.423 12.765,26.356 C11.06,24.335 10.001,21.516 10.001,19.001 C10.001,12.936 14.936,8.001 21.001,8.001 C27.066,8.001 32.001,12.936 32.001,19.001 C32,21.568 30.967,24.317 29.293,26.293 Z M24,22 L24,21 C24,20.448 24.449,20 25,20 C25.551,20 26,20.448 26,21 C26,21.552 25.551,22 25,22 L24,22 Z" id="Shape"></path>
            <path d="M16.03,43.243 C16.144,43.697 16.551,44 16.999,44 C17.08,44 17.162,43.99 17.244,43.97 L25.244,41.962 C25.78,41.828 26.105,41.284 25.97,40.749 C25.836,40.213 25.292,39.891 24.757,40.022 L16.757,42.03 C16.221,42.164 15.896,42.708 16.03,43.243 L16.03,43.243 L16.03,43.243 Z" id="Shape"></path>
            <path d="M16.999,40.008 C17.08,40.008 17.162,39.998 17.244,39.978 L25.244,37.97 C25.78,37.836 26.105,37.292 25.97,36.757 C25.836,36.221 25.292,35.897 24.757,36.03 L16.757,38.038 C16.221,38.172 15.896,38.716 16.031,39.251 C16.144,39.705 16.552,40.008 16.999,40.008 L16.999,40.008 L16.999,40.008 Z" id="Shape"></path>
        </g>
    </g>
</svg>