<?xml version="1.0" encoding="UTF-8"?>
<svg width="44px" height="44px" viewBox="0 0 44 44" version="1.1" xmlns="http://www.w3.org/2000/svg" xmlns:xlink="http://www.w3.org/1999/xlink">
    <!-- Generator: sketchtool 40.1 (33804) - http://www.bohemiancoding.com/sketch -->
    <title>love</title>
    <desc>Created with sketchtool.</desc>
    <defs></defs>
    <g id="22pt-icons" stroke="none" stroke-width="1" fill="none" fill-rule="evenodd">
        <g id="love" fill="#636464">
            <path d="M40.3979861,5.75636561 C38.1132591,3.37389782 34.9741036,2.0295971 31.6953904,2.0295971 C28.4166772,2.0295971 25.2775218,3.37389782 22.9927947,5.75636561 L21.9924963,6.67858893 L20.992198,5.72596264 C18.709205,3.34407746 15.5716963,2 12.2946038,2 C9.01751127,2 5.88000255,3.34407746 3.59700957,5.72596264 C-1.19900319,10.7377315 -1.19900319,18.7026158 3.59700957,23.7143847 L21.2722815,42.2500602 L21.9924963,43 L22.7127112,42.2500602 L40.4079891,23.7447877 C45.201216,18.7302818 45.1967869,10.7653966 40.3979861,5.75636561 L40.3979861,5.75636561 Z M38.9975684,22.2854453 L21.9924963,40.0813152 L4.98742428,22.2854453 C0.921492747,18.0554774 0.921492747,11.3139297 4.98742428,7.08396183 C6.896428,5.08510589 9.52426727,3.95655054 12.2695963,3.95655054 C15.0149254,3.95655054 17.6427646,5.08510589 19.5517684,7.08396183 L21.2822845,8.70545339 L21.9624874,9.34391569 L22.6426903,8.70545339 L24.3431975,7.11436479 C26.2549353,5.10534626 28.8909319,3.97042126 31.6453755,3.97042126 C34.3998191,3.97042126 37.0358157,5.10534626 38.9475535,7.11436479 C43.0080042,11.3268192 43.0301542,18.0456051 38.9975684,22.2854453 L38.9975684,22.2854453 Z" id="Shape"></path>
        </g>
    </g>
</svg>