<?xml version="1.0" encoding="UTF-8"?>
<svg width="44px" height="44px" viewBox="0 0 44 44" version="1.1" xmlns="http://www.w3.org/2000/svg" xmlns:xlink="http://www.w3.org/1999/xlink">
    <!-- Generator: sketchtool 40.1 (33804) - http://www.bohemiancoding.com/sketch -->
    <title>monetization</title>
    <desc>Created with sketchtool.</desc>
    <defs></defs>
    <g id="22pt-icons" stroke="none" stroke-width="1" fill="none" fill-rule="evenodd">
        <g id="monetization" fill="#636464">
            <path d="M42,21.7673915 C41.8830723,19.6434026 40.1259997,17.9820268 38,17.9852465 L37.89,17.9852465 C37.3814811,15.6800043 35.3590186,14.0246995 33,13.9829768 L21.65,13.9829768 C20.7967895,11.5943186 18.5351895,10 16,10 C13.4648105,10 11.2032105,11.5943186 10.35,13.9829768 L7,13.9829768 C4.25653169,14.0258756 2.0428745,16.2407889 2,18.985814 L2,38.9971628 C2.0428745,41.7421879 4.25653169,43.9571012 7,44 L33,44 C35.7434683,43.9571012 37.9571255,41.7421879 38,38.9971628 L38,35.9954605 C40.209139,35.9954605 42,34.2035833 42,31.9931907 L42,21.7673915 L42,21.7673915 Z M40,21.9875163 C40,23.0927126 39.1045695,23.9886512 38,23.9886512 L38,19.9863814 C39.1045695,19.9863814 40,20.88232 40,21.9875163 L40,21.9875163 Z M33,15.9841117 C34.639121,16.0261848 35.9579507,17.3457629 36,18.985814 L36,19.045848 C35.145377,18.3689355 34.0899359,17.9958014 33,17.9852465 L21.65,17.9852465 C21.8794383,17.3429398 21.9977993,16.6662075 22,15.9841117 L33,15.9841117 Z M16,11.9818419 C17.4265425,11.9868688 18.7424433,12.7516829 19.4535379,13.9890709 C20.1646326,15.226459 20.1632845,16.7491209 19.45,17.9852465 L12.55,17.9852465 C11.8367155,16.7491209 11.8353674,15.226459 12.5464621,13.9890709 C13.2575567,12.7516829 14.5734575,11.9868688 16,11.9818419 L16,11.9818419 Z M36,38.9971628 C35.9579507,40.6372139 34.639121,41.9567919 33,41.9988651 L7,41.9988651 C5.36087904,41.9567919 4.04204931,40.6372139 4,38.9971628 L4,18.985814 C4.04204931,17.3457629 5.36087904,16.0261848 7,15.9841117 L10,15.9841117 C10.0022007,16.6662075 10.1205617,17.3429398 10.35,17.9852465 L7,17.9852465 L7,19.9863814 L33,19.9863814 C34.639121,20.0284546 35.9579507,21.3480327 36,22.9880837 L36,23.9886512 L30,23.9886512 C26.6862915,23.9886512 24,26.676467 24,29.9920558 C24,33.3076447 26.6862915,35.9954605 30,35.9954605 L36,35.9954605 L36,38.9971628 Z M38,33.9943256 L30,33.9943256 C27.790861,33.9943256 26,32.2024484 26,29.9920558 C26,27.7816633 27.790861,25.9897861 30,25.9897861 L38,25.9897861 C38.7034308,25.9855006 39.3932927,25.7956809 40,25.439474 L40,31.9931907 C40,33.098387 39.1045695,33.9943256 38,33.9943256 L38,33.9943256 Z" id="Shape"></path>
            <path d="M28,12 C31.3137085,12 34,9.3137085 34,6 C34,2.6862915 31.3137085,2.02906125e-16 28,0 C24.6862915,-2.02906125e-16 22,2.6862915 22,6 C22,9.3137085 24.6862915,12 28,12 L28,12 Z M28,2 C30.209139,2 32,3.790861 32,6 C32,8.209139 30.209139,10 28,10 C25.790861,10 24,8.209139 24,6 C24,3.790861 25.790861,2 28,2 L28,2 Z" id="Shape"></path>
            <circle id="Oval" cx="30" cy="30" r="2"></circle>
        </g>
    </g>
</svg>