<?xml version="1.0" encoding="UTF-8"?>
<svg width="44px" height="44px" viewBox="0 0 44 44" version="1.1" xmlns="http://www.w3.org/2000/svg" xmlns:xlink="http://www.w3.org/1999/xlink">
    <!-- Generator: sketchtool 40.1 (33804) - http://www.bohemiancoding.com/sketch -->
    <title>monitor</title>
    <desc>Created with sketchtool.</desc>
    <defs></defs>
    <g id="22pt-icons" stroke="none" stroke-width="1" fill="none" fill-rule="evenodd">
        <g id="monitor" fill="#636464">
            <path d="M43.0009667,22.0014762 L31.6185873,22.0014762 L29.8945298,18.5546814 C29.7105237,18.1887032 29.3345112,17.9697162 28.9144971,18.0057141 C28.5064835,18.040712 28.160472,18.3216952 28.0424681,18.7146719 L26.0884029,25.229284 L22.970299,12.7600264 C22.8622954,12.3230524 22.4742825,12.0130708 22.0242675,12.0030714 C21.5672522,11.9650737 21.171239,12.2840547 21.0432348,12.715029 L18.2561419,22.0014762 L15.0000333,22.0014762 C14.4470149,22.0014762 14,22.4494495 14,23.0014166 C14,23.5533838 14.4470149,24.0013571 15.0000333,24.0013571 L19.0001667,24.0013571 C19.4411814,24.0013571 19.8311944,23.7113744 19.9581986,23.2883996 L21.9122637,16.7737874 L25.0303677,29.2430451 C25.1383713,29.680019 25.5263842,29.9900006 25.9763992,30 L25.9994,30 C26.4394146,30 26.8304277,29.7110172 26.9574319,29.2870424 L29.2325078,21.7034939 L30.1045368,23.44839 C30.2745425,23.7873699 30.620554,24.0013571 30.9995667,24.0013571 L42.9999667,24.0013571 C43.5529851,24.0013571 44,23.5533838 44,23.0014166 C44,22.4494495 43.5539851,22.0014762 43.0009667,22.0014762 L43.0009667,22.0014762 L43.0009667,22.0014762 Z" id="Shape"></path>
            <path d="M31.6862143,2 C31.6852143,2 31.6862143,2 31.6862143,2 C28.394179,2 25.2991459,3.31 23.0101214,5.653 L21.9931105,6.595 L21.0121,5.688 C18.6870751,3.31 15.593042,2 12.3010068,2 C9.00897153,2 5.91493841,3.31 3.58991352,5.688 C-1.19613772,10.583 -1.19613772,18.548 3.58691349,23.439 L21.2751028,41.696 C21.4631048,41.89 21.7221076,42 21.9931105,42 C22.2641134,42 22.5231162,41.89 22.7111182,41.696 L36.2752634,27.696 C36.6602675,27.3 36.6502674,26.666 36.2542632,26.282 C35.8582589,25.899 35.2232521,25.907 34.840248,26.304 L21.9931105,39.563 L5.01892882,22.044 C0.987885663,17.92 0.987885663,11.211 5.01892882,7.086 C6.96494965,5.096 9.55097733,4 12.3000068,4 C15.0490362,4 17.6350639,5.096 19.6170851,7.121 L21.3131032,8.69 C21.6961073,9.044 22.2881137,9.044 22.6701178,8.69 L24.4021363,7.086 C26.3481571,5.096 28.9341848,4 31.6842143,4 C34.4322437,4 37.0182714,5.096 38.9642922,7.086 C41.9503242,10.141 42.8203335,14.69 41.1823159,18.676 C40.9723137,19.187 41.2153163,19.771 41.7273218,19.981 C42.2363272,20.191 42.8213335,19.948 43.0323357,19.437 C44.9753565,14.712 43.9403455,9.315 40.3943075,5.688 C38.0712826,3.31 34.9772495,2 31.6862143,2 L31.6862143,2 L31.6862143,2 Z" id="Shape"></path>
        </g>
    </g>
</svg>