<?xml version="1.0" encoding="UTF-8"?>
<svg width="28px" height="28px" viewBox="0 0 28 28" version="1.1" xmlns="http://www.w3.org/2000/svg" xmlns:xlink="http://www.w3.org/1999/xlink">
    <!-- Generator: sketchtool 40.1 (33804) - http://www.bohemiancoding.com/sketch -->
    <title>more-sm</title>
    <desc>Created with sketchtool.</desc>
    <defs></defs>
    <g id="14pt-icons" stroke="none" stroke-width="1" fill="none" fill-rule="evenodd">
        <g id="more-sm" fill="#636464">
            <path d="M15.75,23.5 C15.75,22.5335017 14.9664983,21.75 14,21.75 C13.0335017,21.75 12.25,22.5335017 12.25,23.5 C12.25,24.4664983 13.0335017,25.25 14,25.25 C14.9664983,25.25 15.75,24.4664983 15.75,23.5 Z M10.5,23.5 C10.5,21.5670034 12.0670034,20 14,20 C15.9329966,20 17.5,21.5670034 17.5,23.5 C17.5,25.4329966 15.9329966,27 14,27 C12.0670034,27 10.5,25.4329966 10.5,23.5 Z" id="BottomOval"></path>
            <path d="M15.75,14 C15.75,13.0335017 14.9664983,12.25 14,12.25 C13.0335017,12.25 12.25,13.0335017 12.25,14 C12.25,14.9664983 13.0335017,15.75 14,15.75 C14.9664983,15.75 15.75,14.9664983 15.75,14 Z M10.5,14 C10.5,12.0670034 12.0670034,10.5 14,10.5 C15.9329966,10.5 17.5,12.0670034 17.5,14 C17.5,15.9329966 15.9329966,17.5 14,17.5 C12.0670034,17.5 10.5,15.9329966 10.5,14 Z" id="MidOval"></path>
            <path d="M15.75,4.5 C15.75,3.53350169 14.9664983,2.75 14,2.75 C13.0335017,2.75 12.25,3.53350169 12.25,4.5 C12.25,5.46649831 13.0335017,6.25 14,6.25 C14.9664983,6.25 15.75,5.46649831 15.75,4.5 Z M10.5,4.5 C10.5,2.56700338 12.0670034,1 14,1 C15.9329966,1 17.5,2.56700338 17.5,4.5 C17.5,6.43299662 15.9329966,8 14,8 C12.0670034,8 10.5,6.43299662 10.5,4.5 Z" id="FrontOval"></path>
        </g>
    </g>
</svg>