<?xml version="1.0" encoding="UTF-8"?>
<svg width="44px" height="44px" viewBox="0 0 44 44" version="1.1" xmlns="http://www.w3.org/2000/svg" xmlns:xlink="http://www.w3.org/1999/xlink">
    <!-- Generator: sketchtool 40.1 (33804) - http://www.bohemiancoding.com/sketch -->
    <title>more</title>
    <desc>Created with sketchtool.</desc>
    <defs></defs>
    <g id="22pt-icons" stroke="none" stroke-width="1" fill="none" fill-rule="evenodd">
        <g id="more" fill="#636464">
            <path d="M20.5,34 C20.5,33.1716597 21.1716597,32.5 22,32.5 C22.8283403,32.5 23.5,33.1716597 23.5,34 C23.5,34.8283403 22.8283403,35.5 22,35.5 C21.1716597,35.5 20.5,34.8283403 20.5,34 Z M25.5,34 C25.5,32.0670903 23.9329097,30.5 22,30.5 C20.0670903,30.5 18.5,32.0670903 18.5,34 C18.5,35.9329097 20.0670903,37.5 22,37.5 C23.9329097,37.5 25.5,35.9329097 25.5,34 Z" id="Path"></path>
            <path d="M22,23.5 C21.1716597,23.5 20.5,22.8283403 20.5,22 C20.5,21.1716597 21.1716597,20.5 22,20.5 C22.8283403,20.5 23.5,21.1716597 23.5,22 C23.5,22.8283403 22.8283403,23.5 22,23.5 Z M22,18.5 C20.0670903,18.5 18.5,20.0670903 18.5,22 C18.5,23.9329097 20.0670903,25.5 22,25.5 C23.9329097,25.5 25.5,23.9329097 25.5,22 C25.5,20.0670903 23.9329097,18.5 22,18.5 Z" id="Path"></path>
            <path d="M22,11.5 C21.1716597,11.5 20.5,10.8283403 20.5,10 C20.5,9.17165975 21.1716597,8.5 22,8.5 C22.8283403,8.5 23.5,9.17165975 23.5,10 C23.5,10.8283403 22.8283403,11.5 22,11.5 Z M22,6.5 C20.0670903,6.5 18.5,8.06709025 18.5,10 C18.5,11.9329097 20.0670903,13.5 22,13.5 C23.9329097,13.5 25.5,11.9329097 25.5,10 C25.5,8.06709025 23.9329097,6.5 22,6.5 Z" id="Path"></path>
        </g>
    </g>
</svg>