<?xml version="1.0" encoding="UTF-8"?>
<svg width="44px" height="44px" viewBox="0 0 44 44" version="1.1" xmlns="http://www.w3.org/2000/svg" xmlns:xlink="http://www.w3.org/1999/xlink">
    <!-- Generator: sketchtool 40.1 (33804) - http://www.bohemiancoding.com/sketch -->
    <title>operate</title>
    <desc>Created with sketchtool.</desc>
    <defs></defs>
    <g id="22pt-icons" stroke="none" stroke-width="1" fill="none" fill-rule="evenodd">
        <g id="operate" fill="#636464">
            <path d="M43.2441818,0.755713108 C40.898242,-1.62137323 30.3415131,1.88716469 24.8192124,7.39909852 C24.2240772,7.99423513 23.6081815,8.66549386 22.9715253,9.41287472 C21.4059795,11.2868557 19.9436568,13.2447096 18.5910537,15.2777384 L17.9682378,16.2223448 L10.1311381,16.2223448 L9.83011046,16.5233732 L1.7231239,24.6303794 L0,26.3535075 L11.9476844,26.3535075 L11.7296989,26.7687191 L12.2590923,27.2981139 L13.7642307,28.8032559 L10.048096,32.5193996 L11.4805725,33.9518796 L15.1967072,30.2357359 L16.6914653,31.7304976 L17.2208588,32.2598923 L17.6360693,32.0419063 L17.6360693,44 L19.3695735,42.2664916 L27.4765601,34.1594854 L27.7775877,33.858457 L27.7775877,26.0213382 L28.7221918,25.3985209 C30.7588554,24.0463617 32.7201836,22.5840251 34.5974215,21.0180386 C35.3378804,20.388301 36.0091375,19.7758639 36.6111928,19.1807273 C42.112733,13.6584132 45.6212624,3.10165858 43.2441818,0.755713108 L43.2441818,0.755713108 Z M10.9719396,18.2568815 L16.681085,18.2568815 C15.7572415,19.7308827 14.8541585,21.2256444 13.9822163,22.7307864 L13.068753,24.3397313 L4.88910457,24.3397313 L10.9719396,18.2568815 Z M19.6706012,30.9415956 L21.2795422,30.0281301 C22.7846805,29.1561857 24.2898189,28.2531005 25.7534362,27.3292547 L25.7534362,33.0384141 L19.6706012,39.1212638 L19.6706012,30.9415956 Z M41.012425,7.98039474 C39.8217471,11.635831 37.8204138,14.9749429 35.1579558,17.7482473 C34.6043417,18.3018628 33.9746056,18.8796989 33.2687477,19.4817557 C31.4510662,20.9991118 29.5521281,22.4163884 27.5803627,23.7272942 L26.1478862,24.6719006 L18.1966036,29.4468338 L17.8332944,29.6440593 L17.584168,29.7790031 L16.6188034,28.8136362 L23.2517924,22.1391099 L21.860837,20.7481511 L15.1863269,27.4226773 L14.2209623,26.4573104 L14.3559058,26.2081835 L14.5427505,25.8656339 L19.3280525,17.8831911 C19.6394604,17.4056978 19.9508683,16.9282045 20.2622763,16.4610914 C21.5699141,14.4896451 22.9837143,12.5907127 24.4974242,10.7726927 C25.0994795,10.0806734 25.6773142,9.44747568 26.2309283,8.87309965 C29.0073265,6.19701637 32.3539661,4.18476903 36.0195177,2.98747539 C38.9156115,2.02210845 41.4587763,1.82488295 41.8220856,2.18819309 C42.1853948,2.55150323 41.9362685,5.08429391 41.012425,7.98039474 L41.012425,7.98039474 Z" id="Shape"></path>
            <path d="M34,5 C31.790861,5 30,6.790861 30,9 C30,11.209139 31.790861,13 34,13 C36.209139,13 38,11.209139 38,9 C37.9943632,6.79320006 36.2067999,5.00563681 34,5 L34,5 Z M34,11.0102564 C32.8671082,11.0102564 31.9487179,10.0918662 31.9487179,8.95897436 C31.9487179,7.82608256 32.8671082,6.90769231 34,6.90769231 C35.1328918,6.90769231 36.0512821,7.82608256 36.0512821,8.95897436 C36.0512821,10.0918662 35.1328918,11.0102564 34,11.0102564 L34,11.0102564 Z" id="Shape"></path>
            <path d="M8.21301412,39.8254746 C6.61060728,40.4931949 4.95625363,41.0293688 3.26642112,41.4286589 L2.46286065,41.6160441 C2.5150399,41.3557869 2.577655,41.0955297 2.65070595,40.8144519 C3.05093179,39.1287461 3.58842338,37.4784412 4.25782689,35.8799755 C6.08410068,31.5805266 8.48434622,29.0820576 11.6151013,29.0820576 L11.6151013,27 C7.524248,27 4.52915899,30.0606246 2.4106814,35.0263319 C1.70004548,36.7123647 1.12767559,38.4531205 0.699201964,40.2314758 C0.542664211,40.8560931 0.427869859,41.4390692 0.323511357,41.9595836 C0.260896255,42.2718922 0.229588705,42.5113288 0.208717004,42.6362523 L0,44 L1.32535298,43.927128 L2.00368324,43.8126148 C2.52547575,43.7189222 3.10988336,43.5939988 3.73603438,43.4378445 C5.51874395,43.0103763 7.26377057,42.4394096 8.95395948,41.7305573 C13.93186,39.6484997 17,36.6295162 17,32.5486834 L14.91283,32.5486834 C15.0171885,35.5988977 12.5125844,37.9932639 8.21301412,39.8254746 L8.21301412,39.8254746 Z" id="Shape"></path>
        </g>
    </g>
</svg>