<?xml version="1.0" encoding="UTF-8"?>
<svg width="44px" height="44px" viewBox="0 0 44 44" version="1.1" xmlns="http://www.w3.org/2000/svg" xmlns:xlink="http://www.w3.org/1999/xlink">
    <!-- Generator: sketchtool 40.1 (33804) - http://www.bohemiancoding.com/sketch -->
    <title>outdent</title>
    <desc>Created with sketchtool.</desc>
    <defs></defs>
    <g id="22pt-icons" stroke="none" stroke-width="1" fill="none" fill-rule="evenodd">
        <g id="outdent" fill="#636464">
            <path d="M1,38 C0.44771525,38 0,38.4477153 0,39 C0,39.5522847 0.44771525,40 1,40 L21,40 C21.5522847,40 22,39.5522847 22,39 C22,38.4477153 21.5522847,38 21,38 L1,38 Z" id="Stroke-355"></path>
            <path d="M1,22 C0.44771525,22 0,22.4477153 0,23 C0,23.5522847 0.44771525,24 1,24 L21,24 C21.5522847,24 22,23.5522847 22,23 C22,22.4477153 21.5522847,22 21,22 L1,22 Z" id="Stroke-356"></path>
            <path d="M1,6 C0.44771525,6 0,6.44771525 0,7 C0,7.55228475 0.44771525,8 1,8 L21,8 C21.5522847,8 22,7.55228475 22,7 C22,6.44771525 21.5522847,6 21,6 L1,6 Z" id="Stroke-357"></path>
            <path d="M9,14 C8.44771525,14 8,14.4477153 8,15 C8,15.5522847 8.44771525,16 9,16 L21,16 C21.5522847,16 22,15.5522847 22,15 C22,14.4477153 21.5522847,14 21,14 L9,14 Z" id="Stroke-358"></path>
            <path d="M9,30 C8.44771525,30 8,30.4477153 8,31 C8,31.5522847 8.44771525,32 9,32 L21,32 C21.5522847,32 22,31.5522847 22,31 C22,30.4477153 21.5522847,30 21,30 L9,30 Z" id="Stroke-359"></path>
            <path d="M26,43 C26,43.5522847 26.4477153,44 27,44 C27.5522847,44 28,43.5522847 28,43 L28,3 C28,2.44771525 27.5522847,2 27,2 C26.4477153,2 26,2.44771525 26,3 L26,43 Z" id="Stroke-360"></path>
            <path d="M43,24 C43.5522847,24 44,23.5522847 44,23 C44,22.4477153 43.5522847,22 43,22 L33,22 C32.4477153,22 32,22.4477153 32,23 C32,23.5522847 32.4477153,24 33,24 L43,24 Z" id="Stroke-361"></path>
            <path d="M32.2928932,22.2928932 C31.9023689,22.6834175 31.9023689,23.3165825 32.2928932,23.7071068 L38.2928932,29.7071068 C38.6834175,30.0976311 39.3165825,30.0976311 39.7071068,29.7071068 C40.0976311,29.3165825 40.0976311,28.6834175 39.7071068,28.2928932 L33.7071068,22.2928932 L33.7071068,23.7071068 L39.7071068,17.7071068 C40.0976311,17.3165825 40.0976311,16.6834175 39.7071068,16.2928932 C39.3165825,15.9023689 38.6834175,15.9023689 38.2928932,16.2928932 L32.2928932,22.2928932 Z" id="Stroke-362"></path>
        </g>
    </g>
</svg>