<?xml version="1.0" encoding="UTF-8"?>
<svg width="44px" height="44px" viewBox="0 0 44 44" version="1.1" xmlns="http://www.w3.org/2000/svg" xmlns:xlink="http://www.w3.org/1999/xlink">
    <!-- Generator: sketchtool 40.1 (33804) - http://www.bohemiancoding.com/sketch -->
    <title>performance</title>
    <desc>Created with sketchtool.</desc>
    <defs></defs>
    <g id="22pt-icons" stroke="none" stroke-width="1" fill="none" fill-rule="evenodd">
        <g id="performance" fill="#636464">
            <path d="M43.9937141,26.1343852 C43.9601895,20.1115525 41.5506083,14.6513152 37.6669921,10.659315 C37.6303245,10.6033721 37.6062287,10.5421516 37.5569895,10.4925419 C37.5067025,10.4418766 37.4427963,10.416544 37.3862235,10.378545 C33.4146051,6.43932113 27.9857139,4 21.9994762,4 C16.0132384,4 10.5843472,6.43932113 6.61377652,10.3774895 C6.5561561,10.4154885 6.49329746,10.4408211 6.44301055,10.4914863 C6.39377128,10.5410961 6.37072311,10.6023166 6.33300793,10.6582595 C2.44939165,14.6502597 0.0398104717,20.1104969 0.00628586395,26.1333296 C0.00628586395,26.1449404 0,26.1544402 0,26.1649954 C0,26.1713286 0.00419057597,26.1776617 0.00419057597,26.1839949 C0.00419057597,26.210383 0,26.2346601 0,26.2610483 C0,31.7255076 2.33519846,37.1984112 6.57501369,41.6717313 C6.57815662,41.6748979 6.5823472,41.6759534 6.58549013,41.67912 C6.58863306,41.6822866 6.58863306,41.6865087 6.59177599,41.6886198 C6.63891997,41.7361184 6.69758804,41.7582845 6.74997024,41.7941724 C6.80968594,41.8353379 6.86416343,41.8860032 6.92911736,41.9134468 C6.98988071,41.9387795 7.05378699,41.9419461 7.11769328,41.9546124 C7.18579014,41.9693897 7.25179171,41.9936668 7.32198386,41.9947224 C7.32617443,41.9947224 7.32931736,41.9968334 7.3324603,41.9968334 C7.39008072,41.9968334 7.44560585,41.9736118 7.50217862,41.9641121 C7.57446606,41.9525013 7.64675349,41.9493347 7.715898,41.9218911 C7.77351842,41.899725 7.82171004,41.8543374 7.87618753,41.8205605 C7.93695088,41.7825616 8.00295245,41.757229 8.05638229,41.7055082 C8.05952523,41.7023416 8.06057287,41.6981195 8.0637158,41.6949529 C8.06685873,41.6917863 8.07104931,41.6907308 8.0731446,41.6886198 L10.888164,38.8524208 C11.2977928,38.43971 11.2977928,37.7726174 10.888164,37.3599067 C10.4785352,36.9471959 9.8164242,36.9471959 9.4067954,37.3599067 L7.38169956,39.4002389 C4.21362413,35.7555068 2.38548537,31.5017361 2.14557489,27.2205217 L5.23717231,27.2205217 C5.81651944,27.2205217 6.28481631,26.7487014 6.28481631,26.1649954 C6.28481631,25.5812894 5.81651944,25.1094692 5.23717231,25.1094692 L2.15186076,25.1094692 C2.41796233,20.3817672 4.29219743,16.0931641 7.24026763,12.7872559 L9.40574776,14.9690286 C9.61003833,15.1748563 9.8782352,15.2782978 10.1464321,15.2782978 C10.4146289,15.2782978 10.6828258,15.1748563 10.8871164,14.9690286 C11.2967452,14.5563179 11.2967452,13.8892253 10.8871164,13.4765145 L8.71954094,11.2926308 C12.0018096,8.30443599 16.2604824,6.41293297 20.9518322,6.16382878 L20.9518322,9.27763118 C20.9518322,9.86133719 21.4201291,10.3331574 21.9994762,10.3331574 C22.5788233,10.3331574 23.0471202,9.86133719 23.0471202,9.27763118 L23.0471202,6.16488431 C27.73847,6.4139885 31.9960951,8.30654704 35.2794114,11.2936863 L33.111836,13.4775701 C32.7022072,13.8902808 32.7022072,14.5573734 33.111836,14.9700842 C33.3161266,15.1759118 33.5843234,15.2793534 33.8525203,15.2793534 C34.1207172,15.2793534 34.388914,15.1759118 34.5932046,14.9700842 L36.7586847,12.7883114 C39.7067549,16.0942196 41.58099,20.3828227 41.8470916,25.1105247 L38.76178,25.1105247 C38.1824329,25.1105247 37.7141361,25.5823449 37.7141361,26.1660509 C37.7141361,26.749757 38.1824329,27.2215772 38.76178,27.2215772 L41.8533775,27.2215772 C41.613467,31.5038471 39.7853282,35.7576178 36.6183004,39.4023499 L34.5932046,37.3620177 C34.1835758,36.949307 33.5214648,36.949307 33.111836,37.3620177 C32.7022072,37.7747285 32.7022072,38.4418211 33.111836,38.8545318 L35.9268554,41.6907308 C35.9299983,41.6938974 35.9341889,41.6949529 35.9383795,41.6981195 C35.9415224,41.7002305 35.9415224,41.7044527 35.9446653,41.7076192 C36.007524,41.7688398 36.0829544,41.8015611 36.1552418,41.8437821 C36.1981952,41.8680592 36.2348627,41.9060582 36.2799114,41.9240021 C36.4045811,41.9746674 36.5365842,42 36.6675397,42 C36.8037334,42 36.9388795,41.9725563 37.0666921,41.91978 C37.1065025,41.9028916 37.1389795,41.8680592 37.1766947,41.8458932 C37.2563156,41.8005055 37.3401271,41.75934 37.408224,41.6907308 C37.4113669,41.6875642 37.4124146,41.6822866 37.4155575,41.67912 C37.4187004,41.677009 37.4218434,41.6759534 37.4239387,41.6727869 C41.6648015,37.2015777 44,31.7276187 44,26.2621038 C44,26.2367712 43.9958094,26.2114386 43.9958094,26.1850504 C43.9958094,26.1787173 44,26.1723841 44,26.1660509 C44,26.1544402 43.9937141,26.1449404 43.9937141,26.1343852 L43.9937141,26.1343852 L43.9937141,26.1343852 Z" id="Shape"></path>
            <path d="M21.7500677,23.5001354 C21.2495781,23.5001354 20.7815879,23.6236328 20.3580134,23.826212 L13.8494823,17.3176809 C13.4259078,16.8941064 12.7412554,16.8941064 12.3176809,17.3176809 C11.8941064,17.7412554 11.8941064,18.4259078 12.3176809,18.8494823 L18.826212,25.3580134 C18.6225495,25.7815879 18.5001354,26.2495781 18.5001354,26.7500677 C18.5001354,28.5418637 19.9582717,30 21.7500677,30 C23.5418637,30 25,28.5418637 25,26.7500677 C25,24.9582717 23.5418637,23.5001354 21.7500677,23.5001354 L21.7500677,23.5001354 L21.7500677,23.5001354 Z M21.7500677,27.8333785 C21.1520802,27.8333785 20.6667569,27.3480552 20.6667569,26.7500677 C20.6667569,26.1520802 21.1520802,25.6667569 21.7500677,25.6667569 C22.3480552,25.6667569 22.8333785,26.1520802 22.8333785,26.7500677 C22.8333785,27.3480552 22.3480552,27.8333785 21.7500677,27.8333785 L21.7500677,27.8333785 L21.7500677,27.8333785 Z" id="Shape"></path>
        </g>
    </g>
</svg>