<?xml version="1.0" encoding="UTF-8"?>
<svg width="44px" height="44px" viewBox="0 0 44 44" version="1.1" xmlns="http://www.w3.org/2000/svg" xmlns:xlink="http://www.w3.org/1999/xlink">
    <!-- Generator: sketchtool 40.1 (33804) - http://www.bohemiancoding.com/sketch -->
    <title>placeholder</title>
    <desc>Created with sketchtool.</desc>
    <defs></defs>
    <g id="22pt-icons" stroke="none" stroke-width="1" fill="none" fill-rule="evenodd">
        <g id="placeholder" fill="#636464">
            <path d="M4.71551432,9.48032916 C4.9317056,8.97211683 4.69497577,8.38487167 4.18676343,8.16868039 C3.6785511,7.95248911 3.09130594,8.18921894 2.87511466,8.69743128 C2.30015271,10.0490249 2,11.5087138 2,13.008897 C2,13.5611818 2.44771525,14.008897 3,14.008897 C3.55228475,14.008897 4,13.5611818 4,13.008897 C4,11.778923 4.24542114,10.5854022 4.71551432,9.48032916 Z M10.6747586,4.30412038 C11.2083874,4.16178709 11.525595,3.61381156 11.3832618,3.08018278 C11.2409285,2.54655399 10.6929529,2.22934632 10.1593242,2.37167961 C8.72293918,2.75480248 7.38558127,3.4252519 6.22134616,4.33745647 C5.78661206,4.67808047 5.71032076,5.3066324 6.05094477,5.7413665 C6.39156877,6.17610059 7.0201207,6.25239189 7.4548548,5.91176788 C8.4074807,5.16536392 9.50084206,4.6172358 10.6747586,4.30412038 Z M19.3836315,4 C19.9359162,4 20.3836315,3.55228475 20.3836315,3 C20.3836315,2.44771525 19.9359162,2 19.3836315,2 L15.3836315,2 C14.8313467,2 14.3836315,2.44771525 14.3836315,3 C14.3836315,3.55228475 14.8313467,4 15.3836315,4 L19.3836315,4 Z M28.3836315,4 C28.9359162,4 29.3836315,3.55228475 29.3836315,3 C29.3836315,2.44771525 28.9359162,2 28.3836315,2 L24.3836315,2 C23.8313467,2 23.3836315,2.44771525 23.3836315,3 C23.3836315,3.55228475 23.8313467,4 24.3836315,4 L28.3836315,4 Z M36.3861187,5.79026786 C36.8283408,6.12111237 37.4550351,6.03082302 37.7858796,5.58860096 C38.1167241,5.14637889 38.0264347,4.51968461 37.5842127,4.1888401 C36.4001823,3.30301831 35.0483909,2.66259364 33.6032206,2.31141345 C33.0665537,2.181002 32.5257799,2.51033707 32.3953685,3.04700391 C32.264957,3.58367075 32.5942921,4.12444455 33.1309589,4.254856 C34.3121701,4.54189342 35.4173182,5.06546834 36.3861187,5.79026786 Z M39.9990572,12.8768005 C40.006945,13.4290289 40.4610088,13.8703042 41.0132372,13.8624165 C41.5654656,13.8545288 42.006741,13.400465 41.9988532,12.8482365 C41.9774315,11.3484759 41.6560441,9.89301647 41.061071,8.54952126 C40.8374375,8.04453957 40.2467782,7.8164618 39.7417965,8.0400953 C39.2368148,8.2637288 39.008737,8.85438811 39.2323705,9.35936979 C39.7187645,10.457685 39.9814989,11.647524 39.9990572,12.8768005 Z M40,21.7761599 C40,22.3284447 40.4477153,22.7761599 41,22.7761599 C41.5522847,22.7761599 42,22.3284447 42,21.7761599 L42,17.7761599 C42,17.2238752 41.5522847,16.7761599 41,16.7761599 C40.4477153,16.7761599 40,17.2238752 40,17.7761599 L40,21.7761599 Z M40,30.7761599 C40,31.3284447 40.4477153,31.7761599 41,31.7761599 C41.5522847,31.7761599 42,31.3284447 42,30.7761599 L42,26.7761599 C42,26.2238752 41.5522847,25.7761599 41,25.7761599 C40.4477153,25.7761599 40,26.2238752 40,26.7761599 L40,30.7761599 Z M36.6989122,37.9650237 C36.2717057,38.3150424 36.2091326,38.9451078 36.5591513,39.3723143 C36.90917,39.7995208 37.5392354,39.8620939 37.9664419,39.5120753 C39.1112047,38.5741487 40.0580862,37.4138155 40.7457729,36.1024349 C41.0022632,35.6133222 40.8136854,35.0088916 40.3245727,34.7524014 C39.83546,34.4959112 39.2310295,34.684489 38.9745393,35.1736016 C38.4117953,36.2467233 37.6363783,37.1969394 36.6989122,37.9650237 Z M31.0176469,39.999962 L28.8312923,40 C28.2790076,40.0000106 27.8313009,40.4477345 27.8313116,41.0000192 C27.8313222,41.552304 28.2790461,42.0000106 28.8313308,42 L31.0205317,41.9999579 C31.7042807,41.9980026 32.3774583,41.9343078 33.03699,41.8105912 C33.5798072,41.7087683 33.9373036,41.1861841 33.8354806,40.6433669 C33.7336577,40.1005497 33.2110735,39.7430532 32.6682563,39.8448762 C32.1283043,39.9461618 31.5766296,39.9983601 31.0176469,39.999962 Z M19.8313116,40 C19.2790268,40 18.8313116,40.4477153 18.8313116,41 C18.8313116,41.5522847 19.2790268,42 19.8313116,42 L23.8313116,42 C24.3835963,42 24.8313116,41.5522847 24.8313116,41 C24.8313116,40.4477153 24.3835963,40 23.8313116,40 L19.8313116,40 Z M13.008897,40 C12.3463013,40 11.6937192,39.9288194 11.0586958,39.7890527 C10.5193209,39.6703379 9.98583384,40.0113503 9.86711907,40.5507251 C9.7484043,41.0901 10.0894167,41.6235871 10.6287916,41.7423018 C11.4047937,41.9130975 12.2015132,42 13.008897,42 L14.8313116,42 C15.3835963,42 15.8313116,41.5522847 15.8313116,41 C15.8313116,40.4477153 15.3835963,40 14.8313116,40 L13.008897,40 Z M4.8843094,34.893408 C4.64507953,34.3956254 4.04761288,34.186027 3.54983028,34.4252568 C3.05204769,34.6644867 2.84244928,35.2619534 3.08167915,35.759736 C3.72324526,37.0946882 4.62942317,38.2867048 5.7410571,39.2636666 C6.15590081,39.6282528 6.78775365,39.5875111 7.15233991,39.1726674 C7.51692617,38.7578237 7.47618446,38.1259709 7.06134075,37.7613846 C6.15102393,36.9613508 5.40912908,35.9854376 4.8843094,34.893408 Z M4,26.4387831 C4,25.8864983 3.55228475,25.4387831 3,25.4387831 C2.44771525,25.4387831 2,25.8864983 2,26.4387831 L2,30.4387831 C2,30.9910678 2.44771525,31.4387831 3,31.4387831 C3.55228475,31.4387831 4,30.9910678 4,30.4387831 L4,26.4387831 Z M4,17.4387831 C4,16.8864983 3.55228475,16.4387831 3,16.4387831 C2.44771525,16.4387831 2,16.8864983 2,17.4387831 L2,21.4387831 C2,21.9910678 2.44771525,22.4387831 3,22.4387831 C3.55228475,22.4387831 4,21.9910678 4,21.4387831 L4,17.4387831 Z" id="Rectangle"></path>
        </g>
    </g>
</svg>