<?xml version="1.0" encoding="UTF-8"?>
<svg width="44px" height="44px" viewBox="0 0 44 44" version="1.1" xmlns="http://www.w3.org/2000/svg" xmlns:xlink="http://www.w3.org/1999/xlink">
    <!-- Generator: sketchtool 40.1 (33804) - http://www.bohemiancoding.com/sketch -->
    <title>plus</title>
    <desc>Created with sketchtool.</desc>
    <defs></defs>
    <g id="22pt-icons" stroke="none" stroke-width="1" fill="none" fill-rule="evenodd">
        <g id="plus" fill="#636464">
            <path d="M23,23 L23,34 C23,34.5522847 22.5522847,35 22,35 C21.4477153,35 21,34.5522847 21,34 L21,23 L10,23 C9.44771525,23 9,22.5522847 9,22 C9,21.4477153 9.44771525,21 10,21 L21,21 L21,10 C21,9.44771525 21.4477153,9 22,9 C22.5522847,9 23,9.44771525 23,10 L23,21 L34,21 C34.5522847,21 35,21.4477153 35,22 C35,22.5522847 34.5522847,23 34,23 L23,23 L23,23 Z" id="Combined-Shape"></path>
        </g>
    </g>
</svg>