<?xml version="1.0" encoding="UTF-8"?>
<svg width="44px" height="44px" viewBox="0 0 44 44" version="1.1" xmlns="http://www.w3.org/2000/svg" xmlns:xlink="http://www.w3.org/1999/xlink">
    <!-- Generator: sketchtool 40.1 (33804) - http://www.bohemiancoding.com/sketch -->
    <title>publish</title>
    <desc>Created with sketchtool.</desc>
    <defs></defs>
    <g id="22pt-icons" stroke="none" stroke-width="1" fill="none" fill-rule="evenodd">
        <g id="publish" fill="#636464">
            <path d="M18.0190244,27.2595349 L15.8473171,24.3637209 C15.5208674,23.9328249 14.9152639,23.8297622 14.4643902,24.1283721 L12.3029268,25.5813953 C11.8778803,25.9069615 11.7756745,26.5046481 12.0684324,26.9526888 C12.3611904,27.4007294 12.9500667,27.54785 13.4195122,27.2902326 L13.9931707,26.9116279 L13.9931707,32.8874419 C13.9931708,33.4525704 14.4518059,33.9106976 15.017561,33.9106976 C15.5833161,33.9106976 16.0419512,33.4525704 16.0419512,32.8874419 L16.0419512,28.0474419 L16.3697561,28.4874419 C16.5632167,28.7451037 16.866834,28.8967442 17.1892683,28.8967442 L17.1892683,28.8967442 C17.5772787,28.8967442 17.9319873,28.677765 18.1055108,28.3311023 C18.2790343,27.9844396 18.2415867,27.5695995 18.0087805,27.2595349 L18.0190244,27.2595349 Z" id="Shape"></path>
            <polygon id="Shape" points="9.2195122 24.9060465 9.2195122 24.9060465 9.20926829 24.9060465"></polygon>
            <path d="M4.40487805,23.3506977 C4.73272571,23.5148748 5.12342501,23.4914588 5.42926829,23.2893023 L6.00292683,22.9106977 L6.00292683,28.8865116 C6.01871753,29.1418051 6.13565405,29.3803026 6.32788467,29.5492782 C6.52011529,29.7182538 6.77180699,29.80379 7.02731707,29.7869767 C7.28282715,29.80379 7.53451886,29.7182538 7.72674948,29.5492782 C7.91898009,29.3803026 8.03591662,29.1418051 8.05170732,28.8865116 L8.05170732,24.0362791 L8.4,24.4967442 C8.75598296,24.8893722 9.35309811,24.9457093 9.77638123,24.6266041 C10.1996644,24.3074989 10.3091627,23.7184592 10.0287805,23.2688372 L7.85707317,20.3730233 C7.52981486,19.9360244 6.91681942,19.8324709 6.46390244,20.1376744 L4.29219512,21.5804651 C3.986765,21.7828257 3.81283718,22.1327639 3.8360942,22.4981284 C3.85935122,22.8634928 4.07624912,23.1886084 4.40487805,23.3506977 L4.40487805,23.3506977 Z" id="Shape"></path>
            <path d="M17.424878,36.0493023 L5.4702439,30.0530233 C4.9726141,29.8524398 4.40435597,30.069452 4.16760713,30.5504873 C3.93085829,31.0315227 4.10586488,31.6135341 4.56878049,31.8846512 L16.5439024,37.8604651 C17.0208024,37.993735 17.5248605,37.7671548 17.7412783,37.32223 C17.9576961,36.8773053 17.8245014,36.3414422 17.424878,36.0493023 L17.424878,36.0493023 Z" id="Shape"></path>
            <path d="M41.4160976,10.0893023 L21.4609756,0.11255814 C21.1710244,-0.0333873979 20.8289756,-0.0333873979 20.5390244,0.11255814 L8.63560976,6.06790698 C8.52299999,6.09403118 8.41562965,6.13900759 8.31804878,6.20093023 L8.20536585,6.25209302 L0.563414634,10.0995349 L0.563414634,10.0995349 L0.563414634,10.0995349 L0.563414634,10.0995349 C0.507905367,10.1386759 0.456432348,10.1832365 0.409756098,10.2325581 L0.409756098,10.2325581 C0.235264447,10.4186788 0.136628456,10.6631711 0.133170732,10.9181395 L0.133170732,32.9693023 C0.134286187,33.3629073 0.361319052,33.7209833 0.717073171,33.8902326 L20.4980488,43.8772093 C20.7853957,44.0337158 21.132653,44.0337158 21.42,43.8772093 L41.375122,33.8902326 C41.7196035,33.7168416 41.9373674,33.3648503 41.9385366,32.9795349 L41.9385366,11 C41.9453911,10.6235411 41.7447184,10.2737354 41.4160976,10.0893023 L41.4160976,10.0893023 Z M21,2.16930233 L38.64,10.9897674 L33.0980488,13.7627907 L15.3760976,4.99348837 L21,2.16930233 Z M21,19.8409302 L3.32926829,11 L8.89170732,8.18604651 L26.6443902,16.9860465 L21,19.8409302 Z M13.0404878,6.13953488 L30.8034146,14.9088372 L28.9902439,15.8195349 L11.2785366,7.05023256 L13.0404878,6.13953488 Z M30.0146341,17.6 L31.9609756,16.5767442 L31.9609756,26.8093023 L30.0146341,27.8325581 L30.0146341,17.6 Z M2.05902439,12.6576744 L19.9858537,21.6213953 L19.9858537,41.2986047 L2.05902439,32.3348837 L2.05902439,12.6576744 Z M22.0346341,41.3088372 L22.0346341,21.6213953 L27.9658537,18.6437209 L27.9658537,29.4390698 C27.9937149,29.7842644 28.1805216,30.0969474 28.4714378,30.2853325 C28.762354,30.4737176 29.1243705,30.5164294 29.4512195,30.4009302 L33.4463415,28.3544186 C33.7908231,28.1810277 34.008587,27.8290363 34.0097561,27.4437209 L34.0097561,15.6148837 L39.9614634,12.6167442 L39.9614634,32.3348837 L22.0346341,41.3088372 Z" id="Shape"></path>
        </g>
    </g>
</svg>