<?xml version="1.0" encoding="UTF-8"?>
<svg width="28px" height="28px" viewBox="0 0 28 28" version="1.1" xmlns="http://www.w3.org/2000/svg" xmlns:xlink="http://www.w3.org/1999/xlink">
    <!-- Generator: sketchtool 40.1 (33804) - http://www.bohemiancoding.com/sketch -->
    <title>save-sm</title>
    <desc>Created with sketchtool.</desc>
    <defs></defs>
    <g id="14pt-icons" stroke="none" stroke-width="1" fill="none" fill-rule="evenodd">
        <g id="save-sm" fill="#636464">
            <path d="M26.424,4.919 L23.082,1.577 C22.451,0.946 21.596,0.592 20.703,0.592 L3.364,0.592 C1.833,0.592 0.591,1.833 0.591,3.365 L0.591,24.638 C0.591,26.169 1.832,27.411 3.364,27.411 L24.637,27.411 C26.168,27.411 27.41,26.17 27.41,24.638 L27.41,7.297 C27.409,6.405 27.055,5.55 26.424,4.919 L26.424,4.919 Z M19.5,8.864 L8.5,8.864 L8.5,2.591 L19.5,2.591 L19.5,8.864 L19.5,8.864 Z M7.318,16.773 L20.682,16.773 L20.682,25.409 L7.318,25.409 L7.318,16.773 L7.318,16.773 Z M25.409,24.636 C25.409,25.063 25.063,25.409 24.636,25.409 L22.681,25.409 L22.681,15.773 C22.681,15.221 22.233,14.773 21.681,14.773 L6.318,14.773 C5.766,14.773 5.318,15.221 5.318,15.773 L5.318,25.409 L3.364,25.409 C2.937,25.409 2.591,25.063 2.591,24.636 L2.591,3.364 C2.591,2.937 2.937,2.591 3.364,2.591 L6.5,2.591 L6.5,9.864 C6.5,10.416 6.948,10.864 7.5,10.864 L20.5,10.864 C21.052,10.864 21.5,10.416 21.5,9.864 L21.5,2.879 C21.554,2.919 21.619,2.942 21.667,2.991 L25.009,6.333 C25.265,6.589 25.409,6.936 25.409,7.298 L25.409,24.636 L25.409,24.636 Z" id="Shape"></path>
            <path d="M10.3218215,20.3999996 L17.6791785,20.3999996 C18.170084,20.3999996 18.5685,19.9519996 18.5685,19.3999996 C18.5685,18.8479996 18.170084,18.3999996 17.6791785,18.3999996 L10.3218215,18.3999996 C9.83091604,18.3999996 9.4325,18.8479996 9.4325,19.3999996 C9.4325,19.9519996 9.83002672,20.3999996 10.3218215,20.3999996 L10.3218215,20.3999996 Z" id="Shape"></path>
            <path d="M17.6782892,22 L10.3218215,22 C9.83091604,22 9.4325,22.448 9.4325,23 C9.4325,23.552 9.83091604,24 10.3218215,24 L17.6791785,24 C18.170084,24 18.5685,23.552 18.5685,23 C18.5685,22.448 18.170084,22 17.6782892,22 L17.6782892,22 Z" id="Shape"></path>
        </g>
    </g>
</svg>