<?xml version="1.0" encoding="UTF-8"?>
<svg width="28px" height="28px" viewBox="0 0 28 28" version="1.1" xmlns="http://www.w3.org/2000/svg" xmlns:xlink="http://www.w3.org/1999/xlink">
    <!-- Generator: sketchtool 40.1 (33804) - http://www.bohemiancoding.com/sketch -->
    <title>save-sm</title>
    <desc>Created with sketchtool.</desc>
    <defs></defs>
    <g id="14pt-icons" stroke="none" stroke-width="1" fill="none" fill-rule="evenodd">
        <g id="save-sm" fill="#636464">
            <path d="M26.9705806,4.51754353 L23.4814124,1.02837541 C22.8226258,0.369588724 21.929975,0 20.9976509,0 L2.89511167,0 C1.29669264,0 0,1.29564861 0,2.89511167 L0,25.1048883 C0,26.7033074 1.29564861,28 2.89511167,28 L25.1048883,28 C26.7033074,28 28,26.7043514 28,25.1048883 L28,7.00026101 C27.998956,6.06898095 27.6293672,5.17633021 26.9705806,4.51754353 L26.9705806,4.51754353 Z M19.7416757,8.63626533 L8.25728029,8.63626533 L8.25728029,2.08702785 L19.7416757,2.08702785 L19.7416757,8.63626533 L19.7416757,8.63626533 Z M7.0232298,16.8935456 L20.9757262,16.8935456 L20.9757262,25.90984 L7.0232298,25.90984 L7.0232298,16.8935456 L7.0232298,16.8935456 Z M25.9108841,25.1028003 C25.9108841,25.5486036 25.5496476,25.90984 25.1038443,25.90984 L23.062754,25.90984 L23.062754,15.8495097 C23.062754,15.2732018 22.5950259,14.8054737 22.0187181,14.8054737 L5.97919386,14.8054737 C5.40288601,14.8054737 4.93515791,15.2732018 4.93515791,15.8495097 L4.93515791,25.90984 L2.89511167,25.90984 C2.44930833,25.90984 2.08807189,25.5486036 2.08807189,25.1028003 L2.08807189,2.89406764 C2.08807189,2.44826429 2.44930833,2.08702785 2.89511167,2.08702785 L6.1692084,2.08702785 L6.1692084,9.68030128 C6.1692084,10.2566091 6.6369365,10.7243372 7.21324434,10.7243372 L20.7857116,10.7243372 C21.3620195,10.7243372 21.8297476,10.2566091 21.8297476,9.68030128 L21.8297476,2.38771021 C21.8861255,2.42947164 21.9539878,2.45348447 22.0041016,2.50464223 L25.4932697,5.99381036 C25.7605429,6.26108356 25.9108841,6.62336403 25.9108841,7.00130504 L25.9108841,25.1028003 L25.9108841,25.1028003 Z" id="Shape"></path>
            <path d="M10.3760829,20.7000008 L17.6239171,20.7000008 C18.1075148,20.7000008 18.5,20.2520008 18.5,19.7000008 C18.5,19.1480008 18.1075148,18.7000008 17.6239171,18.7000008 L10.3760829,18.7000008 C9.89248516,18.7000008 9.5,19.1480008 9.5,19.7000008 C9.5,20.2520008 9.89160907,20.7000008 10.3760829,20.7000008 L10.3760829,20.7000008 Z" id="Shape"></path>
            <path d="M17.623041,22.2999992 L10.3760829,22.2999992 C9.89248516,22.2999992 9.5,22.7479992 9.5,23.2999992 C9.5,23.8519992 9.89248516,24.2999992 10.3760829,24.2999992 L17.6239171,24.2999992 C18.1075148,24.2999992 18.5,23.8519992 18.5,23.2999992 C18.5,22.7479992 18.1075148,22.2999992 17.623041,22.2999992 L17.623041,22.2999992 Z" id="Shape"></path>
        </g>
    </g>
</svg>