<?xml version="1.0" encoding="UTF-8"?>
<svg width="28px" height="28px" viewBox="0 0 28 28" version="1.1" xmlns="http://www.w3.org/2000/svg" xmlns:xlink="http://www.w3.org/1999/xlink">
    <!-- Generator: sketchtool 40.1 (33804) - http://www.bohemiancoding.com/sketch -->
    <title>search-sm</title>
    <desc>Created with sketchtool.</desc>
    <defs></defs>
    <g id="14pt-icons" stroke="none" stroke-width="1" fill="none" fill-rule="evenodd">
        <g id="search-sm" fill="#636464">
            <g id="Icon---Search-(mini)">
                <path d="M25.5708673,27.8161718 C25.9612817,28.2066147 26.5942578,28.2067475 26.9848359,27.8164685 L27.8159268,26.9860139 C28.2067166,26.5955234 28.2068263,25.9621296 27.8161718,25.5715037 L19.1278991,16.8838673 C18.7374764,16.4934733 18.1045404,16.4933636 17.7139825,16.8836222 L16.8835279,17.7134404 C16.4927582,18.1039107 16.4926252,18.7372647 16.883231,19.1278991 L25.5708673,27.8161718 Z" id="Path"></path>
                <path d="M10.5,2 C5.80545251,2 2,5.80512395 2,10.5 C2,15.1936452 5.80619046,19 10.5,19 C15.1942198,19 19,15.1938912 19,10.5 C19,5.80487798 15.1949577,2 10.5,2 Z M10.5,21 C4.701375,21 0,16.2979687 0,10.5 C0,4.7000625 4.701375,0 10.5,0 C16.2992812,0 21,4.7000625 21,10.5 C21,16.2979687 16.2992812,21 10.5,21 Z" id="Path"></path>
            </g>
        </g>
    </g>
</svg>