<?xml version="1.0" encoding="UTF-8"?>
<svg width="44px" height="44px" viewBox="0 0 44 44" version="1.1" xmlns="http://www.w3.org/2000/svg" xmlns:xlink="http://www.w3.org/1999/xlink">
    <!-- Generator: sketchtool 40.1 (33804) - http://www.bohemiancoding.com/sketch -->
    <title>search</title>
    <desc>Created with sketchtool.</desc>
    <defs></defs>
    <g id="22pt-icons" stroke="none" stroke-width="1" fill="none" fill-rule="evenodd">
        <g id="search" fill="#636464">
            <path d="M33.988413,16.9945926 C33.988413,7.62357432 26.3650119,0 16.9942065,0 C7.62340111,0 0,7.62357432 0,16.9945926 C0,26.3656109 7.62340111,33.9891853 16.9942065,33.9891853 C20.9878451,33.9891853 24.6565943,32.5956287 27.5606043,30.281365 L41.2799273,44 L44,41.2818649 L30.2796774,27.5622302 C32.5948881,24.6581542 33.988413,20.9893216 33.988413,16.9945926 L33.988413,16.9945926 L33.988413,16.9945926 L33.988413,16.9945926 Z M1.99931841,16.9945926 C1.99931841,8.72622347 8.72602522,1.99936384 16.9942065,1.99936384 C25.2623878,1.99936384 31.9890946,8.72622347 31.9890946,16.9945926 C31.9890946,20.9773254 30.4176304,24.5931749 27.875497,27.2813196 L27.2787004,27.8781297 C24.5906168,30.4193211 20.9758491,31.9898214 16.9942065,31.9898214 C8.72602522,31.9898214 1.99931841,25.2629618 1.99931841,16.9945926 L1.99931841,16.9945926 L1.99931841,16.9945926 L1.99931841,16.9945926 Z" id="Shape"></path>
        </g>
    </g>
</svg>