<?xml version="1.0" encoding="UTF-8"?>
<svg width="28px" height="28px" viewBox="0 0 28 28" version="1.1" xmlns="http://www.w3.org/2000/svg" xmlns:xlink="http://www.w3.org/1999/xlink">
    <!-- Generator: sketchtool 40.1 (33804) - http://www.bohemiancoding.com/sketch -->
    <title>search-sm</title>
    <desc>Created with sketchtool.</desc>
    <defs></defs>
    <g id="14pt-icons" stroke="none" stroke-width="1" fill="none" fill-rule="evenodd">
        <g id="search-sm" fill="#636464">
            <path d="M25.4879388,27.7072955 C25.874329,28.0936384 26.5007808,28.0937698 26.8873331,27.7075891 L27.7098577,26.8858552 C28.0966194,26.4994653 28.096728,25.8727228 27.7101001,25.4861989 L19.1113805,16.8897923 C18.7249821,16.5034978 18.09857,16.5033892 17.7120377,16.8895498 L16.8901429,17.7106539 C16.503401,18.0970239 16.5032694,18.723727 16.889849,19.1102592 L25.4879388,27.7072955 Z" id="Path"></path>
            <path d="M10.5,2 C5.80545251,2 2,5.80512395 2,10.5 C2,15.1936452 5.80619046,19 10.5,19 C15.1942198,19 19,15.1938912 19,10.5 C19,5.80487798 15.1949577,2 10.5,2 Z M10.5,21 C4.701375,21 0,16.2979687 0,10.5 C0,4.7000625 4.701375,0 10.5,0 C16.2992812,0 21,4.7000625 21,10.5 C21,16.2979687 16.2992812,21 10.5,21 Z" id="Path"></path>
        </g>
    </g>
</svg>