<?xml version="1.0" encoding="UTF-8"?>
<svg width="28px" height="28px" viewBox="0 0 28 28" version="1.1" xmlns="http://www.w3.org/2000/svg" xmlns:xlink="http://www.w3.org/1999/xlink">
    <!-- Generator: sketchtool 40.1 (33804) - http://www.bohemiancoding.com/sketch -->
    <title>shared-sm</title>
    <desc>Created with sketchtool.</desc>
    <defs></defs>
    <g id="14pt-icons" stroke="none" stroke-width="1" fill="none" fill-rule="evenodd">
        <g id="shared-sm" fill="#636464">
            <path d="M22.431,11.245 C23.557,10.277 24.285,8.867 24.285,7.278 C24.285,4.368 21.892,2 18.952,2 C17.317,2 15.796,2.726 14.778,3.993 C14.432,4.423 14.5,5.053 14.931,5.399 C15.364,5.747 15.992,5.676 16.337,5.246 C16.974,4.454 17.927,4 18.952,4 C20.79,4 22.285,5.47 22.285,7.278 C22.285,9.085 20.792,10.554 18.955,10.556 L18.952,10.556 L18.948,10.556 C18.762,10.556 18.579,10.54 18.401,10.511 C17.853,10.42 17.341,10.791 17.252,11.336 C17.246,11.372 17.258,11.404 17.256,11.44 C17.244,11.519 17.222,11.595 17.23,11.678 C17.279,12.227 17.737,12.625 18.316,12.585 C18.524,12.566 18.735,12.556 18.949,12.556 L18.953,12.556 L18.956,12.556 C22.84,12.557 26,15.672 26,19.5 L26,20.111 C26,20.664 26.447,21.111 27,21.111 C27.553,21.111 28,20.664 28,20.111 L28,19.5 C28,15.786 25.698,12.596 22.431,11.245 L22.431,11.245 Z" id="Shape"></path>
            <path d="M14.662,14.896 C16,13.815 16.857,12.172 16.857,10.334 C16.857,7.087 14.187,4.445 10.904,4.445 C7.621,4.445 4.951,7.087 4.951,10.334 C4.951,12.172 5.808,13.816 7.146,14.896 C2.983,16.414 0,20.364 0,25 C0,25.553 0.448,26 1,26 C1.552,26 2,25.553 2,25 C2,20.16 5.995,16.223 10.905,16.223 C15.815,16.223 19.81,20.161 19.81,25 C19.81,25.553 20.257,26 20.81,26 C21.363,26 21.81,25.553 21.81,25 C21.81,20.364 18.827,16.414 14.662,14.896 L14.662,14.896 Z M6.952,10.333 C6.952,8.188 8.725,6.444 10.905,6.444 C13.085,6.444 14.858,8.189 14.858,10.333 C14.858,12.477 13.085,14.222 10.905,14.222 C8.725,14.222 6.952,12.478 6.952,10.333 L6.952,10.333 Z" id="Shape"></path>
        </g>
    </g>
</svg>