<?xml version="1.0" encoding="UTF-8"?>
<svg width="44px" height="44px" viewBox="0 0 44 44" version="1.1" xmlns="http://www.w3.org/2000/svg" xmlns:xlink="http://www.w3.org/1999/xlink">
    <!-- Generator: sketchtool 40.1 (33804) - http://www.bohemiancoding.com/sketch -->
    <title>shared</title>
    <desc>Created with sketchtool.</desc>
    <defs></defs>
    <g id="22pt-icons" stroke="none" stroke-width="1" fill="none" fill-rule="evenodd">
        <g id="shared" fill="#636464">
            <path d="M34.354,18.702 C36.545,17.273 38,14.805 38,12 C38,7.589 34.411,4 30,4 C27.545,4 25.261,5.104 23.732,7.027 C23.389,7.46 23.461,8.089 23.893,8.432 C24.324,8.774 24.954,8.703 25.298,8.271 C26.444,6.828 28.158,6 29.999,6 C33.308,6 35.999,8.691 35.999,12 C35.999,15.309 33.308,18 29.999,18 C29.666,18 29.334,17.973 29.011,17.919 C28.462,17.822 27.951,18.196 27.86,18.741 C27.855,18.769 27.865,18.795 27.863,18.823 C27.838,18.926 27.818,19.032 27.828,19.144 C27.878,19.693 28.37,20.1 28.914,20.049 C29.271,20.017 29.633,20 29.998,20 C36.615,20 41.998,25.383 41.998,32 L41.998,33 C41.998,33.553 42.446,34 42.998,34 C43.55,34 43.998,33.553 43.998,33 L43.998,32 C44,25.801 39.947,20.538 34.354,18.702 L34.354,18.702 L34.354,18.702 Z" id="Shape"></path>
            <path d="M1,42 C1.552,42 2,41.553 2,41 C2,32.729 8.729,26 17,26 C25.271,26 32,32.729 32,41 C32,41.553 32.448,42 33,42 C33.552,42 34,41.553 34,41 C34,33.252 28.784,26.711 21.683,24.671 C24.267,23.088 26,20.246 26,17 C26,12.037 21.962,8 17,8 C12.038,8 8,12.037 8,17 C8,20.246 9.733,23.088 12.317,24.671 C5.216,26.711 0,33.252 0,41 C0,41.553 0.448,42 1,42 L1,42 L1,42 Z M10,17 C10,13.141 13.14,10 17,10 C20.86,10 24,13.141 24,17 C24,20.859 20.86,24 17,24 C13.14,24 10,20.859 10,17 L10,17 L10,17 Z" id="Shape"></path>
        </g>
    </g>
</svg>