<?xml version="1.0" encoding="UTF-8"?>
<svg width="28px" height="28px" viewBox="0 0 28 28" version="1.1" xmlns="http://www.w3.org/2000/svg" xmlns:xlink="http://www.w3.org/1999/xlink">
    <!-- Generator: sketchtool 40.1 (33804) - http://www.bohemiancoding.com/sketch -->
    <title>sort-asc-sm</title>
    <desc>Created with sketchtool.</desc>
    <defs></defs>
    <g id="14pt-icons" stroke="none" stroke-width="1" fill="none" fill-rule="evenodd">
        <g id="sort-asc-sm" fill="#636464">
            <path d="M14.7168707,1.32737574 C14.6037268,1.22785629 14.6037268,1.22785629 14.5674922,1.21039244 C14.5995731,1.22569283 14.5995731,1.22569283 14.6930646,1.30470197 C14.5250497,1.11762523 14.272801,1 14.0000689,1 C13.7280415,1 13.4767812,1.11692426 13.2970413,1.3144476 C13.3912605,1.22521461 13.3912605,1.22521461 13.4463889,1.20322292 C13.3783176,1.23949389 13.3783176,1.23949389 13.2978427,1.3104712 L7.74407747,7.65333728 C7.39591073,8.05112243 7.42336478,8.66123375 7.80640198,9.02503803 C8.20056274,9.39922888 8.82041359,9.37022279 9.179491,8.96016563 L13.9147728,3.55047722 L13.0385466,3.22115385 L13.0385466,26.0192308 C13.0385466,26.5562907 13.4644926,27 14.0000689,27 C14.5356451,27 14.9615911,26.5562907 14.9615911,26.0192308 L14.9615911,3.22115385 L14.0853967,3.55051356 L18.8215376,8.96012895 C19.0042432,9.16987727 19.2652917,9.2875 19.5383354,9.2875 C19.7794263,9.2875 20.0131283,9.19554251 20.1926361,9.02607931 C20.5772324,8.6607974 20.6041468,8.04995069 20.2543013,7.65238492 L14.7168707,1.32737574 Z M19.5383354,8.2875 C19.5530705,8.2875 19.5674597,8.29398344 19.5747517,8.3023547 L14.8377854,2.89179413 L13.9615911,1.89100584 L13.9615911,3.22115385 L13.9615911,26.0192308 C13.9615911,26.0129401 13.9740131,26 14.0000689,26 C14.0261246,26 14.0385466,26.0129401 14.0385466,26.0192308 L14.0385466,3.22115385 L14.0385466,1.89081075 L13.1623205,2.89183047 L8.42710264,8.30144586 C8.44211426,8.28430295 8.47686322,8.28267687 8.49498445,8.29987999 C8.50137027,8.30594515 14.0347409,1.9860858 14.0347409,1.9860858 C13.941639,2.07140354 13.941639,2.07140354 13.8924903,2.09804773 C13.9392085,2.08031424 13.9392085,2.08031424 14.0879898,1.92048165 C14.0313873,1.99326812 14.016921,2 14.0000689,2 C13.9827702,2 13.967344,1.99280668 13.9607119,1.9854374 C14.0693103,2.07983602 14.0693103,2.07983602 14.1055449,2.09729986 C14.073464,2.08199948 14.073464,2.08199948 13.9799725,2.00299034 L19.5027403,8.31204733 C19.5131745,8.29230494 19.5253858,8.2875 19.5383354,8.2875 Z" id="Shape"></path>
        </g>
    </g>
</svg>