<?xml version="1.0" encoding="UTF-8"?>
<svg width="28px" height="28px" viewBox="0 0 28 28" version="1.1" xmlns="http://www.w3.org/2000/svg" xmlns:xlink="http://www.w3.org/1999/xlink">
    <!-- Generator: sketchtool 40.1 (33804) - http://www.bohemiancoding.com/sketch -->
    <title>sort-asc-sm</title>
    <desc>Created with sketchtool.</desc>
    <defs></defs>
    <g id="14pt-icons" stroke="none" stroke-width="1" fill="none" fill-rule="evenodd">
        <g id="sort-asc-sm" fill="#636464">
            <path d="M14.7168707,1.82737574 C14.6037268,1.72785629 14.6037268,1.72785629 14.5674922,1.71039244 C14.5995731,1.72569283 14.5995731,1.72569283 14.6930646,1.80470197 C14.5250497,1.61762523 14.272801,1.5 14.0000689,1.5 C13.7280415,1.5 13.4767812,1.61692426 13.2970413,1.8144476 C13.3912605,1.72521461 13.3912605,1.72521461 13.4463889,1.70322292 C13.3783176,1.73949389 13.3783176,1.73949389 13.2978427,1.8104712 L7.74407747,8.15333728 C7.39591073,8.55112243 7.42336478,9.16123375 7.80640198,9.52503803 C8.20056274,9.89922888 8.82041359,9.87022279 9.179491,9.46016563 L13.9147728,4.05047722 L13.0385466,3.72115385 L13.0385466,26.5192308 C13.0385466,27.0562907 13.4644926,27.5 14.0000689,27.5 C14.5356451,27.5 14.9615911,27.0562907 14.9615911,26.5192308 L14.9615911,3.72115385 L14.0853967,4.05051356 L18.8215376,9.46012895 C19.0042432,9.66987727 19.2652917,9.7875 19.5383354,9.7875 C19.7794263,9.7875 20.0131283,9.69554251 20.1926361,9.52607931 C20.5772324,9.1607974 20.6041468,8.54995069 20.2543013,8.15238492 L14.7168707,1.82737574 Z M19.5383354,8.7875 C19.5530705,8.7875 19.5674597,8.79398344 19.5747517,8.8023547 L14.8377854,3.39179413 L13.9615911,2.39100584 L13.9615911,3.72115385 L13.9615911,26.5192308 C13.9615911,26.5129401 13.9740131,26.5 14.0000689,26.5 C14.0261246,26.5 14.0385466,26.5129401 14.0385466,26.5192308 L14.0385466,3.72115385 L14.0385466,2.39081075 L13.1623205,3.39183047 L8.42710264,8.80144586 C8.44211426,8.78430295 8.47686322,8.78267687 8.49498445,8.79987999 C8.50137027,8.80594515 14.0347409,2.4860858 14.0347409,2.4860858 C13.941639,2.57140354 13.941639,2.57140354 13.8924903,2.59804773 C13.9392085,2.58031424 13.9392085,2.58031424 14.0879898,2.42048165 C14.0313873,2.49326812 14.016921,2.5 14.0000689,2.5 C13.9827702,2.5 13.967344,2.49280668 13.9607119,2.4854374 C14.0693103,2.57983602 14.0693103,2.57983602 14.1055449,2.59729986 C14.073464,2.58199948 14.073464,2.58199948 13.9799725,2.50299034 L19.5027403,8.81204733 C19.5131745,8.79230494 19.5253858,8.7875 19.5383354,8.7875 Z" id="Shape"></path>
        </g>
    </g>
</svg>