<?xml version="1.0" encoding="UTF-8"?>
<svg width="28px" height="28px" viewBox="0 0 28 28" version="1.1" xmlns="http://www.w3.org/2000/svg" xmlns:xlink="http://www.w3.org/1999/xlink">
    <!-- Generator: sketchtool 40.1 (33804) - http://www.bohemiancoding.com/sketch -->
    <title>sort-desc-sm</title>
    <desc>Created with sketchtool.</desc>
    <defs></defs>
    <g id="14pt-icons" stroke="none" stroke-width="1" fill="none" fill-rule="evenodd">
        <g id="sort-desc-sm" fill="#636464">
            <path d="M14.0533509,24.4862381 L14.928313,24.817 L14.928313,2 C14.928313,1.46349483 14.5310307,1 13.9997404,1 C13.4684502,1 13.0711679,1.46349483 13.0711679,2 L13.0711679,24.817 L13.9461299,24.4862381 L9.10240304,18.9952381 C8.72990328,18.5716295 8.09571929,18.582457 7.73610143,19.0173864 C7.41420468,19.4026505 7.4216622,19.9965987 7.75538535,20.3741431 L13.3222348,26.6837945 C13.3718799,26.7392176 13.418122,26.7749475 13.4546547,26.7979972 C13.5045935,26.8450934 13.5434528,26.8750862 13.6181457,26.9117774 C13.7415604,26.9708181 13.8698971,27.001 14.0005976,27.001 C14.1319715,27.001 14.2623368,26.9704618 14.3811939,26.9126842 C14.464219,26.8719047 14.5090907,26.8365478 14.5797398,26.7720202 C14.5399292,26.8032286 14.5399292,26.8032286 14.5364624,26.8047134 C14.5803117,26.7786288 14.5803117,26.7786288 14.6785119,26.6843962 C14.677674,26.6853738 16.2236179,24.9330827 17.4599217,23.531793 C19.5495811,21.1632756 19.5495811,21.1632756 20.2461184,20.3737936 C20.5788712,19.995437 20.5848309,19.4021176 20.2617429,19.0154174 C19.9041466,18.5829227 19.2723258,18.5728448 18.8982436,18.9939212 L14.0533509,24.4862381 Z M19.4927035,19.6546136 C18.7997118,20.5016895 18.7997118,20.5016895 16.710097,22.8701565 C14.4669358,25.4126696 13.9238429,26.0282527 13.9192562,26.0336038 C13.9918479,25.9643095 13.9918479,25.9643095 14.0061148,25.9569321 C13.9802209,25.9725055 13.9802209,25.9725055 13.9140323,26.0257194 C13.960205,26.0054395 13.9791567,26.001 14.0005976,26.001 C14.0220036,26.001 14.0406123,26.0053763 14.0542808,26.0119118 C14.0914393,26.0301338 14.0996261,26.0364526 14.1008185,26.0375056 C14.0362089,25.9840496 14.0362089,25.9840496 14.0155497,25.9701103 C14.0157423,25.9690794 14.0442613,25.9911151 14.0695354,26.0193195 L8.50494422,19.7122055 C8.47487942,19.6931917 8.3858493,19.6947117 8.35196339,19.6561766 L13.1962058,25.1477619 L14.0711679,26.1396462 L14.0711679,24.817 L14.0711679,2 C14.0711679,1.98450517 14.0578866,2 13.9997404,2 C13.9415943,2 13.928313,1.98450517 13.928313,2 L13.928313,24.817 L13.928313,26.1396462 L14.803275,25.1477619 L19.6470019,19.6567619 C19.6131902,19.6948259 19.5247867,19.6934158 19.4927035,19.6546136 Z" id="Shape"></path>
        </g>
    </g>
</svg>