<?xml version="1.0" encoding="UTF-8"?>
<svg width="28px" height="28px" viewBox="0 0 28 28" version="1.1" xmlns="http://www.w3.org/2000/svg" xmlns:xlink="http://www.w3.org/1999/xlink">
    <!-- Generator: sketchtool 40.1 (33804) - http://www.bohemiancoding.com/sketch -->
    <title>sort-desc-sm</title>
    <desc>Created with sketchtool.</desc>
    <defs></defs>
    <g id="14pt-icons" stroke="none" stroke-width="1" fill="none" fill-rule="evenodd">
        <g id="sort-desc-sm" fill="#636464">
            <path d="M14.0533509,24.9862381 L14.928313,25.317 L14.928313,2.5 C14.928313,1.96349483 14.5310307,1.5 13.9997404,1.5 C13.4684502,1.5 13.0711679,1.96349483 13.0711679,2.5 L13.0711679,25.317 L13.9461299,24.9862381 L9.10240304,19.4952381 C8.72990328,19.0716295 8.09571929,19.082457 7.73610143,19.5173864 C7.41420468,19.9026505 7.4216622,20.4965987 7.75538535,20.8741431 L13.3222348,27.1837945 C13.3718799,27.2392176 13.418122,27.2749475 13.4546547,27.2979972 C13.5045935,27.3450934 13.5434528,27.3750862 13.6181457,27.4117774 C13.7415604,27.4708181 13.8698971,27.501 14.0005976,27.501 C14.1319715,27.501 14.2623368,27.4704618 14.3811939,27.4126842 C14.464219,27.3719047 14.5090907,27.3365478 14.5797398,27.2720202 C14.5399292,27.3032286 14.5399292,27.3032286 14.5364624,27.3047134 C14.5803117,27.2786288 14.5803117,27.2786288 14.6785119,27.1843962 C14.677674,27.1853738 16.2236179,25.4330827 17.4599217,24.031793 C19.5495811,21.6632756 19.5495811,21.6632756 20.2461184,20.8737936 C20.5788712,20.495437 20.5848309,19.9021176 20.2617429,19.5154174 C19.9041466,19.0829227 19.2723258,19.0728448 18.8982436,19.4939212 L14.0533509,24.9862381 Z M19.4927035,20.1546136 C18.7997118,21.0016895 18.7997118,21.0016895 16.710097,23.3701565 C14.4669358,25.9126696 13.9238429,26.5282527 13.9192562,26.5336038 C13.9918479,26.4643095 13.9918479,26.4643095 14.0061148,26.4569321 C13.9802209,26.4725055 13.9802209,26.4725055 13.9140323,26.5257194 C13.960205,26.5054395 13.9791567,26.501 14.0005976,26.501 C14.0220036,26.501 14.0406123,26.5053763 14.0542808,26.5119118 C14.0914393,26.5301338 14.0996261,26.5364526 14.1008185,26.5375056 C14.0362089,26.4840496 14.0362089,26.4840496 14.0155497,26.4701103 C14.0157423,26.4690794 14.0442613,26.4911151 14.0695354,26.5193195 L8.50494422,20.2122055 C8.47487942,20.1931917 8.3858493,20.1947117 8.35196339,20.1561766 L13.1962058,25.6477619 L14.0711679,26.6396462 L14.0711679,25.317 L14.0711679,2.5 C14.0711679,2.48450517 14.0578866,2.5 13.9997404,2.5 C13.9415943,2.5 13.928313,2.48450517 13.928313,2.5 L13.928313,25.317 L13.928313,26.6396462 L14.803275,25.6477619 L19.6470019,20.1567619 C19.6131902,20.1948259 19.5247867,20.1934158 19.4927035,20.1546136 Z" id="Shape"></path>
        </g>
    </g>
</svg>