<?xml version="1.0" encoding="UTF-8"?>
<svg width="44px" height="44px" viewBox="0 0 44 44" version="1.1" xmlns="http://www.w3.org/2000/svg" xmlns:xlink="http://www.w3.org/1999/xlink">
    <!-- Generator: sketchtool 40.1 (33804) - http://www.bohemiancoding.com/sketch -->
    <title>spec-doc</title>
    <desc>Created with sketchtool.</desc>
    <defs></defs>
    <g id="22pt-icons" stroke="none" stroke-width="1" fill="none" fill-rule="evenodd">
        <g id="spec-doc" fill="#636464">
            <path d="M28.707,0.293 C28.52,0.105 28.266,0 28,0 L7,0 C5.346,0 4,1.346 4,3 L4,41 C4,42.654 5.346,44 7,44 L35,44 C36.654,44 38,42.654 38,41 L38,10 C38,9.734 37.895,9.48 37.707,9.293 L28.707,0.293 L28.707,0.293 L28.707,0.293 L28.707,0.293 Z M35.586,10 L29,10 C28.448,10 28,9.552 28,9 L28,2.414 L35.586,10 L35.586,10 L35.586,10 L35.586,10 Z M35,42 L7,42 C6.448,42 6,41.552 6,41 L6,3 C6,2.448 6.448,2 7,2 L26,2 L26,9 C26,10.654 27.346,12 29,12 L36,12 L36,41 C36,41.552 35.552,42 35,42 L35,42 L35,42 L35,42 Z" id="Shape"></path>
            <path d="M15.7067744,20.2932427 C15.315807,19.9022524 14.6838597,19.9022524 14.2928923,20.2932427 L10.2932256,24.2931427 C9.90225815,24.6841329 9.90225815,25.3161171 10.2932256,25.7071073 L14.2928923,29.7070073 C14.487876,29.9020024 14.7438547,30 14.9998333,30 C15.255812,30 15.5117907,29.9020024 15.7067744,29.7070073 C16.0977419,29.3160171 16.0977419,28.6840329 15.7067744,28.2930427 L12.4140488,25.000125 L15.7067744,21.7072073 C16.0977419,21.3162171 16.0977419,20.6842329 15.7067744,20.2932427 L15.7067744,20.2932427 L15.7067744,20.2932427 L15.7067744,20.2932427 Z" id="Shape"></path>
            <path d="M27.7071077,20.2932427 C27.3161403,19.9022524 26.684193,19.9022524 26.2932256,20.2932427 C25.9022581,20.6842329 25.9022581,21.3162171 26.2932256,21.7072073 L29.5859512,25.000125 L26.2932256,28.2930427 C25.9022581,28.6840329 25.9022581,29.3160171 26.2932256,29.7070073 C26.4882093,29.9020024 26.744188,30 27.0001667,30 C27.2561453,30 27.512124,29.9020024 27.7071077,29.7070073 L31.7067744,25.7071073 C32.0977419,25.3161171 32.0977419,24.6841329 31.7067744,24.2931427 L27.7071077,20.2932427 L27.7071077,20.2932427 L27.7071077,20.2932427 L27.7071077,20.2932427 Z" id="Shape"></path>
            <path d="M23.3167386,18.0521568 C22.7877424,17.8761714 22.2257464,18.1601479 22.0517476,18.6841044 L18.051776,30.6831092 C17.8767773,31.2070658 18.1597753,31.7740187 18.6837716,31.9480043 C18.7887708,31.9830014 18.89577,32 18.9997693,32 C19.4187663,32 19.8087635,31.735022 19.9477626,31.3160567 L23.9477341,19.3170519 C24.1237329,18.7920955 23.8407349,18.2261424 23.3167386,18.0521568 L23.3167386,18.0521568 L23.3167386,18.0521568 L23.3167386,18.0521568 Z" id="Shape"></path>
        </g>
    </g>
</svg>