<?xml version="1.0" encoding="UTF-8"?>
<svg width="44px" height="44px" viewBox="0 0 44 44" version="1.1" xmlns="http://www.w3.org/2000/svg" xmlns:xlink="http://www.w3.org/1999/xlink">
    <!-- Generator: sketchtool 40.1 (33804) - http://www.bohemiancoding.com/sketch -->
    <title>spec-folder</title>
    <desc>Created with sketchtool.</desc>
    <defs></defs>
    <g id="22pt-icons" stroke="none" stroke-width="1" fill="none" fill-rule="evenodd">
        <g id="spec-folder" fill="#636464">
            <path d="M42.9995596,12.2304824 L39.8095923,12.2304824 L39.8095923,10.2292328 C39.7990348,9.13053428 39.3527041,8.08103809 38.5687988,7.31164752 C37.7848936,6.54225695 36.7276353,6.11600437 35.6296351,6.12667109 L20.9997849,6.12667109 C19.6467005,6.32127702 18.3116873,5.67118442 17.6298194,4.48564641 C16.5618748,2.78569289 14.627454,1.83335345 12.6298706,2.02410939 L4.18995708,2.02410939 C1.91880028,1.99612709 0.0492045606,3.80440185 0,6.07663985 L0,38.8971335 C0.010545297,39.9975848 0.458251882,41.048612 1.24432692,41.8182908 C2.03040196,42.5879697 3.09023439,43.0130368 4.18995708,42.9996952 L39.8095923,42.9996952 C40.909315,43.0130368 41.9691474,42.5879697 42.7552224,41.8182908 C43.5412975,41.048612 43.989004,39.9975848 43.9995493,38.8971335 L43.9995493,13.261126 C44.0076642,12.9905816 43.9059018,12.7282881 43.7174806,12.534091 C43.5290594,12.3398939 43.2700539,12.2303606 42.9995596,12.2304824 L42.9995596,12.2304824 Z M2.0799787,38.8971335 L2.0799787,6.07663985 C2.07453187,5.5159426 2.29540974,4.97676548 2.69258974,4.58121682 C3.08976973,4.18566816 3.62964788,3.96721391 4.18995708,3.97532776 L12.5698713,3.97532776 C13.9229556,3.78072184 15.2579688,4.43081443 15.9398367,5.61635244 C17.0077814,7.31630597 18.9422022,8.26864541 20.9397855,8.07788946 L35.6196352,8.07788946 C36.7494484,8.06075025 37.686284,8.94931006 37.7296136,10.0791391 L37.7296136,12.0803887 L5.23994633,12.0803887 C4.68766724,12.0803887 4.23995657,12.5283837 4.23995657,13.0810135 L4.23995657,40.9984455 C3.67109651,41.0203855 3.11811025,40.808058 2.70993762,40.4109715 C2.30176499,40.013885 2.07408243,39.4667469 2.0799787,38.8971335 L2.0799787,38.8971335 Z M41.9095707,38.8971335 C41.8662412,40.0269625 40.9294056,40.9155223 39.7995924,40.8983831 L6.26993578,40.8983831 L6.26993578,14.2817633 L41.9195706,14.2817633 L41.9095707,38.8971335 Z" id="Shape"></path>
            <path d="M16.3071299,32.6918626 C16.4878349,32.8884441 16.7404238,33 17.0048261,33 C17.2692284,33 17.5218173,32.8884441 17.7025223,32.6918626 C17.8924589,32.5080876 18,32.2529607 18,31.9861363 C18,31.719312 17.8924589,31.4641851 17.7025223,31.2804101 L14.4434208,28.0292025 L14.4434208,27.9707975 L17.7025223,24.7195899 C17.8924589,24.5358149 18,24.280688 18,24.0138637 C18,23.7470393 17.8924589,23.4919124 17.7025223,23.3081374 C17.5218173,23.1115559 17.2692284,23 17.0048261,23 C16.7404238,23 16.4878349,23.1115559 16.3071299,23.3081374 L12.3025448,27.2991409 C12.1095312,27.4831862 12,27.7404443 12,28.0097342 C12,28.279024 12.1095312,28.5362821 12.3025448,28.7203274 L16.3071299,32.6918626 Z" id="Shape"></path>
            <path d="M29.2974777,31.2837514 C29.1075411,31.4671693 29,31.7218004 29,31.9881063 C29,32.2544122 29.1075411,32.5090434 29.2974777,32.6924613 C29.4781827,32.8886609 29.7307716,33 29.9951739,33 C30.2595762,33 30.5121651,32.8886609 30.6928701,32.6924613 L34.6974552,28.7092126 C34.8904688,28.5255248 35,28.2687666 35,28 C35,27.7312334 34.8904688,27.4744752 34.6974552,27.2907874 L30.6928701,23.3075387 C30.5121651,23.1113391 30.2595762,23 29.9951739,23 C29.7307716,23 29.4781827,23.1113391 29.2974777,23.3075387 C29.1075411,23.4909566 29,23.7455878 29,24.0118937 C29,24.2781996 29.1075411,24.5328307 29.2974777,24.7162486 L32.4992343,27.9125628 L32.4992343,28.0971524 L29.2974777,31.2837514 Z" id="Shape"></path>
            <path d="M21.6929608,34.9310326 C21.9420119,35.0324558 22.2213242,35.0216108 22.4621493,34.9011669 C22.7029744,34.7807231 22.8829458,34.5618664 22.9577664,34.2984653 L26.9423797,22.3283441 C27.0320213,22.0769517 27.0165489,21.7988777 26.8996016,21.5595232 C26.7826542,21.3201686 26.5745529,21.1406574 26.3242416,21.0632093 C26.0787023,20.9679415 25.8055975,20.9808133 25.5696547,21.0987738 C25.3337119,21.2167343 25.155934,21.4292832 25.0784556,21.6860449 L21.0558031,33.6658979 C20.9668052,33.9199077 20.9848632,34.2003295 21.1056643,34.4401911 C21.2264653,34.6800526 21.4391636,34.8578182 21.6929608,34.9310326 L21.6929608,34.9310326 Z" id="Shape"></path>
        </g>
    </g>
</svg>