<?xml version="1.0" encoding="UTF-8"?>
<svg width="44px" height="44px" viewBox="0 0 44 44" version="1.1" xmlns="http://www.w3.org/2000/svg" xmlns:xlink="http://www.w3.org/1999/xlink">
    <!-- Generator: sketchtool 40.1 (33804) - http://www.bohemiancoding.com/sketch -->
    <title>support</title>
    <desc>Created with sketchtool.</desc>
    <defs></defs>
    <g id="22pt-icons" stroke="none" stroke-width="1" fill="none" fill-rule="evenodd">
        <g id="support" fill="#636464">
            <path d="M40.385,34.923 C40.385,37.939 37.939,40.385 34.923,40.385 C34.667,40.385 34.415,40.364 34.166,40.329 C36.607,38.705 38.705,36.607 40.329,34.166 C40.364,34.415 40.385,34.667 40.385,34.923 M13.59,40.127 L17.292,33.371 C18.743,33.973 20.332,34.308 22,34.308 C23.668,34.308 25.257,33.973 26.708,33.371 L30.41,40.127 C27.851,41.317 25.008,42 22,42 C18.992,42 16.149,41.317 13.59,40.127 M9.077,40.385 C6.061,40.385 3.615,37.939 3.615,34.923 C3.615,34.667 3.636,34.415 3.671,34.166 C5.295,36.607 7.393,38.705 9.834,40.329 C9.585,40.364 9.333,40.385 9.077,40.385 M3.882,13.571 L10.698,17.127 C10.053,18.622 9.692,20.268 9.692,22 C9.692,23.732 10.053,25.378 10.698,26.873 L3.882,30.429 C2.687,27.865 2,25.016 2,22 C2,18.984 2.687,16.135 3.882,13.571 M3.615,9.077 C3.615,6.061 6.061,3.615 9.077,3.615 C9.333,3.615 9.585,3.636 9.834,3.671 C7.393,5.295 5.295,7.393 3.671,9.834 C3.636,9.585 3.615,9.333 3.615,9.077 M30.41,3.873 L26.708,10.629 C25.257,10.027 23.668,9.692 22,9.692 C20.332,9.692 18.743,10.027 17.292,10.629 L13.59,3.873 C16.149,2.683 18.992,2 22,2 C25.008,2 27.851,2.683 30.41,3.873 M34.923,3.615 C37.939,3.615 40.385,6.061 40.385,9.077 C40.385,9.333 40.364,9.585 40.329,9.834 C38.705,7.393 36.607,5.295 34.166,3.671 C34.415,3.636 34.667,3.615 34.923,3.615 M32.356,28.635 L39.183,32.197 C37.47,35.077 35.061,37.484 32.179,39.194 L28.483,32.449 C30.041,31.48 31.365,30.178 32.356,28.635 M28.483,11.551 L32.179,4.806 C35.061,6.516 37.47,8.923 39.183,11.803 L32.356,15.365 C31.365,13.822 30.041,12.52 28.483,11.551 M11.692,22 C11.692,16.306 16.306,11.692 22,11.692 C27.694,11.692 32.308,16.306 32.308,22 C32.308,27.694 27.694,32.308 22,32.308 C16.306,32.308 11.692,27.694 11.692,22 M15.517,32.449 L11.821,39.194 C8.939,37.484 6.53,35.077 4.817,32.197 L11.644,28.635 C12.635,30.178 13.959,31.48 15.517,32.449 M11.644,15.365 L4.817,11.803 C6.53,8.923 8.939,6.516 11.821,4.806 L15.517,11.551 C13.959,12.52 12.635,13.822 11.644,15.365 M40.118,30.429 L33.302,26.873 C33.947,25.378 34.308,23.732 34.308,22 C34.308,20.268 33.947,18.622 33.302,17.127 L40.118,13.571 C41.313,16.135 42,18.984 42,22 C42,25.016 41.313,27.865 40.118,30.429 M44,22 C44,18.473 43.165,15.143 41.69,12.188 C42.136,11.22 42.385,10.167 42.385,9.077 C42.385,4.957 39.043,1.615 34.923,1.615 C33.833,1.615 32.78,1.864 31.812,2.31 C28.857,0.835 25.527,0 22,0 C18.473,0 15.143,0.835 12.188,2.31 C11.22,1.864 10.167,1.615 9.077,1.615 C4.957,1.615 1.615,4.957 1.615,9.077 C1.615,10.167 1.864,11.22 2.31,12.188 C0.835,15.143 0,18.473 0,22 C0,25.527 0.835,28.857 2.31,31.812 C1.864,32.78 1.615,33.833 1.615,34.923 C1.615,39.043 4.957,42.385 9.077,42.385 C10.167,42.385 11.22,42.136 12.188,41.69 C15.143,43.165 18.473,44 22,44 C25.527,44 28.857,43.165 31.812,41.69 C32.78,42.136 33.833,42.385 34.923,42.385 C39.043,42.385 42.385,39.043 42.385,34.923 C42.385,33.833 42.136,32.78 41.69,31.812 C43.165,28.857 44,25.527 44,22" id="Page-1"></path>
        </g>
    </g>
</svg>