<?xml version="1.0" encoding="UTF-8"?>
<svg width="44px" height="44px" viewBox="0 0 44 44" version="1.1" xmlns="http://www.w3.org/2000/svg" xmlns:xlink="http://www.w3.org/1999/xlink">
    <!-- Generator: sketchtool 40.1 (33804) - http://www.bohemiancoding.com/sketch -->
    <title>team</title>
    <desc>Created with sketchtool.</desc>
    <defs></defs>
    <g id="22pt-icons" stroke="none" stroke-width="1" fill="none" fill-rule="evenodd">
        <g id="team" fill="#636464">
            <path d="M21,8.667 C23.1496657,8.667 24.907518,9.0452636 26.5413205,9.88860175 C27.0320817,10.1419235 27.63528,9.94944074 27.8886018,9.45867955 C28.1419235,8.96791835 27.9494407,8.36471997 27.4586795,8.11139825 C25.5236514,7.11257302 23.4530013,6.667 21,6.667 C18.5655456,6.667 16.5309722,7.10708176 14.5493995,8.10727428 C14.0563607,8.35613406 13.8584145,8.95756168 14.1072743,9.45060048 C14.3561341,9.94363928 14.9575617,10.1415855 15.4506005,9.89272572 C17.1390303,9.04049612 18.8657669,8.667 21,8.667 Z" id="Stroke-80"></path>
            <path d="M26.4698851,28.1520742 C26.0015886,28.4448486 25.8592998,29.0618185 26.1520742,29.5301149 C26.4448486,29.9984114 27.0618185,30.1407002 27.5301149,29.8479258 C30.6716938,27.8838413 33.4089957,24.4059637 33.9845005,21.1753816 C34.0813611,20.631657 33.7191063,20.1123601 33.1753816,20.0154995 C32.631657,19.9186389 32.1123601,20.2808937 32.0154995,20.8246184 C31.5497438,23.4391265 29.1680168,26.4652285 26.4698851,28.1520742 Z" id="Stroke-81"></path>
            <path d="M9.98453509,20.8248125 C9.8877817,20.2810688 9.36855621,19.9187115 8.8248125,20.0154649 C8.28106878,20.1122183 7.91871153,20.6314438 8.01546491,21.1751875 C8.58994962,24.4037304 11.3287928,27.883398 14.46974,29.8478351 C14.9379864,30.1406896 15.5549806,29.9985064 15.8478351,29.53026 C16.1406896,29.0620136 15.9985064,28.4450194 15.53026,28.1521649 C12.8326544,26.4650062 10.4493554,23.4370532 9.98453509,20.8248125 Z" id="Stroke-82"></path>
            <path d="M14,29 L15,28 L11,28 C10.4477153,28 10,28.4477153 10,29 C10,29.5522847 10.4477153,30 11,30 L15,30 C15.5522847,30 16,29.5522847 16,29 L16,25 C16,24.4477153 15.5522847,24 15,24 C14.4477153,24 14,24.4477153 14,25 L14,29 Z" id="Stroke-83"></path>
            <path d="M33.4246004,21.9054746 L32.1485417,21.5240974 L34.1485417,24.7740974 C34.4379927,25.2444553 35.0539395,25.3911093 35.5242974,25.1016583 C35.9946553,24.8122073 36.1413093,24.1962605 35.8518583,23.7259026 L33.8518583,20.4759026 C33.585345,20.0428184 33.0362504,19.8787098 32.5757996,20.0945254 L29.1087996,21.7195254 C28.6087198,21.9539153 28.3933355,22.5493206 28.6277254,23.0494004 C28.8621153,23.5494802 29.4575206,23.7648645 29.9576004,23.5304746 L33.4246004,21.9054746 Z" id="Stroke-84"></path>
            <path d="M14.1146883,8.53595517 C13.8577523,9.02641844 14.0482568,9.63230001 14.5396398,9.88747275 L17.8306398,11.5964727 C18.3207775,11.8509988 18.9244467,11.6599979 19.1789727,11.1698602 C19.4334988,10.6797225 19.2424979,10.0760533 18.7523602,9.82152725 L15.4613602,8.11252725 L15.8863117,9.46404483 L17.7193117,5.96504483 C17.9755966,5.47582453 17.7867651,4.87147317 17.2975448,4.61518829 C16.8083245,4.3589034 16.2039732,4.54773487 15.9476883,5.03695517 L14.1146883,8.53595517 Z" id="Stroke-85"></path>
            <path d="M34.999,10 C33.8948724,10 33,9.10430303 33,7.999 C33,6.89428475 33.8942847,6 34.999,6 C36.104303,6 37,6.89487239 37,7.999 C37,9.10371525 36.1037153,10 34.999,10 Z M34.999,4 C32.7897153,4 31,5.78971525 31,7.999 C31,10.2084604 32.7898903,12 34.999,12 C37.2082847,12 39,10.2082847 39,7.999 C39,5.78989033 37.2084604,4 34.999,4 Z" id="Stroke-86"></path>
            <path d="M35,12 C37.7610864,12 40,14.2386559 40,17 C40,17.5522847 40.4477153,18 41,18 C41.5522847,18 42,17.5522847 42,17 C42,13.1340348 38.8656044,10 35,10 C31.1337153,10 28,13.1337153 28,17 C28,17.5522847 28.4477153,18 29,18 C29.5522847,18 30,17.5522847 30,17 C30,14.2382847 32.2382847,12 35,12 Z" id="Stroke-87"></path>
            <path d="M6.999,10 C5.89487239,10 5,9.10430303 5,7.999 C5,6.89428475 5.89428475,6 6.999,6 C8.10430303,6 9,6.89487239 9,7.999 C9,9.10371525 8.10371525,10 6.999,10 Z M6.999,4 C4.78971525,4 3,5.78971525 3,7.999 C3,10.2084604 4.78989033,12 6.999,12 C9.20828475,12 11,10.2082847 11,7.999 C11,5.78989033 9.20846039,4 6.999,4 Z" id="Stroke-88"></path>
            <path d="M7,12 C9.7610864,12 12,14.2386559 12,17 C12,17.5522847 12.4477153,18 13,18 C13.5522847,18 14,17.5522847 14,17 C14,13.1340348 10.8656044,10 7,10 C3.13371525,10 0,13.1337153 0,17 C0,17.5522847 0.44771525,18 1,18 C1.55228475,18 2,17.5522847 2,17 C2,14.2382847 4.23828475,12 7,12 Z" id="Stroke-89"></path>
            <path d="M20.999,34 C19.8948724,34 19,33.104303 19,31.999 C19,30.8942847 19.8942847,30 20.999,30 C22.104303,30 23,30.8948724 23,31.999 C23,33.1037153 22.1037153,34 20.999,34 Z M20.999,28 C18.7897153,28 17,29.7897153 17,31.999 C17,34.2084604 18.7898903,36 20.999,36 C23.2082847,36 25,34.2082847 25,31.999 C25,29.7898903 23.2084604,28 20.999,28 Z" id="Stroke-90"></path>
            <path d="M21,36 C23.7610864,36 26,38.2386559 26,41 C26,41.5522847 26.4477153,42 27,42 C27.5522847,42 28,41.5522847 28,41 C28,37.1340348 24.8656044,34 21,34 C17.1337153,34 14,37.1337153 14,41 C14,41.5522847 14.4477153,42 15,42 C15.5522847,42 16,41.5522847 16,41 C16,38.2382847 18.2382847,36 21,36 Z" id="Stroke-91"></path>
        </g>
    </g>
</svg>