<?xml version="1.0" encoding="UTF-8"?>
<svg width="44px" height="44px" viewBox="0 0 44 44" version="1.1" xmlns="http://www.w3.org/2000/svg" xmlns:xlink="http://www.w3.org/1999/xlink">
    <!-- Generator: sketchtool 40.1 (33804) - http://www.bohemiancoding.com/sketch -->
    <title>team-alt</title>
    <desc>Created with sketchtool.</desc>
    <defs></defs>
    <g id="22pt-icons" stroke="none" stroke-width="1" fill="none" fill-rule="evenodd">
        <g id="team-alt" fill="#636464">
            <path d="M22,24 C18.6860498,24 16,21.3144803 16,18.001 C16,14.6870498 18.6865196,12 22,12 C25.3134804,12 28,14.6870498 28,18.001 C28,21.3144803 25.3139502,24 22,24 Z M22,10 C17.5818618,10 14,13.5825687 14,18.001 C14,22.4191382 17.5815686,26 22,26 C26.4184314,26 30,22.4191382 30,18.001 C30,13.5825687 26.4181382,10 22,10 Z" id="Stroke-100"></path>
            <path d="M22,26 C29.6892188,26 35.6254269,31.4091693 36.0012075,39.0491268 C36.0283394,39.6007447 36.4975089,40.0259245 37.0491268,39.9987925 C37.6007447,39.9716606 38.0259245,39.5024911 37.9987925,38.9508732 C37.5696566,30.2261537 30.7368618,24 22,24 C13.2631382,24 6.43034337,30.2261537 6.00120745,38.9508732 C5.97407546,39.5024911 6.39925528,39.9716606 6.95087318,39.9987925 C7.50249107,40.0259245 7.97166055,39.6007447 7.99879255,39.0491268 C8.37457313,31.4091693 14.3107812,26 22,26 Z" id="Stroke-101"></path>
            <path d="M8.0004,13 C8.0004,10.2389136 10.2390559,8 13.0004,8 C14.1568444,8 15.2510426,8.39316002 16.1330322,9.1037231 C16.5631091,9.45020876 17.1926374,9.38244468 17.5391231,8.95236778 C17.8856088,8.52229089 17.8178447,7.89276256 17.3877678,7.5462769 C16.153463,6.55187587 14.6175449,6 13.0004,6 C9.13443482,6 6.0004,9.13439564 6.0004,13 C6.0004,16.001055 7.90560987,18.6388837 10.6941448,19.611241 C11.2156347,19.7930836 11.7857984,19.5177451 11.967641,18.9962552 C12.1494836,18.4747653 11.8741451,17.9046016 11.3526552,17.722759 C9.36152871,17.0284567 8.0004,15.1439271 8.0004,13 Z" id="Stroke-102"></path>
            <path d="M11.2221896,20.1430863 C11.7673423,20.054616 12.1375565,19.5409631 12.0490863,18.9958104 C11.960616,18.4506577 11.4469631,18.0804435 10.9018104,18.1689137 C4.65212032,19.1831467 0,24.6022312 0,31 C0,31.5522847 0.44771525,32 1,32 C1.55228475,32 2,31.5522847 2,31 C2,25.5869136 5.93705152,21.0007866 11.2221896,20.1430863 Z" id="Stroke-103"></path>
            <path d="M37.9996,13 C37.9996,9.13439564 34.8655652,6 30.9996,6 C29.3824551,6 27.846537,6.55187587 26.6122322,7.5462769 C26.1821553,7.89276256 26.1143912,8.52229089 26.4608769,8.95236778 C26.8073626,9.38244468 27.4368909,9.45020876 27.8669678,9.1037231 C28.7489574,8.39316002 29.8431556,8 30.9996,8 C33.7609441,8 35.9996,10.2389136 35.9996,13 C35.9996,15.1439271 34.6384713,17.0284567 32.6473448,17.722759 C32.1258549,17.9046016 31.8505164,18.4747653 32.032359,18.9962552 C32.2142016,19.5177451 32.7843653,19.7930836 33.3058552,19.611241 C36.0943901,18.6388837 37.9996,16.001055 37.9996,13 Z" id="Stroke-104"></path>
            <path d="M33.0981896,18.1689137 C32.5530369,18.0804435 32.039384,18.4506577 31.9509137,18.9958104 C31.8624435,19.5409631 32.2326577,20.054616 32.7778104,20.1430863 C38.0629485,21.0007866 42,25.5869136 42,31 C42,31.5522847 42.4477153,32 43,32 C43.5522847,32 44,31.5522847 44,31 C44,24.6022312 39.3478797,19.1831467 33.0981896,18.1689137 Z" id="Stroke-105"></path>
        </g>
    </g>
</svg>