<?xml version="1.0" encoding="UTF-8"?>
<svg width="44px" height="44px" viewBox="0 0 44 44" version="1.1" xmlns="http://www.w3.org/2000/svg" xmlns:xlink="http://www.w3.org/1999/xlink">
    <!-- Generator: sketchtool 40.1 (33804) - http://www.bohemiancoding.com/sketch -->
    <title>team</title>
    <desc>Created with sketchtool.</desc>
    <defs></defs>
    <g id="22pt-icons" stroke="none" stroke-width="1" fill="none" fill-rule="evenodd">
        <g id="team" fill="#636464">
            <path d="M8.966,12 C11.614,12 13,9.485 13,7 C13,4.009 11.379,2 8.966,2 C6.594,2 5,4.009 5,7 C5,9.485 6.362,12 8.966,12 L8.966,12 L8.966,12 L8.966,12 Z M8.966,4 C10.902,4 11,6.499 11,7 C11,8.038 10.575,10 8.966,10 C7.524,10 7,8.206 7,7 C7,6.499 7.095,4 8.966,4 L8.966,4 L8.966,4 L8.966,4 Z" id="Shape"></path>
            <path d="M9,18 C15.396,18 18,17.819 18,16 C18,15.958 17.998,15.917 17.992,15.876 C17.583,12.601 16.379,12.026 13.521,11.417 C12.982,11.301 12.449,11.646 12.334,12.186 C12.219,12.727 12.563,13.258 13.104,13.373 C15.276,13.836 15.684,13.982 15.94,15.633 C14.687,16 10.618,16 9,16 C7.382,16 3.312,16 2.059,15.633 C2.312,13.959 2.679,13.83 4.83,13.372 C5.37,13.257 5.715,12.726 5.6,12.185 C5.485,11.644 4.954,11.297 4.413,11.415 C1.604,12.014 0.42,12.585 0.008,15.875 C0.002,15.917 0,15.958 0,16 C0,17.819 2.604,18 9,18 L9,18 L9,18 L9,18 Z" id="Shape"></path>
            <path d="M32.966,12 C35.614,12 37,9.485 37,7 C37,4.009 35.379,2 32.966,2 C30.594,2 29,4.009 29,7 C29,9.485 30.362,12 32.966,12 L32.966,12 L32.966,12 L32.966,12 Z M32.966,4 C34.902,4 35,6.499 35,7 C35,8.038 34.575,10 32.966,10 C31.524,10 31,8.206 31,7 C31,6.499 31.095,4 32.966,4 L32.966,4 L32.966,4 L32.966,4 Z" id="Shape"></path>
            <path d="M37.521,11.417 C36.982,11.301 36.449,11.646 36.334,12.186 C36.219,12.727 36.563,13.258 37.104,13.373 C39.276,13.836 39.684,13.982 39.94,15.633 C38.687,16 34.618,16 33,16 C31.382,16 27.312,16 26.059,15.633 C26.312,13.959 26.679,13.83 28.83,13.372 C29.37,13.257 29.715,12.726 29.6,12.185 C29.485,11.644 28.954,11.297 28.413,11.415 C25.604,12.014 24.42,12.585 24.008,15.875 C24.002,15.917 24,15.958 24,16 C24,17.819 26.604,18 33,18 C39.396,18 42,17.819 42,16 C42,15.958 41.998,15.917 41.992,15.876 C41.583,12.601 40.379,12.026 37.521,11.417 L37.521,11.417 L37.521,11.417 L37.521,11.417 Z" id="Shape"></path>
            <path d="M20.966,28 C18.594,28 17,30.009 17,33 C17,35.485 18.362,38 20.966,38 C23.614,38 25,35.485 25,33 C25,30.009 23.379,28 20.966,28 L20.966,28 L20.966,28 L20.966,28 Z M20.966,36 C19.524,36 19,34.206 19,33 C19,32.499 19.095,30 20.966,30 C22.902,30 23,32.499 23,33 C23,34.038 22.575,36 20.966,36 L20.966,36 L20.966,36 L20.966,36 Z" id="Shape"></path>
            <path d="M24.334,38.186 C24.219,38.727 24.563,39.258 25.104,39.373 C27.276,39.836 27.684,39.982 27.94,41.633 C26.687,42 22.618,42 21,42 C19.382,42 15.312,42 14.059,41.633 C14.312,39.959 14.679,39.83 16.83,39.372 C17.37,39.257 17.715,38.726 17.6,38.185 C17.485,37.645 16.954,37.297 16.413,37.415 C13.604,38.014 12.42,38.585 12.008,41.875 C12.002,41.917 12,41.958 12,42 C12,43.819 14.604,44 21,44 C27.396,44 30,43.819 30,42 C30,41.958 29.998,41.917 29.992,41.876 C29.583,38.601 28.379,38.026 25.521,37.417 C24.98,37.298 24.45,37.645 24.334,38.186 L24.334,38.186 L24.334,38.186 L24.334,38.186 Z" id="Shape"></path>
            <path d="M15.033,9.18 C15.04,9.22 15.034,9.261 15.046,9.3 C15.055,9.327 15.075,9.347 15.086,9.373 C15.096,9.398 15.095,9.426 15.107,9.451 C15.134,9.504 15.172,9.547 15.206,9.594 C15.222,9.615 15.233,9.638 15.25,9.657 C15.328,9.746 15.418,9.817 15.518,9.872 C15.526,9.876 15.53,9.884 15.538,9.888 L18.829,11.597 C18.976,11.673 19.134,11.709 19.289,11.709 C19.65,11.709 19.999,11.513 20.178,11.17 C20.432,10.68 20.241,10.076 19.751,9.821 L18.309,9.073 C19.143,8.786 19.92,8.667 20.999,8.667 C22.872,8.667 23.872,9.027 25.54,9.889 C26.033,10.143 26.634,9.95 26.888,9.459 C27.141,8.968 26.949,8.365 26.458,8.111 C24.562,7.132 23.262,6.667 20.999,6.667 C19.882,6.667 19.009,6.78 18.167,7.018 L18.719,5.965 C18.975,5.476 18.787,4.871 18.298,4.615 C17.808,4.358 17.204,4.548 16.948,5.036 L15.114,8.535 C15.101,8.56 15.102,8.588 15.091,8.613 C15.065,8.675 15.049,8.737 15.035,8.802 C15.022,8.864 15.012,8.923 15.012,8.987 C15.011,9.053 15.021,9.115 15.033,9.18 L15.033,9.18 L15.033,9.18 L15.033,9.18 Z" id="Shape"></path>
            <path d="M26.47,28.152 C26.002,28.445 25.86,29.062 26.152,29.53 C26.342,29.833 26.668,30 27.001,30 C27.182,30 27.365,29.951 27.53,29.848 C29.639,28.529 32.054,26.104 33.284,23.37 L34.148,24.774 C34.337,25.081 34.665,25.25 35.001,25.25 C35.18,25.25 35.361,25.202 35.524,25.102 C35.995,24.812 36.141,24.197 35.852,23.727 L33.852,20.477 C33.847,20.468 33.838,20.464 33.832,20.455 C33.801,20.408 33.758,20.372 33.719,20.331 C33.671,20.28 33.627,20.227 33.571,20.187 C33.531,20.159 33.484,20.143 33.439,20.12 C33.369,20.085 33.3,20.053 33.224,20.035 C33.206,20.031 33.193,20.019 33.175,20.016 C33.139,20.009 33.105,20.021 33.069,20.018 C32.998,20.013 32.929,20.011 32.857,20.022 C32.79,20.031 32.729,20.049 32.667,20.072 C32.637,20.083 32.605,20.082 32.575,20.096 L29.108,21.721 C28.608,21.955 28.393,22.551 28.627,23.051 C28.862,23.551 29.458,23.767 29.957,23.532 L31.294,22.905 C30.226,25.041 28.265,27.03 26.47,28.152 L26.47,28.152 L26.47,28.152 L26.47,28.152 Z" id="Shape"></path>
            <path d="M16,25 C16,24.448 15.552,24 15,24 C14.448,24 14,24.448 14,25 L14,27.003 C12.122,25.389 10.384,23.068 9.984,20.824 C9.887,20.281 9.367,19.917 8.824,20.015 C8.28,20.112 7.918,20.631 8.015,21.175 C8.469,23.724 10.196,26.188 12.113,28 L11,28 C10.448,28 10,28.448 10,29 C10,29.552 10.448,30 11,30 L15,30 L15.002,30 C15.121,30 15.236,29.971 15.346,29.93 C15.371,29.921 15.394,29.913 15.418,29.902 C15.519,29.855 15.614,29.795 15.696,29.715 C15.709,29.703 15.717,29.687 15.73,29.674 C15.772,29.629 15.814,29.585 15.848,29.53 C15.862,29.507 15.863,29.481 15.875,29.458 C15.906,29.398 15.927,29.336 15.946,29.27 C15.965,29.205 15.98,29.142 15.985,29.075 C15.987,29.05 16,29.027 16,29 L16,25 L16,25 L16,25 L16,25 Z" id="Shape"></path>
        </g>
    </g>
</svg>