<?xml version="1.0" encoding="UTF-8"?>
<svg width="44px" height="44px" viewBox="0 0 44 44" version="1.1" xmlns="http://www.w3.org/2000/svg" xmlns:xlink="http://www.w3.org/1999/xlink">
    <!-- Generator: sketchtool 40.1 (33804) - http://www.bohemiancoding.com/sketch -->
    <title>team-alt</title>
    <desc>Created with sketchtool.</desc>
    <defs></defs>
    <g id="22pt-icons" stroke="none" stroke-width="1" fill="none" fill-rule="evenodd">
        <g id="team-alt" fill="#636464">
            <path d="M22.4566222,25.6673939 C19.6813339,25.6673939 17.7984889,22.2149259 17.7984889,18.2084848 C17.7984889,14.0696963 19.0544683,12.153697 22.4566222,12.153697 C25.8742465,12.153697 27.1744,14.1021281 27.1744,18.2084848 C27.1744,22.1847996 25.243726,25.6673939 22.4566222,25.6673939 Z M22.4566222,10.214303 C17.7536285,10.214303 15.8429333,13.1290727 15.8429333,18.2084848 C15.8429333,23.1438156 18.2768689,27.6067879 22.4566222,27.6067879 C26.638953,27.6067879 29.1299556,23.1134599 29.1299556,18.2084848 C29.1299556,13.1587832 27.1651563,10.214303 22.4566222,10.214303 Z" id="Path"></path>
            <path d="M34.9751529,34.5007192 L34.9653333,34.3636364 C34.9653333,34.2812877 34.9941969,34.2210939 34.9992906,34.2161449 C34.9303432,34.2831341 34.7813044,34.3726207 34.5553725,34.466366 C34.0072878,34.6937813 33.141402,34.8926097 31.9906607,35.0504804 C29.766014,35.3556806 26.554712,35.5010909 22.4527111,35.5010909 C18.3538364,35.5010909 15.158717,35.35585 12.9494263,35.0506087 C11.8086541,34.8929966 10.9515199,34.6945095 10.4100996,34.4676689 C10.1878802,34.374565 10.0417635,34.2859249 9.97448315,34.2198412 C9.97956641,34.2248341 10.0075556,34.2838742 10.0075556,34.3636364 L9.99773603,34.5007192 C10.8083989,28.8707559 11.6260907,27.8190121 16.769528,27.3081427 L16.5746497,25.3784027 C10.394587,25.9922344 8.98674487,27.8030503 8.06181953,34.2265535 L8.052,34.3636364 C8.052,36.8070414 12.6367677,37.4404848 22.4527111,37.4404848 C32.2966186,37.4404848 36.9208889,36.8060793 36.9208889,34.3636364 L36.9110694,34.2265535 C35.9930897,27.8512871 34.5249302,25.9936344 28.3307725,25.3784027 L28.1358942,27.3081427 C33.3019025,27.8212539 34.1718716,28.9220202 34.9751529,34.5007192 Z" id="Path"></path>
            <path d="M3.98884781,26.1395789 C3.50849736,25.9986776 3.15610148,25.8510297 2.95374784,25.7165196 C2.89174953,25.6753076 2.92453333,25.7209421 2.92453333,25.8710303 L1.94675556,25.8710303 L2.9169792,25.9913351 C3.41018869,22.079216 4.260017,21.1682131 8.45911409,20.5735344 L8.18266369,18.6536172 C3.08568924,19.3754538 1.57628421,20.9935129 0.976531916,25.7507255 L0.968977778,25.8710303 C0.968977778,27.6146388 3.5597472,28.3745898 8.23526339,28.782214 L8.40651438,26.8502708 C6.54399427,26.6878912 5.02138777,26.4424541 3.98884781,26.1395789 Z" id="Path"></path>
            <path d="M10.0075556,12.7510303 C10.0075556,9.41110267 11.0597047,7.93939394 13.9871111,7.93939394 C15.7662455,7.93939394 16.7934917,8.4828269 17.3614705,9.53681635 L19.0861739,8.6226988 C18.1589607,6.90208378 16.4537602,6 13.9871111,6 C9.80694594,6 8.052,8.45475592 8.052,12.7510303 C8.052,16.6097844 9.8747561,20.1009117 13.1380297,20.5731127 L13.4203703,18.6540388 C11.3598955,18.3558847 10.0075556,15.7657462 10.0075556,12.7510303 Z" id="Path"></path>
            <path d="M43.9912,25.8710303 L43.9836748,25.7509551 C43.3851444,20.9942161 41.8749405,19.3755178 36.7775141,18.6536172 L36.5010637,20.5735344 C40.7005988,21.1682751 41.5510169,22.0797879 42.0431697,25.9911055 L43.0134222,25.8710303 L42.0356444,25.8710303 C42.0356444,25.7210357 42.0684256,25.6753903 42.0064722,25.7165829 C41.8042034,25.8510707 41.4519135,25.9987014 40.9716688,26.1395871 C39.9392101,26.4424715 38.416572,26.6878992 36.5536853,26.8502689 L36.7248925,28.782216 C41.4007002,28.3746713 43.9912,27.6147165 43.9912,25.8710303 Z" id="Path"></path>
            <path d="M36.9091556,12.7510303 C36.9091556,8.45517614 35.1533322,6 30.9730667,6 C28.5064176,6 26.801217,6.90208378 25.8740039,8.6226988 L27.5987072,9.53681635 C28.1666861,8.4828269 29.1939323,7.93939394 30.9730667,7.93939394 C33.9007537,7.93939394 34.9536,9.41159393 34.9536,12.7510303 C34.9536,15.7659405 33.6011341,18.3558579 31.5398522,18.6540323 L31.8221034,20.5731192 C35.0861683,20.1009565 36.9091556,16.6100096 36.9091556,12.7510303 Z" id="Path"></path>
        </g>
    </g>
</svg>