<?xml version="1.0" encoding="UTF-8"?>
<svg width="44px" height="44px" viewBox="0 0 44 44" version="1.1" xmlns="http://www.w3.org/2000/svg" xmlns:xlink="http://www.w3.org/1999/xlink">
    <!-- Generator: sketchtool 40.1 (33804) - http://www.bohemiancoding.com/sketch -->
    <title>trace</title>
    <desc>Created with sketchtool.</desc>
    <defs></defs>
    <g id="22pt-icons" stroke="none" stroke-width="1" fill="none" fill-rule="evenodd">
        <g id="trace" fill="#636464">
            <path d="M22,8 C22,6.89528475 22.8952847,6 24,6 L35,6 L35,4 L24,4 C21.7907153,4 20,5.79071525 20,8 L20,19 L22,19 L22,8 Z" id="Path"></path>
            <path d="M18,40 C20.2092847,40 22,38.2092847 22,36 L22,27 L20,27 L20,36 C20,37.1047153 19.1047153,38 18,38 L9,38 L9,40 L18,40 Z" id="Path"></path>
            <path d="M39,8 C37.3432847,8 36,6.65671525 36,5 C36,3.34328475 37.3432847,2 39,2 C40.6567153,2 42,3.34328475 42,5 C42,6.65671525 40.6567153,8 39,8 Z M39,0 C36.2387153,0 34,2.23871525 34,5 C34,7.76128475 36.2387153,10 39,10 C41.7612847,10 44,7.76128475 44,5 C44,2.23871525 41.7612847,0 39,0 Z" id="Path"></path>
            <path d="M21,26 C19.3432847,26 18,24.6567153 18,23 C18,21.3432847 19.3432847,20 21,20 C22.6567153,20 24,21.3432847 24,23 C24,24.6567153 22.6567153,26 21,26 Z M21,18 C18.2387153,18 16,20.2387153 16,23 C16,25.7612847 18.2387153,28 21,28 C23.7612847,28 26,25.7612847 26,23 C26,20.2387153 23.7612847,18 21,18 Z" id="Path"></path>
            <path d="M5,42 C3.34328475,42 2,40.6567153 2,39 C2,37.3432847 3.34328475,36 5,36 C6.65671525,36 8,37.3432847 8,39 C8,40.6567153 6.65671525,42 5,42 Z M5,34 C2.23871525,34 0,36.2387153 0,39 C0,41.7612847 2.23871525,44 5,44 C7.76128475,44 10,41.7612847 10,39 C10,36.2387153 7.76128475,34 5,34 Z" id="Path"></path>
        </g>
    </g>
</svg>