<?xml version="1.0" encoding="UTF-8"?>
<svg width="44px" height="44px" viewBox="0 0 44 44" version="1.1" xmlns="http://www.w3.org/2000/svg" xmlns:xlink="http://www.w3.org/1999/xlink">
    <!-- Generator: sketchtool 40.1 (33804) - http://www.bohemiancoding.com/sketch -->
    <title>user-edit</title>
    <desc>Created with sketchtool.</desc>
    <defs></defs>
    <g id="22pt-icons" stroke="none" stroke-width="1" fill="none" fill-rule="evenodd">
        <g id="user-edit" fill="#636464">
            <path d="M32.41,24.55 C32.75,24.987 33.379,25.063 33.814,24.723 C34.25,24.383 34.327,23.755 33.987,23.32 C31.366,19.961 27.787,17.644 23.782,16.612 C26.311,15.017 28,12.206 28,9.001 C28,4.038 23.962,0.001 19,0.001 C14.038,0.001 10,4.038 10,9.001 C10,12.217 11.701,15.036 14.244,16.628 C6.066,18.746 0,26.168 0,35 C0,35.553 0.448,36 1,36 C1.552,36 2,35.553 2,35 C2,25.626 9.626,18 19,18 C24.273,18 29.162,20.388 32.41,24.55 L32.41,24.55 L32.41,24.55 Z M12,9 C12,5.141 15.14,2 19,2 C22.86,2 26,5.141 26,9 C26,12.859 22.86,16 19,16 C15.14,16 12,12.859 12,9 L12,9 L12,9 Z" id="Shape"></path>
            <path d="M39.62,24.588 L39.62,24.588 C38.836,23.805 37.561,23.805 36.778,24.588 L25.421,35.948 C25.343,36.025 25.279,36.115 25.231,36.213 L22.103,42.558 C21.914,42.943 21.99,43.405 22.293,43.707 C22.485,43.899 22.741,44 23.001,44 C23.151,44 23.302,43.966 23.443,43.896 L29.785,40.768 C29.883,40.72 29.973,40.656 30.05,40.579 L41.416,29.211 C42.194,28.431 42.194,27.162 41.416,26.384 L39.62,24.588 L39.62,24.588 L39.62,24.588 Z M26.595,37.968 L28.034,39.402 L25.198,40.801 L26.595,37.968 L26.595,37.968 L26.595,37.968 Z M29.631,38.168 L27.826,36.37 L38.192,26.001 C38.194,25.999 38.201,25.998 38.205,26.001 L39.999,27.797 L29.631,38.168 L29.631,38.168 L29.631,38.168 Z" id="Shape"></path>
        </g>
    </g>
</svg>