<?xml version="1.0" encoding="UTF-8"?>
<svg width="44px" height="44px" viewBox="0 0 44 44" version="1.1" xmlns="http://www.w3.org/2000/svg" xmlns:xlink="http://www.w3.org/1999/xlink">
    <!-- Generator: sketchtool 40.1 (33804) - http://www.bohemiancoding.com/sketch -->
    <title>user</title>
    <desc>Created with sketchtool.</desc>
    <defs></defs>
    <g id="22pt-icons" stroke="none" stroke-width="1" fill="none" fill-rule="evenodd">
        <g id="user" fill="#636464">
            <path d="M1.02380952,45 C1.58895238,45 2.04761905,44.5423571 2.04761905,43.9761905 C2.04761905,33.2497381 10.7735476,24.5238095 21.5,24.5238095 C32.2264524,24.5238095 40.952381,33.2497381 40.952381,43.9761905 C40.952381,44.5423571 41.4110476,45 41.9761905,45 C42.5413333,45 43,44.5423571 43,43.9761905 C43,33.9674286 36.114881,25.5578571 26.8391667,23.1744286 C30.3620952,21.269119 32.7619048,17.5404048 32.7619048,13.2619048 C32.7619048,7.0525 27.7094048,2 21.5,2 C15.2905952,2 10.2380952,7.0525 10.2380952,13.2619048 C10.2380952,17.5404048 12.6379048,21.269119 16.1608333,23.1744286 C6.88511905,25.5578571 0,33.9674286 0,43.9761905 C0,44.5423571 0.458666667,45 1.02380952,45 L1.02380952,45 L1.02380952,45 L1.02380952,45 Z M12.2857143,13.2619048 C12.2857143,8.1807381 16.4198571,4.04761905 21.5,4.04761905 C26.5801429,4.04761905 30.7142857,8.1807381 30.7142857,13.2619048 C30.7142857,18.3430714 26.5801429,22.4761905 21.5,22.4761905 C16.4198571,22.4761905 12.2857143,18.3430714 12.2857143,13.2619048 L12.2857143,13.2619048 L12.2857143,13.2619048 L12.2857143,13.2619048 Z" id="Shape"></path>
        </g>
    </g>
</svg>