<?xml version="1.0" encoding="UTF-8"?>
<svg width="28px" height="28px" viewBox="0 0 28 28" version="1.1" xmlns="http://www.w3.org/2000/svg" xmlns:xlink="http://www.w3.org/1999/xlink">
    <!-- Generator: sketchtool 40.1 (33804) - http://www.bohemiancoding.com/sketch -->
    <title>user-edit-sm</title>
    <desc>Created with sketchtool.</desc>
    <defs></defs>
    <g id="14pt-icons" stroke="none" stroke-width="1" fill="none" fill-rule="evenodd">
        <g id="user-edit-sm" fill="#636464">
            <path d="M12,10 C9.79103475,10 8,8.20896525 8,6 C8,3.79103475 9.79103475,2 12,2 C14.2089653,2 16,3.79103475 16,6 C16,8.20896525 14.2089653,10 12,10 Z M12,0 C8.68646525,0 6,2.68646525 6,6 C6,9.31353475 8.68646525,12 12,12 C15.3135347,12 18,9.31353475 18,6 C18,2.68646525 15.3135347,0 12,0 Z" id="Stroke-25"></path>
            <path d="M22.3710559,11.5031024 L13.0789165,20.7529282 C13.0087139,20.8222308 12.9511117,20.9032339 12.9079101,20.9914372 L11.0309916,25.7710097 C10.8608852,26.1175227 10.9292878,26.5333383 11.201998,26.8051485 C11.3748045,26.977955 11.6052131,27.0688584 11.8392219,27.0688584 C11.974227,27.0688584 12.1101321,27.0382572 12.2370368,26.9752549 L17.0066638,25.0910909 C17.0948671,25.0478893 17.1758702,24.9902871 17.2451728,24.9209845 L26.5454124,15.6639584 C27.2456387,14.9619321 27.2456387,13.8197892 26.5454124,13.119563 L24.9304567,11.5045573 C24.2233254,10.7983759 23.0757823,10.7983759 22.3710559,11.5031024 Z M15.4307047,23.8616448 L13.3614353,24.6967531 L14.1355562,22.5709964 L15.4307047,23.8616448 Z M15.2434977,21.1327425 L23.5699997,12.8000002 L25.1996086,14.4167531 L16.8680586,22.7510032 L15.2434977,21.1327425 Z" id="Shape"></path>
            <path d="M17.1959883,13.4340437 C17.2856389,13.4913488 17.3747146,13.5502693 17.4631812,13.6108118 C17.9144308,13.9196263 18.5269981,13.7987972 18.8313887,13.3409324 C19.1357792,12.8830676 19.0167265,12.2615512 18.565477,11.9527367 C16.0636086,10.2405724 13.2766692,9.70256042 10.6328662,10.1504879 C4.64887583,10.8415857 0,15.9963173 0,22.2525507 C0,22.8048355 0.441274027,23.2525507 0.985613125,23.2525507 C1.52995222,23.2525507 1.97122625,22.8048355 1.97122625,22.2525507 C1.97122625,16.6299178 6.46383394,12.071732 12.0055748,12.071732 C13.7194604,12.071732 15.2915288,12.4322485 16.6736241,13.16149 C16.7305331,13.1915171 16.9609663,13.3269011 17.1959883,13.4340437 L17.1959883,13.4340437 Z" id="Combined-Shape"></path>
        </g>
    </g>
</svg>