<?xml version="1.0" encoding="UTF-8"?>
<svg width="28px" height="28px" viewBox="0 0 28 28" version="1.1" xmlns="http://www.w3.org/2000/svg" xmlns:xlink="http://www.w3.org/1999/xlink">
    <!-- Generator: sketchtool 40.1 (33804) - http://www.bohemiancoding.com/sketch -->
    <title>warning-sm</title>
    <desc>Created with sketchtool.</desc>
    <defs></defs>
    <g id="14pt-icons" stroke="none" stroke-width="1" fill="none" fill-rule="evenodd">
        <g id="warning-sm" fill="#636464">
            <path d="M2.67987508,23.5882077 L25.3233165,23.5882077 C26.5226542,23.5882077 26.9101298,22.8974311 26.2710999,21.8842449 L15.1064066,4.18254833 C14.4580789,3.15462048 13.5447917,3.15512933 12.896785,4.18254833 L1.73209164,21.8842449 C1.08921908,22.9035236 1.47362176,23.5882077 2.67987508,23.5882077 Z M13.7426043,4.71601775 C13.998441,4.31038698 14.0047483,4.31038346 14.2605872,4.71601775 L25.4252806,22.4177143 C25.5519687,22.6185792 25.5745181,22.6981145 25.6129712,22.6295619 C25.6498692,22.5637816 25.5653586,22.5882077 25.3233165,22.5882077 L2.67987508,22.5882077 C2.4344236,22.5882077 2.34791597,22.5636789 2.38611584,22.6317191 C2.42594509,22.7026615 2.449384,22.6214947 2.577911,22.4177143 L13.7426043,4.71601775 Z M26.2127904,21.9369737 C26.8123258,22.8875411 26.4667817,23.5 25.3233165,23.5 L2.67987508,23.5 C1.53006945,23.5 1.18673425,22.8940917 1.79040116,21.9369737 L12.9550945,4.23527719 C13.5728293,3.25585442 14.4291687,3.25396212 15.0480971,4.23527719 L26.2127904,21.9369737 Z M12.1092751,3.70180778 L0.944581806,21.4035043 C-0.0825705106,23.0320612 0.749230358,24.5 2.67987508,24.5 L25.3233165,24.5 C27.2486551,24.5 28.08106,23.024606 27.0586098,21.4035043 L15.8939164,3.70180778 C14.8820255,2.09744797 13.1187084,2.10134447 12.1092751,3.70180778 Z" id="Triangle"></path>
            <path d="M14,17 C14.5954114,17 15,16.433576 15,15.8 L15,10.2 C15,9.56642397 14.5954114,9 14,9 C13.4045886,9 13,9.56642397 13,10.2 L13,15.8 C13,16.433576 13.4045886,17 14,17 Z M14,10.2 C14,10.0603774 14.0431267,10 14,10 C13.9568733,10 14,10.0603774 14,10.2 L14,15.8 C14,15.9396226 13.9568733,16 14,16 C14.0431267,16 14,15.9396226 14,15.8 L14,10.2 Z" id="Stroke-392"></path>
            <path d="M15.0606602,18.7393391 C14.4748737,18.1535526 13.5251263,18.1535526 12.9393398,18.7393391 C12.3535534,19.3251255 12.3535534,20.274873 12.9393398,20.8606594 C13.5251263,21.4464458 14.4748737,21.4464458 15.0606602,20.8606594 C15.6464466,20.274873 15.6464466,19.3251255 15.0606602,18.7393391 Z" id="Stroke-392"></path>
        </g>
    </g>
</svg>