<?xml version="1.0" encoding="UTF-8"?>
<svg width="28px" height="28px" viewBox="0 0 28 28" version="1.1" xmlns="http://www.w3.org/2000/svg" xmlns:xlink="http://www.w3.org/1999/xlink">
    <!-- Generator: sketchtool 40.1 (33804) - http://www.bohemiancoding.com/sketch -->
    <title>warning-sm</title>
    <desc>Created with sketchtool.</desc>
    <defs></defs>
    <g id="14pt-icons" stroke="none" stroke-width="1" fill="none" fill-rule="evenodd">
        <g id="warning-sm" fill="#636464">
            <path d="M12.0389816,3.74643884 L0.459682255,22.1054959 C-0.605613829,23.79453 0.257076343,25.3169814 2.25941644,25.3169814 L25.7437323,25.3169814 C27.7405693,25.3169814 28.6038859,23.7867979 27.5434665,22.1054959 L15.9641672,3.74643884 C14.9146993,2.0825004 13.0859006,2.0865416 12.0389816,3.74643884 Z M13.7329652,4.79831196 C13.9983025,4.37761791 14.004844,4.37761426 14.2701836,4.79831196 L25.8494829,23.157369 C25.9808757,23.3656932 26.0042625,23.448182 26.0441435,23.3770837 C26.0824117,23.3088606 25.9947628,23.3341938 25.7437323,23.3341938 L2.25941644,23.3341938 C2.00485,23.3341938 1.91512987,23.3087541 1.95474831,23.379321 C1.99605664,23.4528979 2.02036596,23.3687169 2.15366587,23.157369 L13.7329652,4.79831196 Z" id="Triangle"></path>
            <path d="M15.0606602,18.9393398 C14.4748737,18.3535534 13.5251263,18.3535534 12.9393398,18.9393398 C12.3535534,19.5251263 12.3535534,20.4748737 12.9393398,21.0606602 C13.5251263,21.6464466 14.4748737,21.6464466 15.0606602,21.0606602 C15.6464466,20.4748737 15.6464466,19.5251263 15.0606602,18.9393398 Z" id="Stroke-392"></path>
            <path d="M14,9 C14.6903559,9 15.25,9.5498724 15.25,10.25 L15.25,15.75 C15.25,16.4403559 14.695169,17 14,17 C13.3096441,17 12.75,16.4501276 12.75,15.75 L12.75,10.25 C12.75,9.55964406 13.304831,9 14,9 Z" id="Path"></path>
        </g>
    </g>
</svg>